<?xml version="1.0" encoding="UTF-8" standalone="no"?>
<!-- Created with Inkscape (http://www.inkscape.org/) -->

<svg
   width="208mm"
   height="64mm"
   viewBox="0 0 207.99999 63.999998"
   version="1.1"
   id="svg1"
   xml:space="preserve"
   inkscape:version="1.4 (86a8ad7, 2024-10-11)"
   sodipodi:docname="Iconos para web.svg"
   inkscape:export-filename="boton_tuitear.svg"
   inkscape:export-xdpi="25.4"
   inkscape:export-ydpi="25.4"
   xmlns:inkscape="http://www.inkscape.org/namespaces/inkscape"
   xmlns:sodipodi="http://sodipodi.sourceforge.net/DTD/sodipodi-0.dtd"
   xmlns="http://www.w3.org/2000/svg"
   xmlns:svg="http://www.w3.org/2000/svg"><sodipodi:namedview
     id="namedview1"
     pagecolor="#505050"
     bordercolor="#eeeeee"
     borderopacity="1"
     inkscape:showpageshadow="0"
     inkscape:pageopacity="0"
     inkscape:pagecheckerboard="0"
     inkscape:deskcolor="#505050"
     inkscape:document-units="mm"
     inkscape:zoom="1"
     inkscape:cx="1884"
     inkscape:cy="162"
     inkscape:window-width="1920"
     inkscape:window-height="991"
     inkscape:window-x="-9"
     inkscape:window-y="-9"
     inkscape:window-maximized="1"
     inkscape:current-layer="layer1"><inkscape:page
       x="0"
       y="0"
       width="207.99998"
       height="63.999996"
       id="page20"
       margin="0"
       bleed="0" /></sodipodi:namedview><defs
     id="defs1" /><g
     inkscape:label="Capa 1"
     inkscape:groupmode="layer"
     id="layer1"
     transform="translate(-462.29391)"><rect
       style="fill:#1d9bf0;fill-opacity:1;stroke-width:8.00001;stroke-linecap:round;stroke-opacity:0.599068"
       id="rect20"
       width="207.99963"
       height="64"
       x="462.29428"
       y="0"
       ry="5.2091141" /><path
       d="m 605.49937,16.712158 v 10.797274 h 1.54047 l 0.23978,-1.540474 c 0.0678,0.208293 0.16209,0.41221 0.28319,0.610815 0.1211,0.198605 0.27617,0.379972 0.46508,0.54467 0.18892,0.159853 0.41914,0.288108 0.6904,0.384989 0.27127,0.09688 0.59336,0.145728 0.96635,0.145728 0.69754,0 1.28332,-0.162759 1.75803,-0.487309 0.47472,-0.329395 0.83319,-0.789306 1.07539,-1.380278 0.2422,-0.590972 0.36328,-1.283488 0.36328,-2.077909 0,-1.225541 -0.26607,-2.175084 -0.79891,-2.848405 -0.528,-0.673321 -1.2598,-1.010274 -2.1947,-1.010274 -0.26642,0 -0.51815,0.03159 -0.75551,0.09457 -0.23251,0.05813 -0.44548,0.140444 -0.63924,0.247013 -0.19376,0.106569 -0.36317,0.230043 -0.50849,0.37052 -0.14533,0.140477 -0.26402,0.290765 -0.35605,0.450618 V 16.71216 Z m -63.69017,0.290939 v 1.888773 h 3.175 v 8.617562 h 2.12907 V 18.89187 h 3.10265 v -1.888773 z m 17.54311,0.0072 v 1.910995 h 2.06344 v -1.910995 z m 5.31699,0.719336 -0.53795,2.267045 h -1.28623 v 1.474846 h 1.2206 v 4.090706 c 0,0.402055 0.068,0.755743 0.2036,1.060917 0.14048,0.305174 0.38982,0.54256 0.74828,0.712101 0.3633,0.169542 0.87684,0.254248 1.54047,0.254248 0.36815,0 0.65387,-0.01964 0.85732,-0.05839 0.20345,-0.03875 0.35612,-0.07991 0.45785,-0.123507 v -1.307413 h -1.00976 c -0.15501,0 -0.28326,-0.01247 -0.38499,-0.03669 -0.0969,-0.02906 -0.16963,-0.08696 -0.21807,-0.174149 -0.0436,-0.09204 -0.0656,-0.230372 -0.0656,-0.414445 l -0.0145,-4.003373 h 1.67121 v -1.482597 h -1.67121 v -2.259294 z m 68.94876,0 -0.53795,2.267045 h -1.28571 v 1.474846 h 1.2206 v 4.090706 c 0,0.402055 0.0675,0.755743 0.20309,1.060917 0.14047,0.305174 0.39033,0.54256 0.74879,0.712101 0.3633,0.169542 0.87684,0.254248 1.54047,0.254248 0.36815,0 0.65387,-0.01964 0.85732,-0.05839 0.20344,-0.03875 0.35612,-0.07991 0.45785,-0.123507 v -1.307413 h -1.01028 c -0.155,0 -0.28326,-0.01247 -0.38498,-0.03669 -0.0969,-0.02906 -0.16964,-0.08696 -0.21808,-0.174149 -0.0436,-0.09204 -0.0651,-0.230372 -0.0651,-0.414445 l -0.015,-4.003373 h 1.67122 v -1.482597 h -1.67122 v -2.259294 z m -61.06759,2.121318 c -0.7702,0 -1.42634,0.177102 -1.96887,0.530717 -0.54253,0.34877 -0.95889,0.825933 -1.24954,1.431437 -0.28579,0.60066 -0.42891,1.276441 -0.42891,2.027266 0,0.775046 0.15746,1.448436 0.47232,2.020032 0.31486,0.571596 0.75326,1.014772 1.31517,1.329635 0.56675,0.310018 1.22289,0.465088 1.96887,0.465088 0.52316,0 1.02713,-0.09957 1.51154,-0.298174 0.4844,-0.198605 0.89598,-0.486712 1.23506,-0.864546 0.33908,-0.377835 0.55256,-0.833481 0.63976,-1.366325 h -1.911 c -0.11141,0.353614 -0.30286,0.608252 -0.57412,0.763261 -0.27127,0.155009 -0.58858,0.232544 -0.95188,0.232544 -0.33909,0 -0.62958,-0.07514 -0.87178,-0.225309 -0.23736,-0.15501 -0.41925,-0.37327 -0.54519,-0.654224 -0.12595,-0.285798 -0.18914,-0.619844 -0.18914,-1.002523 h 5.05034 v -0.574125 c 0,-0.750825 -0.13355,-1.411746 -0.39997,-1.983342 -0.26643,-0.576439 -0.65888,-1.024914 -1.17719,-1.34462 -0.51831,-0.324551 -1.16011,-0.486792 -1.92547,-0.486792 z m 8.41241,0 c -0.62973,0 -1.1892,0.08761 -1.67845,0.261999 -0.48925,0.169541 -0.87931,0.430834 -1.16996,0.784448 -0.28579,0.348771 -0.44325,0.794338 -0.47232,1.33687 h 1.76579 c 0.10656,-0.348771 0.29749,-0.593329 0.5736,-0.733806 0.28096,-0.140477 0.57436,-0.21323 0.87954,-0.218074 0.42627,-0.0048 0.7388,0.08755 0.93741,0.276469 0.20345,0.184073 0.30489,0.447756 0.30489,0.791683 v 0.450618 l -0.94465,0.01447 c -1.32726,0.01453 -2.29832,0.237574 -2.91351,0.668693 -0.6152,0.426275 -0.92295,1.050818 -0.92295,1.874304 0,0.489247 0.11153,0.906126 0.33435,1.250053 0.22283,0.339082 0.52579,0.597984 0.90847,0.777213 0.38753,0.17923 0.81823,0.269235 1.29295,0.269235 0.528,0 0.98364,-0.104349 1.36632,-0.312643 0.38752,-0.208293 0.70962,-0.584014 0.96635,-1.126546 l 0.17415,1.293461 h 1.77302 v -5.282365 c 0,-0.489247 -0.10622,-0.910391 -0.31936,-1.264005 -0.20829,-0.358459 -0.54525,-0.632222 -1.01028,-0.821139 -0.46502,-0.193761 -1.08,-0.290938 -1.84536,-0.290938 z m 11.38173,0 c -0.68301,0 -1.26213,0.104349 -1.73684,0.312642 -0.46987,0.208294 -0.82595,0.491619 -1.06815,0.850077 -0.23736,0.358459 -0.35366,0.762868 -0.34882,1.213363 0.005,0.620036 0.20876,1.09959 0.61082,1.438672 0.4069,0.334238 0.94195,0.571624 1.60558,0.712101 l 1.3224,0.275952 c 0.33909,0.06297 0.58125,0.155368 0.72657,0.276469 0.15017,0.121101 0.22531,0.283343 0.22531,0.486792 0,0.266422 -0.12586,0.465041 -0.37775,0.595829 -0.24705,0.125945 -0.57392,0.188619 -0.98082,0.188619 -0.19376,0 -0.39716,-0.03108 -0.6103,-0.09405 -0.21314,-0.06782 -0.40458,-0.179337 -0.57412,-0.334346 -0.1647,-0.155009 -0.281,-0.365581 -0.34882,-0.632003 h -1.8309 c 0.0872,0.590972 0.29777,1.072916 0.63201,1.445907 0.33908,0.368146 0.74827,0.639001 1.22783,0.813387 0.4844,0.169541 0.98838,0.254765 1.51153,0.254765 0.62973,0 1.18204,-0.0924 1.65675,-0.276469 0.47472,-0.184074 0.84514,-0.450148 1.11156,-0.798918 0.26642,-0.353614 0.39946,-0.780056 0.39946,-1.278992 0,-0.169541 -0.0292,-0.358597 -0.0873,-0.56689 -0.0533,-0.213138 -0.15234,-0.42371 -0.29766,-0.632003 -0.14532,-0.208293 -0.35111,-0.39974 -0.61753,-0.574125 -0.26158,-0.179229 -0.60332,-0.319438 -1.02475,-0.421163 l -1.22059,-0.276469 c -0.4069,-0.08235 -0.70696,-0.179009 -0.90072,-0.290422 -0.19377,-0.116256 -0.29094,-0.273717 -0.29094,-0.472322 0,-0.266422 0.11869,-0.46504 0.35605,-0.595829 0.23736,-0.130789 0.53793,-0.196371 0.90123,-0.196371 0.35846,0 0.65374,0.07993 0.88626,0.239779 0.23735,0.155009 0.38286,0.378051 0.43614,0.668693 h 1.77251 c -0.01,-0.741137 -0.29302,-1.315477 -0.85008,-1.722376 -0.55222,-0.406898 -1.29068,-0.610298 -2.21589,-0.610298 z m 7.99073,0 c -0.74114,0 -1.38584,0.164632 -1.93322,0.494026 -0.54253,0.329395 -0.96367,0.789823 -1.264,1.380795 -0.29549,0.590972 -0.44338,1.281097 -0.44338,2.070674 0,0.789578 0.14789,1.472531 0.44338,2.048971 0.30033,0.57644 0.72147,1.022524 1.264,1.337386 0.54738,0.314862 1.18969,0.472323 1.92599,0.472323 0.76535,0 1.41671,-0.16515 1.9544,-0.494544 0.54253,-0.329394 0.9565,-0.782133 1.2423,-1.358573 0.29064,-0.581284 0.43615,-1.249894 0.43615,-2.005563 0,-0.804109 -0.1479,-1.501406 -0.44339,-2.092378 -0.29548,-0.590972 -0.71423,-1.046619 -1.25677,-1.366325 -0.54253,-0.324551 -1.18432,-0.486792 -1.92546,-0.486792 z m 18.5167,0 c -0.39721,0 -0.75329,0.08232 -1.06815,0.247013 -0.31486,0.159853 -0.58333,0.385286 -0.80615,0.675928 -0.21799,0.285798 -0.38792,0.619844 -0.50902,1.002523 v -1.779737 h -2.04173 v 7.51272 h 2.12183 v -4.112411 c 0,-0.251889 0.0412,-0.479713 0.12351,-0.683162 0.0824,-0.203449 0.21538,-0.375254 0.39946,-0.515731 0.18407,-0.140477 0.42385,-0.240044 0.71933,-0.298173 0.29549,-0.05813 0.65157,-0.07008 1.06815,-0.03617 0.0484,0.0048 0.10207,0.0096 0.1602,0.01447 0.063,0.0048 0.11608,0.01731 0.15968,0.03669 V 19.89491 c -0.0291,-0.01453 -0.075,-0.02461 -0.13797,-0.02946 -0.0581,-0.0097 -0.12132,-0.01447 -0.18914,-0.01447 z m 4.97541,0 c -0.7702,0 -1.42634,0.177102 -1.96888,0.530717 -0.54253,0.34877 -0.95941,0.825933 -1.25005,1.431437 -0.2858,0.60066 -0.4284,1.276441 -0.4284,2.027266 0,0.775046 0.15695,1.448436 0.47181,2.020032 0.31486,0.571596 0.75326,1.014772 1.31516,1.329635 0.56676,0.310018 1.22341,0.465088 1.96939,0.465088 0.52316,0 1.02662,-0.09957 1.51102,-0.298174 0.48441,-0.198605 0.8965,-0.486712 1.23559,-0.864546 0.33908,-0.377835 0.55204,-0.833481 0.63923,-1.366325 h -1.91099 c -0.11141,0.353614 -0.30286,0.608252 -0.57413,0.763261 -0.27126,0.155009 -0.58857,0.232544 -0.95188,0.232544 -0.33908,0 -0.62958,-0.07514 -0.87178,-0.225309 -0.23736,-0.15501 -0.41872,-0.37327 -0.54467,-0.654224 -0.12594,-0.285798 -0.18913,-0.619844 -0.18913,-1.002523 h 5.04982 v -0.574125 c 0,-0.750825 -0.13304,-1.411746 -0.39946,-1.983342 -0.26642,-0.576439 -0.65888,-1.024914 -1.17719,-1.34462 -0.51831,-0.324551 -1.16011,-0.486792 -1.92546,-0.486792 z m -73.34488,0.145727 v 5.195032 c 0,0.402055 0.0823,0.755743 0.24701,1.060917 0.16954,0.305174 0.39259,0.561686 0.6687,0.769979 0.27611,0.208293 0.58095,0.365754 0.91519,0.472323 0.33908,0.106568 0.6832,0.160197 1.03197,0.160197 0.29549,0 0.59555,-0.04646 0.90072,-0.138493 0.31002,-0.08719 0.58378,-0.247044 0.82114,-0.479558 0.2422,-0.237357 0.40684,-0.576185 0.49403,-1.016992 l 0.24701,1.489315 h 1.59887 v -7.51272 h -2.10013 v 4.889624 c 0,0.387523 -0.12347,0.69049 -0.37052,0.908472 -0.2422,0.213137 -0.57147,0.319877 -0.98805,0.319877 -0.44081,0 -0.77486,-0.111521 -1.00253,-0.334346 -0.22766,-0.222826 -0.34158,-0.508542 -0.34158,-0.857312 v -4.926315 z m 8.89145,0 v 7.51272 h 2.02726 v -7.51272 z m 78.86288,0 v 5.195032 c 0,0.201027 0.0207,0.390065 0.062,0.56689 0.0413,0.176826 0.10317,0.34144 0.18552,0.494027 0.0848,0.152587 0.1827,0.292852 0.29404,0.421163 0.11134,0.128311 0.23608,0.244669 0.37414,0.348816 0.13805,0.104147 0.28352,0.195679 0.43615,0.274402 0.15263,0.07872 0.31244,0.144636 0.47956,0.197921 0.16954,0.05328 0.34023,0.09316 0.51211,0.119889 0.17188,0.02673 0.34496,0.04031 0.51935,0.04031 0.29548,0 0.59606,-0.04646 0.90123,-0.138493 0.15501,-0.0436 0.30084,-0.105593 0.4377,-0.185519 0.13687,-0.07993 0.26476,-0.177782 0.38344,-0.294039 0.1211,-0.118678 0.22256,-0.262537 0.30489,-0.432015 0.0823,-0.169477 0.14554,-0.364573 0.18914,-0.584977 l 0.24701,1.489315 h 1.59835 v -7.51272 h -2.09961 v 4.889624 c 0,0.193762 -0.0308,0.366368 -0.0925,0.517798 -0.0617,0.15143 -0.1545,0.281683 -0.27802,0.390674 -0.1211,0.106569 -0.26412,0.186451 -0.42891,0.239779 -0.1648,0.05333 -0.35137,0.0801 -0.55966,0.0801 -0.2204,0 -0.41429,-0.02798 -0.58136,-0.08372 -0.16707,-0.05573 -0.30733,-0.139218 -0.42116,-0.25063 -0.11384,-0.111413 -0.19938,-0.238494 -0.25632,-0.381373 -0.0569,-0.142878 -0.0853,-0.301554 -0.0853,-0.475939 v -4.926315 z m -65.69366,1.33687 c 0.33908,0 0.62002,0.07275 0.84284,0.218074 0.22767,0.145321 0.3976,0.34394 0.50901,0.595829 0.11626,0.25189 0.17415,0.527527 0.17415,0.827857 h -3.06648 c -0.005,-0.27611 0.0536,-0.539793 0.17467,-0.791683 0.12594,-0.25189 0.30253,-0.45529 0.5302,-0.610299 0.23251,-0.159853 0.51106,-0.239778 0.83561,-0.239778 z m 51.27697,0 c 0.33908,0 0.62002,0.07275 0.84284,0.218074 0.22767,0.145321 0.39709,0.34394 0.5085,0.595829 0.11626,0.25189 0.17467,0.527527 0.17467,0.827857 h -3.06648 c -0.005,-0.27611 0.0531,-0.539793 0.17415,-0.791683 0.12594,-0.25189 0.30304,-0.45529 0.53071,-0.610299 0.23252,-0.159853 0.51106,-0.239778 0.83561,-0.239778 z m -14.61513,0.05788 c 0.49409,0 0.88416,0.186665 1.16996,0.559656 0.29064,0.37299 0.43563,0.949204 0.43563,1.729093 0,0.881614 -0.15268,1.511456 -0.45785,1.889291 -0.30033,0.37299 -0.67793,0.559655 -1.13327,0.559655 -0.53284,0 -0.93247,-0.186665 -1.19889,-0.559655 -0.26158,-0.372991 -0.39222,-1.002833 -0.39222,-1.889291 0.005,-0.513467 0.0627,-0.939392 0.17414,-1.278475 0.11626,-0.339082 0.29046,-0.591329 0.52297,-0.756026 0.23251,-0.169541 0.52592,-0.254248 0.87953,-0.254248 z m -8.86974,0.0217 c 0.39237,0 0.70199,0.109131 0.92966,0.327112 0.22767,0.217982 0.38752,0.503698 0.47956,0.857312 0.092,0.353615 0.13849,0.729336 0.13849,1.126546 0,0.421431 -0.0512,0.81098 -0.15296,1.169438 -0.10173,0.353614 -0.26636,0.639847 -0.49403,0.857829 -0.22767,0.217981 -0.52773,0.326595 -0.90072,0.326595 -0.39721,0 -0.70974,-0.113912 -0.93741,-0.341581 -0.22767,-0.22767 -0.38991,-0.520558 -0.48679,-0.879017 -0.0969,-0.363302 -0.14521,-0.740897 -0.14521,-1.133264 0,-0.426275 0.0531,-0.813949 0.15968,-1.162719 0.10657,-0.353615 0.27359,-0.632159 0.50126,-0.835608 0.23251,-0.208294 0.53548,-0.312643 0.90847,-0.312643 z m -18.23196,2.477885 v 1.11156 c -0.005,0.159853 -0.0508,0.314923 -0.13798,0.465088 -0.0824,0.150165 -0.19626,0.28611 -0.34158,0.40721 -0.14532,0.116257 -0.30995,0.210527 -0.49403,0.283187 -0.17923,0.06782 -0.3635,0.101803 -0.55242,0.101803 -0.34877,0 -0.64405,-0.09718 -0.88625,-0.290938 -0.23736,-0.198606 -0.35605,-0.471852 -0.35605,-0.820622 0,-0.305174 0.0919,-0.547342 0.27595,-0.726571 0.18892,-0.179229 0.43639,-0.308002 0.74156,-0.385506 0.30517,-0.08235 0.63444,-0.125897 0.98805,-0.130741 z m 60.68777,10.550261 0.59583,7.266223 h 1.32963 l 0.55914,-7.266223 z m -45.43496,0.0072 v 1.910995 h 2.06344 v -1.910995 z m 41.64397,0 v 1.910995 h 2.06344 v -1.910995 z m -71.41941,0.719336 -0.53795,2.267045 h -1.28571 v 1.474846 h 1.2206 v 4.091223 c 0,0.402055 0.068,0.755226 0.2036,1.0604 0.14048,0.305174 0.38982,0.54256 0.74828,0.712101 0.3633,0.169542 0.87684,0.254765 1.54047,0.254765 0.36815,0 0.65386,-0.01964 0.85731,-0.05839 0.20345,-0.03875 0.35613,-0.07991 0.45786,-0.123507 v -1.30793 h -1.01028 c -0.15501,0 -0.28326,-0.01195 -0.38499,-0.03617 -0.0969,-0.02906 -0.16963,-0.08747 -0.21807,-0.174666 -0.0436,-0.09204 -0.0651,-0.229855 -0.0651,-0.413928 l -0.0145,-4.00389 h 1.6707 v -1.48208 h -1.6707 v -2.259811 z m -14.15004,2.121835 c -0.7702,0 -1.42686,0.176585 -1.96939,0.5302 -0.54253,0.34877 -0.95889,0.825933 -1.24954,1.431437 -0.28579,0.60066 -0.42891,1.276441 -0.42891,2.027266 0,0.775046 0.15746,1.448436 0.47232,2.020032 0.31487,0.571596 0.75326,1.014773 1.31517,1.329635 0.56675,0.310018 1.22341,0.465088 1.96939,0.465088 0.52315,0 1.02661,-0.09905 1.51102,-0.297657 0.4844,-0.198605 0.89598,-0.487229 1.23506,-0.865063 0.33908,-0.377835 0.55256,-0.832965 0.63976,-1.365808 h -1.911 c -0.11141,0.353614 -0.30286,0.607735 -0.57412,0.762744 -0.27127,0.155009 -0.58858,0.232544 -0.95188,0.232544 -0.33909,0 -0.62958,-0.07514 -0.87178,-0.225309 -0.23736,-0.155009 -0.41925,-0.372753 -0.54519,-0.653707 -0.12595,-0.285798 -0.18862,-0.619844 -0.18862,-1.002523 h 5.04982 v -0.574125 c 0,-0.750825 -0.13304,-1.412263 -0.39946,-1.983858 -0.26642,-0.57644 -0.65887,-1.024398 -1.17719,-1.344104 -0.51831,-0.324551 -1.1601,-0.486792 -1.92546,-0.486792 z m 8.13594,0 c -0.68301,0 -1.26213,0.104349 -1.73685,0.312642 -0.46987,0.208293 -0.82595,0.491619 -1.06815,0.850077 -0.23736,0.358459 -0.35366,0.762868 -0.34882,1.213363 0.005,0.620036 0.20825,1.099589 0.6103,1.438672 0.4069,0.334238 0.94247,0.571624 1.60611,0.712101 l 1.3224,0.275952 c 0.33908,0.06297 0.58125,0.154851 0.72657,0.275952 0.15016,0.121101 0.22531,0.283343 0.22531,0.486792 0,0.266422 -0.12587,0.465041 -0.37776,0.59583 -0.24704,0.125944 -0.57443,0.189135 -0.98133,0.189135 -0.19377,0 -0.39716,-0.0316 -0.6103,-0.09457 -0.21314,-0.06782 -0.40407,-0.179337 -0.57361,-0.334346 -0.1647,-0.155009 -0.281,-0.365581 -0.34882,-0.632003 h -1.83141 c 0.0872,0.590972 0.29828,1.072916 0.63252,1.445907 0.33908,0.368146 0.74827,0.639518 1.22783,0.813904 0.48441,0.169541 0.98787,0.254248 1.51102,0.254248 0.62973,0 1.18203,-0.09188 1.65675,-0.275953 0.47471,-0.184073 0.84565,-0.450664 1.11207,-0.799434 0.26643,-0.353614 0.39946,-0.780056 0.39946,-1.278992 0,-0.169541 -0.0292,-0.35808 -0.0873,-0.566373 -0.0533,-0.213138 -0.15234,-0.424226 -0.29766,-0.63252 -0.14532,-0.208293 -0.35111,-0.399223 -0.61753,-0.573608 -0.26158,-0.17923 -0.60331,-0.319955 -1.02474,-0.42168 l -1.2206,-0.275952 c -0.4069,-0.08235 -0.70748,-0.179526 -0.90124,-0.290938 -0.19376,-0.116257 -0.29042,-0.273718 -0.29042,-0.472323 0,-0.266422 0.11869,-0.46504 0.35605,-0.595829 0.23736,-0.130789 0.53742,-0.195854 0.90072,-0.195854 0.35846,0 0.65426,0.07993 0.88677,0.239779 0.23736,0.155009 0.38235,0.377534 0.43563,0.668176 h 1.77302 c -0.01,-0.741137 -0.29301,-1.31496 -0.85008,-1.721859 -0.55222,-0.406899 -1.29067,-0.610298 -2.21588,-0.610298 z m 14.11386,0 c -0.62972,0 -1.1892,0.0871 -1.67845,0.261482 -0.48924,0.169541 -0.87931,0.431351 -1.16995,0.784965 -0.2858,0.348771 -0.44326,0.794338 -0.47232,1.33687 h 1.76578 c 0.10657,-0.348771 0.2975,-0.593329 0.57361,-0.733806 0.28095,-0.140477 0.57436,-0.21323 0.87953,-0.218074 0.42628,-0.0048 0.73881,0.08704 0.93741,0.275952 0.20345,0.184073 0.30489,0.448273 0.30489,0.7922 v 0.450618 l -0.94464,0.01447 c -1.32727,0.01453 -2.29833,0.237058 -2.91352,0.668177 -0.61519,0.426275 -0.92294,1.051335 -0.92294,1.874821 0,0.489247 0.11152,0.905609 0.33435,1.249536 0.22282,0.339082 0.52579,0.598501 0.90847,0.77773 0.38752,0.179229 0.81823,0.268718 1.29294,0.268718 0.528,0 0.98365,-0.104349 1.36633,-0.312643 0.38752,-0.208293 0.70961,-0.583498 0.96635,-1.126029 l 0.17415,1.293461 h 1.77301 v -5.282365 c 0,-0.489247 -0.10674,-0.910908 -0.31987,-1.264522 -0.2083,-0.358459 -0.54473,-0.632222 -1.00976,-0.821139 -0.46503,-0.193761 -1.08001,-0.290421 -1.84537,-0.290422 z m 16.95453,0 c -0.72661,0 -1.36362,0.167023 -1.911,0.501261 -0.54253,0.329394 -0.96367,0.789822 -1.264,1.380794 -0.30034,0.590972 -0.45062,1.273925 -0.45062,2.048971 0,0.804109 0.15507,1.496625 0.46508,2.077909 0.31487,0.57644 0.74609,1.019617 1.29347,1.329635 0.54737,0.310018 1.16952,0.465088 1.86707,0.465088 0.61519,0 1.15076,-0.121084 1.6061,-0.363286 0.46018,-0.247045 0.82343,-0.578701 1.08985,-0.995288 0.26643,-0.421431 0.41671,-0.891421 0.45062,-1.409733 h -1.72237 c -0.0291,0.169541 -0.097,0.353816 -0.20361,0.552421 -0.10657,0.193761 -0.25634,0.360785 -0.4501,0.501262 -0.18892,0.140477 -0.4263,0.210839 -0.7121,0.210839 -0.53769,0 -0.95696,-0.213479 -1.25729,-0.639754 -0.30033,-0.431119 -0.4501,-1.012114 -0.4501,-1.743563 0,-0.775045 0.15216,-1.351775 0.45734,-1.72961 0.31001,-0.382678 0.71203,-0.574125 1.20612,-0.574125 0.29065,0 0.53281,0.06558 0.72658,0.19637 0.19376,0.125945 0.34404,0.288187 0.45061,0.486792 0.10657,0.193762 0.17694,0.38999 0.21084,0.588595 h 1.76579 c -0.0388,-0.537688 -0.19143,-1.024413 -0.45786,-1.460376 -0.26157,-0.435963 -0.62243,-0.782479 -1.08262,-1.039213 -0.45534,-0.256734 -0.99808,-0.384989 -1.6278,-0.384989 z m 12.02148,0 c -0.62972,0 -1.1892,0.0871 -1.67845,0.261482 -0.48924,0.169541 -0.87931,0.431351 -1.16995,0.784965 -0.2858,0.348771 -0.44326,0.794338 -0.47232,1.33687 h 1.76578 c 0.10657,-0.348771 0.29801,-0.593329 0.57412,-0.733806 0.28096,-0.140477 0.57385,-0.21323 0.87902,-0.218074 0.42628,-0.0048 0.73881,0.08704 0.93741,0.275952 0.20345,0.184073 0.30489,0.448273 0.30489,0.7922 v 0.450618 l -0.94464,0.01447 c -1.32727,0.01453 -2.29833,0.237058 -2.91352,0.668177 -0.61519,0.426275 -0.92294,1.051335 -0.92294,1.874821 0,0.489247 0.11152,0.905609 0.33435,1.249536 0.22282,0.339082 0.52579,0.598501 0.90847,0.77773 0.38752,0.179229 0.81874,0.268718 1.29346,0.268718 0.528,0 0.98313,-0.104349 1.36581,-0.312643 0.38752,-0.208293 0.70961,-0.583498 0.96635,-1.126029 l 0.17466,1.293461 h 1.7725 v -5.282365 c 0,-0.489247 -0.10622,-0.910908 -0.31936,-1.264522 -0.20829,-0.358459 -0.54524,-0.632222 -1.01027,-0.821139 -0.46503,-0.193761 -1.08001,-0.290421 -1.84537,-0.290422 z m 11.67939,0 c -0.62972,0 -1.1892,0.0871 -1.67845,0.261482 -0.48924,0.169541 -0.87879,0.431351 -1.16943,0.784965 -0.2858,0.348771 -0.44326,0.794338 -0.47233,1.33687 h 1.76527 c 0.10657,-0.348771 0.29802,-0.593329 0.57413,-0.733806 0.28095,-0.140477 0.57435,-0.21323 0.87953,-0.218074 0.42627,-0.0048 0.73829,0.08704 0.93689,0.275952 0.20345,0.184073 0.30541,0.448273 0.30541,0.7922 v 0.450618 l -0.94465,0.01447 c -1.32726,0.01453 -2.29832,0.237058 -2.91351,0.668177 -0.6152,0.426275 -0.92294,1.051335 -0.92294,1.874821 0,0.489247 0.11152,0.905609 0.33434,1.249536 0.22283,0.339082 0.52528,0.598501 0.90796,0.77773 0.38752,0.179229 0.81874,0.268718 1.29346,0.268718 0.528,0 0.98364,-0.104349 1.36632,-0.312643 0.38753,-0.208293 0.70962,-0.583498 0.96635,-1.126029 l 0.17415,1.293461 h 1.77302 v -5.282365 c 0,-0.489247 -0.10674,-0.910908 -0.31988,-1.264522 -0.20829,-0.358459 -0.54473,-0.632222 -1.00975,-0.821139 -0.46503,-0.193761 -1.08053,-0.290421 -1.84589,-0.290422 z m 7.51841,0 c -0.58129,0 -1.08953,0.145507 -1.52549,0.436149 -0.43596,0.285798 -0.77292,0.714113 -1.01027,1.285709 -0.23736,0.566752 -0.35606,1.274129 -0.35606,2.121835 0,0.939742 0.14073,1.702621 0.42168,2.288749 0.28096,0.581284 0.65616,1.005335 1.12603,1.271757 0.46988,0.266422 0.9882,0.399459 1.55495,0.399459 0.2422,0 0.47002,-0.03399 0.68316,-0.101803 0.21314,-0.06297 0.40937,-0.152461 0.58859,-0.268717 0.18408,-0.116257 0.34871,-0.249294 0.49403,-0.399459 0.14532,-0.155009 0.2688,-0.322549 0.37052,-0.501778 v 3.465938 h 2.12184 v -9.852629 h -2.12184 l -0.0145,1.082622 c -0.11141,-0.17923 -0.24975,-0.341471 -0.41444,-0.486792 -0.15986,-0.150165 -0.33883,-0.280812 -0.53744,-0.392225 -0.1986,-0.111412 -0.41447,-0.196119 -0.64699,-0.254248 -0.23251,-0.06297 -0.47707,-0.09457 -0.7338,-0.09457 z m -38.92631,0.0801 c -0.39236,0 -0.73171,0.0555 -1.01751,0.166915 -0.2858,0.111413 -0.52318,0.254529 -0.7121,0.428914 -0.18407,0.169541 -0.33384,0.346127 -0.4501,0.5302 v -1.060917 h -2.08566 v 7.513237 h 2.12183 v -4.810043 c 0,-0.242201 0.068,-0.445601 0.20361,-0.610298 0.13563,-0.164697 0.30983,-0.288172 0.52296,-0.37052 0.21799,-0.08235 0.44342,-0.123507 0.67593,-0.123507 0.34877,0 0.64405,0.101442 0.88625,0.304891 0.2422,0.203449 0.36329,0.508808 0.36329,0.915706 v 4.693771 h 2.12183 v -4.955253 c 0,-0.620037 -0.12347,-1.121623 -0.37052,-1.504301 -0.24704,-0.387523 -0.57153,-0.670848 -0.97358,-0.850078 -0.39721,-0.179229 -0.82604,-0.268717 -1.28623,-0.268717 z m 12.44989,0.06511 v 7.513237 h 2.02726 v -7.513237 z m 32.75252,0 v 5.195549 c 0,0.402055 0.0823,0.755226 0.24701,1.0604 0.16955,0.305174 0.39207,0.562202 0.66818,0.770496 0.27611,0.208293 0.58147,0.365754 0.91571,0.472322 0.33908,0.106569 0.6832,0.159681 1.03198,0.159681 0.29548,0 0.59554,-0.04594 0.90072,-0.137976 0.31001,-0.08719 0.58378,-0.247044 0.82113,-0.479558 0.24221,-0.237357 0.40684,-0.576702 0.49403,-1.017509 l 0.24701,1.489832 h 1.59887 v -7.513237 h -2.10013 v 4.890141 c 0,0.387523 -0.12347,0.69049 -0.37052,0.908472 -0.2422,0.213137 -0.57146,0.31936 -0.98805,0.31936 -0.44081,0 -0.77537,-0.111521 -1.00304,-0.334346 -0.22767,-0.222826 -0.34158,-0.508542 -0.34158,-0.857312 v -4.926315 z m 8.89145,0 v 7.513237 h 2.02726 v -7.513237 z m -85.5984,1.33687 c 0.33909,0 0.62002,0.07275 0.84285,0.218074 0.22767,0.145321 0.39708,0.34394 0.50849,0.595829 0.11626,0.25189 0.17415,0.528044 0.17415,0.828374 H 551.883 c -0.005,-0.27611 0.053,-0.54031 0.17415,-0.7922 0.12594,-0.25189 0.30305,-0.45529 0.53072,-0.610299 0.23251,-0.159853 0.51105,-0.239778 0.8356,-0.239778 z m 71.15018,0.05839 c 0.55707,0 0.96917,0.222525 1.23559,0.668176 0.26642,0.440807 0.39946,0.990723 0.39946,1.649512 0,0.421431 -0.0608,0.813887 -0.1819,1.177189 -0.11626,0.363303 -0.29524,0.656191 -0.53744,0.879016 -0.2422,0.222826 -0.54756,0.334347 -0.91571,0.334347 -0.4844,0 -0.87686,-0.201009 -1.17719,-0.603064 -0.30033,-0.402055 -0.4501,-0.997911 -0.4501,-1.787488 0,-0.765357 0.15746,-1.341571 0.47233,-1.729093 0.31486,-0.392367 0.69962,-0.588595 1.15496,-0.588595 z m -47.75264,2.499589 v 1.11156 c -0.005,0.159853 -0.0508,0.314923 -0.13797,0.465088 -0.0824,0.150165 -0.19626,0.285593 -0.34158,0.406693 -0.14533,0.116257 -0.30996,0.211044 -0.49403,0.283704 -0.17923,0.06782 -0.3635,0.101286 -0.55242,0.101286 -0.34877,0 -0.64405,-0.09666 -0.88625,-0.290422 -0.23736,-0.198605 -0.35605,-0.472368 -0.35605,-0.821138 0,-0.305174 0.0919,-0.547342 0.27595,-0.726571 0.18892,-0.179229 0.43638,-0.307485 0.74156,-0.384989 0.30517,-0.08235 0.63443,-0.125898 0.98805,-0.130742 z m 28.97601,0 v 1.11156 c -0.005,0.159853 -0.0508,0.314923 -0.13797,0.465088 -0.0824,0.150165 -0.19626,0.285593 -0.34158,0.406693 -0.14533,0.116257 -0.30996,0.211044 -0.49403,0.283704 -0.17923,0.06782 -0.36299,0.101286 -0.55191,0.101286 -0.34877,0 -0.64456,-0.09666 -0.88676,-0.290422 -0.23736,-0.198605 -0.35605,-0.472368 -0.35605,-0.821138 0,-0.305174 0.0924,-0.547342 0.27646,-0.726571 0.18892,-0.179229 0.43587,-0.307485 0.74104,-0.384989 0.30518,-0.08235 0.63444,-0.125898 0.98806,-0.130742 z m 11.67991,0 v 1.11156 c -0.005,0.159853 -0.0508,0.314923 -0.13798,0.465088 -0.0823,0.150165 -0.19626,0.285593 -0.34158,0.406693 -0.14532,0.116257 -0.30995,0.211044 -0.49402,0.283704 -0.17923,0.06782 -0.36351,0.101286 -0.55243,0.101286 -0.34877,0 -0.64404,-0.09666 -0.88625,-0.290422 -0.23735,-0.198605 -0.35605,-0.472368 -0.35605,-0.821138 0,-0.305174 0.0919,-0.547342 0.27596,-0.726571 0.18891,-0.179229 0.43586,-0.307485 0.74104,-0.384989 0.30517,-0.08235 0.63495,-0.125898 0.98857,-0.130742 z m 25.3938,1.351339 v 2.267045 h 2.3182 v -2.267045 z"
       style="font-weight:bold;font-size:14.5321px;line-height:1.2;font-family:'public Sans';-inkscape-font-specification:'public Sans Bold';text-align:end;letter-spacing:0.085149px;text-anchor:end;fill:#ffffff;stroke-width:1.36238;stroke-linecap:round;stroke-opacity:0.599068"
       id="path32" /><path
       d="m 550.48257,19.996712 v 5.195032 c 0,0.402055 0.0823,0.755743 0.24701,1.060917 0.16954,0.305174 0.39259,0.561686 0.6687,0.769979 0.27611,0.208293 0.58095,0.365754 0.91519,0.472323 0.33908,0.106568 0.6832,0.160197 1.03197,0.160197 0.29549,0 0.59555,-0.04646 0.90072,-0.138493 0.31002,-0.08719 0.58378,-0.247044 0.82114,-0.479558 0.2422,-0.237357 0.40684,-0.576185 0.49403,-1.016992 l 0.24701,1.489315 h 1.59887 v -7.51272 h -2.10013 v 4.889624 c 0,0.387523 -0.12347,0.69049 -0.37052,0.908472 -0.2422,0.213137 -0.57147,0.319877 -0.98805,0.319877 -0.44081,0 -0.77486,-0.111521 -1.00253,-0.334346 -0.22766,-0.222826 -0.34158,-0.508542 -0.34158,-0.857312 v -4.926315 z"
       style="font-weight:bold;font-size:14.5321px;line-height:1.2;font-family:'public Sans';-inkscape-font-specification:'public Sans Bold';text-align:end;letter-spacing:0.085149px;text-anchor:end;fill:#ffffff;stroke-width:1.36238;stroke-linecap:round;stroke-opacity:0.599068"
       id="path31" /><g
       style="color:#ffffff;fill:#ffffff"
       id="g29"
       transform="matrix(1.4559779,0,0,1.4559779,485.85594,15.256254)"><path
         d="M 23,3 C 16.38,2.9 12.62,5.421 9.95,9.03 7.29,12.61 6,17.331 6,22 H 8 C 8,20.993 8.07,19.988 8.19,19 H 12 c 4.1,0 7.48,-3.082 7.94,-7.054 C 22.79,10.147 23.17,6.359 23,3 Z m -7,8 h -1.5 v 2 H 16 c 0.63,-0.016 1.2,-0.08 1.72,-0.188 C 16.95,15.24 14.68,17 12,17 H 8.55 c 0.57,-2.512 1.57,-4.851 3,-6.78 C 13.71,7.308 16.84,5.309 21,5.033 20.95,8.079 19.9,11 16,11 Z M 4,9 V 6 H 1 V 4 H 4 V 1 H 6 V 4 H 9 V 6 H 6 v 3 z"
         id="path1-8"
         style="fill:#ffffff" /></g></g><style
     type="text/css"
     id="style1">
	.st0{fill:#1D9BF0;}
</style></svg>
