<?xml version="1.0" encoding="UTF-8" standalone="no"?>
<!-- Created with Inkscape (http://www.inkscape.org/) -->

<svg
   width="64mm"
   height="64mm"
   viewBox="0 0 63.999998 63.999998"
   version="1.1"
   id="svg1"
   xml:space="preserve"
   inkscape:version="1.4 (86a8ad7, 2024-10-11)"
   sodipodi:docname="Iconos para web.svg"
   inkscape:export-filename="twitteron.svg"
   inkscape:export-xdpi="25.4"
   inkscape:export-ydpi="25.4"
   xmlns:inkscape="http://www.inkscape.org/namespaces/inkscape"
   xmlns:sodipodi="http://sodipodi.sourceforge.net/DTD/sodipodi-0.dtd"
   xmlns:xlink="http://www.w3.org/1999/xlink"
   xmlns="http://www.w3.org/2000/svg"
   xmlns:svg="http://www.w3.org/2000/svg"><sodipodi:namedview
     id="namedview1"
     pagecolor="#505050"
     bordercolor="#eeeeee"
     borderopacity="1"
     inkscape:showpageshadow="0"
     inkscape:pageopacity="0"
     inkscape:pagecheckerboard="0"
     inkscape:deskcolor="#505050"
     inkscape:document-units="mm"
     inkscape:zoom="1"
     inkscape:cx="1101"
     inkscape:cy="96"
     inkscape:window-width="1920"
     inkscape:window-height="991"
     inkscape:window-x="-9"
     inkscape:window-y="-9"
     inkscape:window-maximized="1"
     inkscape:current-layer="layer1"><inkscape:page
       x="0"
       y="0"
       width="63.999996"
       height="63.999996"
       id="page6"
       margin="0"
       bleed="0"
       inkscape:export-filename="youtubeon.svg"
       inkscape:export-xdpi="25.4"
       inkscape:export-ydpi="25.4" /></sodipodi:namedview><defs
     id="defs1"><linearGradient
       id="linearGradient32"
       inkscape:collect="always"><stop
         style="stop-color:#cfe6d3;stop-opacity:1;"
         offset="0"
         id="stop33" /><stop
         style="stop-color:#ffffff;stop-opacity:1;"
         offset="0.45047998"
         id="stop35" /><stop
         style="stop-color:#e4e8b9;stop-opacity:1;"
         offset="1"
         id="stop34" /></linearGradient><linearGradient
       inkscape:collect="always"
       xlink:href="#linearGradient32"
       id="linearGradient34"
       x1="428.77972"
       y1="10.304168"
       x2="394.35474"
       y2="54.225002"
       gradientUnits="userSpaceOnUse" /></defs><g
     inkscape:label="Capa 1"
     inkscape:groupmode="layer"
     id="layer1"
     transform="translate(-382.2133)"><rect
       style="fill:url(#linearGradient34);fill-opacity:1;stroke-width:4.7625;stroke-linecap:round"
       id="rect12"
       width="64"
       height="64"
       x="382.21307"
       y="1.0527875e-13"
       ry="5.2091169" /><path
       d="m 446.21332,55.790681 c 0,2.88585 -2.32365,5.2095 -5.2095,5.2095 h -53.58174 c -2.88585,0 -5.20899,-2.32365 -5.20899,-5.2095 v 3.00033 c 0,2.88585 2.32314,5.20899 5.20899,5.20899 h 53.58174 c 2.88585,0 5.2095,-2.32314 5.2095,-5.20899 z"
       style="fill:#7a9980;fill-opacity:1;stroke-width:4.7625;stroke-linecap:round"
       id="path12" /><path
       style="fill:#43e660;fill-opacity:1"
       d="m 411.59221,44.513408 v -6.057325 h 2.69636 2.69637 v 6.057325 6.057324 h -2.69637 -2.69636 z m -8.1177,-5.269427 -1.79424,-1.794535 3.266,-3.15076 c 1.79629,-1.732919 3.26599,-3.16412 3.26599,-3.180447 0,-0.01633 -2.06784,-0.02969 -4.59521,-0.02969 h -4.59521 v -2.525468 -2.525467 h 4.6142 c 2.53781,0 4.6142,-0.01317 4.6142,-0.02928 0,-0.0161 -1.46834,-1.420467 -3.26298,-3.120812 l -3.26297,-3.091538 1.78819,-1.816192 c 0.98351,-0.998905 1.79867,-1.816191 1.81147,-1.816191 0.0128,0 1.41558,1.419368 3.11728,3.154153 l 3.09401,3.154153 0.01,-4.502335 0.01,-4.502335 h 2.69606 2.69605 l 0.01,4.502942 0.01,4.502942 3.09512,-3.154719 c 1.70232,-1.735095 3.10556,-3.154737 3.11832,-3.15476 0.0128,-2.3e-5 0.82752,0.817095 1.81058,1.815816 l 1.78737,1.815858 -3.26319,3.073439 c -1.79476,1.690392 -3.26319,3.086364 -3.26319,3.102159 0,0.01579 2.0593,0.02872 4.57622,0.02872 h 4.57622 v 2.544456 2.544456 h -4.59521 c -2.52737,0 -4.59521,0.01334 -4.59521,0.02965 0,0.02549 4.99474,4.866846 6.14028,5.951724 l 0.40101,0.379769 -1.81126,1.782125 -1.81127,1.782124 -4.46217,-4.4595 -4.46218,-4.4595 -4.45018,4.473139 c -2.4476,2.460226 -4.4588,4.47253 -4.46932,4.471787 -0.0105,-7.44e-4 -0.82655,-0.808893 -1.81338,-1.795887 z"
       id="path34" /></g><style
     type="text/css"
     id="style1">
	.st0{fill:#1D9BF0;}
</style></svg>
