<?xml version="1.0" encoding="UTF-8" standalone="no"?>
<!-- Created with Inkscape (http://www.inkscape.org/) -->

<svg
   width="64mm"
   height="64mm"
   viewBox="0 0 63.999998 63.999998"
   version="1.1"
   id="svg1"
   xml:space="preserve"
   inkscape:version="1.4 (86a8ad7, 2024-10-11)"
   sodipodi:docname="linktree.svg"
   xmlns:inkscape="http://www.inkscape.org/namespaces/inkscape"
   xmlns:sodipodi="http://sodipodi.sourceforge.net/DTD/sodipodi-0.dtd"
   xmlns="http://www.w3.org/2000/svg"
   xmlns:svg="http://www.w3.org/2000/svg"><sodipodi:namedview
     id="namedview1"
     pagecolor="#505050"
     bordercolor="#eeeeee"
     borderopacity="1"
     inkscape:showpageshadow="0"
     inkscape:pageopacity="0"
     inkscape:pagecheckerboard="0"
     inkscape:deskcolor="#505050"
     inkscape:document-units="mm"
     inkscape:zoom="0.41237793"
     inkscape:cx="-48.499201"
     inkscape:cy="95.785921"
     inkscape:window-width="1920"
     inkscape:window-height="991"
     inkscape:window-x="-9"
     inkscape:window-y="-9"
     inkscape:window-maximized="1"
     inkscape:current-layer="layer1"><inkscape:page
       x="0"
       y="0"
       width="63.999996"
       height="63.999996"
       id="page5"
       margin="0"
       bleed="0"
       inkscape:export-filename="..\Pictures\Branding\Pagina Web\Iconos para web\linktreeon.png"
       inkscape:export-xdpi="25.4"
       inkscape:export-ydpi="25.4" /></sodipodi:namedview><defs
     id="defs1"><clipPath
       clipPathUnits="userSpaceOnUse"
       id="clipPath2"><path
         d="M 0,255.118 H 550.024 V 0 H 0 Z"
         transform="translate(-203.4961,-156.7999)"
         id="path2" /></clipPath><clipPath
       clipPathUnits="userSpaceOnUse"
       id="clipPath4"><path
         d="M 0,255.118 H 550.024 V 0 H 0 Z"
         transform="translate(-133.14351,-109.336)"
         id="path4" /></clipPath></defs><g
     inkscape:label="Capa 1"
     inkscape:groupmode="layer"
     id="layer1"
     transform="translate(-304.79206)"><path
       d="m 318.02122,0 c -7.32896,0 -13.22917,5.9002082 -13.22917,13.229167 v 37.541894 c 0,7.328959 5.90021,13.229167 13.22917,13.229167 h 37.54189 c 7.32896,0 13.22917,-5.900208 13.22917,-13.229167 V 13.229167 C 368.79228,5.9002082 362.89207,0 355.56311,0 Z m 1.55236,2.6458333 h 34.43717 c 6.72299,0 12.1357,5.4121937 12.1357,12.1351767 v 34.437691 c 0,6.722983 -5.41271,12.135694 -12.1357,12.135694 h -34.43717 c -6.72298,0 -12.13569,-5.412711 -12.13569,-12.135694 V 14.78101 c 0,-6.722983 5.41271,-12.1351767 12.13569,-12.1351767 z"
       style="fill:#43e660;fill-opacity:1;stroke-width:4.7625;stroke-linecap:round"
       id="path24" /><path
       style="fill:#43e660;fill-opacity:1"
       d="m 334.17094,44.513408 v -6.057325 h 2.69636 2.69637 v 6.057325 6.057324 h -2.69637 -2.69636 z m -8.1177,-5.269427 -1.79424,-1.794535 3.266,-3.15076 c 1.79629,-1.732919 3.26599,-3.16412 3.26599,-3.180447 0,-0.01633 -2.06784,-0.02969 -4.59521,-0.02969 h -4.59521 v -2.525468 -2.525467 h 4.6142 c 2.53781,0 4.6142,-0.01317 4.6142,-0.02928 0,-0.0161 -1.46834,-1.420467 -3.26298,-3.120812 l -3.26297,-3.091538 1.78819,-1.816192 c 0.98351,-0.998905 1.79867,-1.816191 1.81147,-1.816191 0.0128,0 1.41558,1.419368 3.11728,3.154153 l 3.09401,3.154153 0.01,-4.502335 0.01,-4.502335 h 2.69606 2.69605 l 0.01,4.502942 0.01,4.502942 3.09512,-3.154719 c 1.70232,-1.735095 3.10556,-3.154737 3.11832,-3.15476 0.0128,-2.3e-5 0.82752,0.817095 1.81058,1.815816 l 1.78737,1.815858 -3.26319,3.073439 c -1.79476,1.690392 -3.26319,3.086364 -3.26319,3.102159 0,0.01579 2.0593,0.02872 4.57622,0.02872 h 4.57622 v 2.544456 2.544456 h -4.59521 c -2.52737,0 -4.59521,0.01334 -4.59521,0.02965 0,0.02549 4.99474,4.866846 6.14028,5.951724 l 0.40101,0.379769 -1.81126,1.782125 -1.81127,1.782124 -4.46217,-4.4595 -4.46218,-4.4595 -4.45018,4.473139 c -2.4476,2.460226 -4.4588,4.47253 -4.46932,4.471787 -0.0105,-7.44e-4 -0.82655,-0.808893 -1.81338,-1.795887 z"
       id="path33" /></g><style
     type="text/css"
     id="style1">
	.st0{fill:#1D9BF0;}
</style></svg>
