<?xml version="1.0" encoding="UTF-8" standalone="no"?>
<!-- Created with Inkscape (http://www.inkscape.org/) -->

<svg
   width="64mm"
   height="64mm"
   viewBox="0 0 63.999998 63.999998"
   version="1.1"
   id="svg1"
   xml:space="preserve"
   inkscape:version="1.4 (86a8ad7, 2024-10-11)"
   sodipodi:docname="Iconos para web.svg"
   inkscape:export-filename="twitteron.svg"
   inkscape:export-xdpi="25.4"
   inkscape:export-ydpi="25.4"
   xmlns:inkscape="http://www.inkscape.org/namespaces/inkscape"
   xmlns:sodipodi="http://sodipodi.sourceforge.net/DTD/sodipodi-0.dtd"
   xmlns:xlink="http://www.w3.org/1999/xlink"
   xmlns="http://www.w3.org/2000/svg"
   xmlns:svg="http://www.w3.org/2000/svg"><sodipodi:namedview
     id="namedview1"
     pagecolor="#505050"
     bordercolor="#eeeeee"
     borderopacity="1"
     inkscape:showpageshadow="0"
     inkscape:pageopacity="0"
     inkscape:pagecheckerboard="0"
     inkscape:deskcolor="#505050"
     inkscape:document-units="mm"
     inkscape:zoom="1"
     inkscape:cx="1101"
     inkscape:cy="96"
     inkscape:window-width="1920"
     inkscape:window-height="991"
     inkscape:window-x="-9"
     inkscape:window-y="-9"
     inkscape:window-maximized="1"
     inkscape:current-layer="layer1"><inkscape:page
       x="0"
       y="0"
       width="63.999996"
       height="63.999996"
       id="page4"
       margin="0"
       bleed="0" /></sodipodi:namedview><defs
     id="defs1"><linearGradient
       id="linearGradient18"
       inkscape:collect="always"><stop
         style="stop-color:#8b6e78;stop-opacity:1;"
         offset="0"
         id="stop19" /><stop
         style="stop-color:#87878b;stop-opacity:1;"
         offset="1"
         id="stop20" /></linearGradient><linearGradient
       id="linearGradient16"
       inkscape:collect="always"><stop
         style="stop-color:#edfa87;stop-opacity:1;"
         offset="0"
         id="stop16" /><stop
         style="stop-color:#fdc7de;stop-opacity:1;"
         offset="0.5"
         id="stop18" /><stop
         style="stop-color:#f7f7ff;stop-opacity:1;"
         offset="1"
         id="stop17" /></linearGradient><clipPath
       clipPathUnits="userSpaceOnUse"
       id="clipPath2"><path
         d="M 0,255.118 H 550.024 V 0 H 0 Z"
         transform="translate(-203.4961,-156.7999)"
         id="path2" /></clipPath><clipPath
       clipPathUnits="userSpaceOnUse"
       id="clipPath4"><path
         d="M 0,255.118 H 550.024 V 0 H 0 Z"
         transform="translate(-133.14351,-109.336)"
         id="path4" /></clipPath><linearGradient
       inkscape:collect="always"
       xlink:href="#linearGradient16"
       id="linearGradient17"
       x1="235.30142"
       y1="5.2327299"
       x2="286.82513"
       y2="54.684128"
       gradientUnits="userSpaceOnUse" /><linearGradient
       inkscape:collect="always"
       xlink:href="#linearGradient18"
       id="linearGradient20"
       x1="229.7438"
       y1="59.214817"
       x2="292.32629"
       y2="63.241249"
       gradientUnits="userSpaceOnUse" /></defs><g
     inkscape:label="Capa 1"
     inkscape:groupmode="layer"
     id="layer1"
     transform="translate(-228.94985)"><rect
       style="fill:url(#linearGradient17);fill-opacity:1;stroke-width:4.7625;stroke-linecap:round"
       id="rect8"
       width="64"
       height="64"
       x="228.94986"
       y="0"
       ry="5.2091169" /><path
       d="m 292.95009,55.790682 c 0,2.885851 -2.32365,5.209501 -5.2095,5.209501 h -53.58174 c -2.88585,0 -5.20899,-2.32365 -5.20899,-5.209501 v 3.000333 C 228.94986,61.676866 231.273,64 234.15885,64 h 53.58174 c 2.88585,0 5.2095,-2.323134 5.2095,-5.208985 z"
       style="fill:url(#linearGradient20);fill-opacity:1;stroke-width:4.7625;stroke-linecap:round"
       id="path10" /><path
       id="path14"
       d="m 0,0 c -1.397,5.227 -5.514,9.343 -10.741,10.74 -9.474,2.539 -47.463,2.539 -47.463,2.539 0,0 -37.989,0 -47.463,-2.539 -5.227,-1.397 -9.344,-5.513 -10.741,-10.74 -2.538,-9.474 -2.538,-29.241 -2.538,-29.241 0,0 0,-19.767 2.538,-29.24 1.397,-5.227 5.514,-9.344 10.741,-10.741 9.474,-2.539 47.463,-2.539 47.463,-2.539 0,0 37.989,0 47.463,2.539 5.227,1.397 9.344,5.514 10.741,10.741 2.539,9.473 2.539,29.24 2.539,29.24 0,0 0,19.767 -2.539,29.241"
       style="fill:#ff0033;fill-opacity:1;fill-rule:nonzero;stroke:none"
       transform="matrix(0.30635396,0,0,-0.30635396,278.78073,23.041904)"
       clip-path="url(#clipPath2)" /><path
       id="path15"
       d="M 0,0 31.562,18.223 0,36.446 Z"
       style="fill:#ffffff;fill-opacity:1;fill-rule:nonzero;stroke:none"
       transform="matrix(0.30635396,0,0,-0.30635396,257.22793,37.58266)"
       clip-path="url(#clipPath4)" /></g><style
     type="text/css"
     id="style1">
	.st0{fill:#1D9BF0;}
</style></svg>
