<?xml version="1.0" encoding="UTF-8" standalone="no"?>
<!-- Created with Inkscape (http://www.inkscape.org/) -->

<svg
   width="64mm"
   height="64mm"
   viewBox="0 0 63.999998 63.999998"
   version="1.1"
   id="svg1"
   xml:space="preserve"
   inkscape:version="1.4 (86a8ad7, 2024-10-11)"
   sodipodi:docname="youtube.svg"
   xmlns:inkscape="http://www.inkscape.org/namespaces/inkscape"
   xmlns:sodipodi="http://sodipodi.sourceforge.net/DTD/sodipodi-0.dtd"
   xmlns="http://www.w3.org/2000/svg"
   xmlns:svg="http://www.w3.org/2000/svg"><sodipodi:namedview
     id="namedview1"
     pagecolor="#505050"
     bordercolor="#eeeeee"
     borderopacity="1"
     inkscape:showpageshadow="0"
     inkscape:pageopacity="0"
     inkscape:pagecheckerboard="0"
     inkscape:deskcolor="#505050"
     inkscape:document-units="mm"
     inkscape:zoom="0.41237793"
     inkscape:cx="135.79776"
     inkscape:cy="231.58368"
     inkscape:window-width="1920"
     inkscape:window-height="991"
     inkscape:window-x="-9"
     inkscape:window-y="-9"
     inkscape:window-maximized="1"
     inkscape:current-layer="layer1"><inkscape:page
       x="0"
       y="0"
       width="63.999996"
       height="63.999996"
       id="page3"
       margin="0"
       bleed="0" /></sodipodi:namedview><defs
     id="defs1"><clipPath
       clipPathUnits="userSpaceOnUse"
       id="clipPath2"><path
         d="M 0,255.118 H 550.024 V 0 H 0 Z"
         transform="translate(-203.4961,-156.7999)"
         id="path2" /></clipPath><clipPath
       clipPathUnits="userSpaceOnUse"
       id="clipPath4"><path
         d="M 0,255.118 H 550.024 V 0 H 0 Z"
         transform="translate(-133.14351,-109.336)"
         id="path4" /></clipPath></defs><g
     inkscape:label="Capa 1"
     inkscape:groupmode="layer"
     id="layer1"
     transform="translate(-151.79179)"><path
       d="M 165.02096,0 C 157.692,0 151.79179,5.9002082 151.79179,13.229167 v 37.541894 c 0,7.328959 5.90021,13.229167 13.22917,13.229167 h 37.54189 c 7.32896,0 13.22917,-5.900208 13.22917,-13.229167 V 13.229167 C 215.79202,5.9002082 209.89181,0 202.56285,0 Z m 1.55236,2.6458333 h 34.43717 c 6.72299,0 12.1357,5.4121937 12.1357,12.1351767 v 34.437691 c 0,6.722983 -5.41271,12.135694 -12.1357,12.135694 h -34.43717 c -6.72298,0 -12.13569,-5.412711 -12.13569,-12.135694 V 14.78101 c 0,-6.722983 5.41271,-12.1351767 12.13569,-12.1351767 z"
       style="fill:#ff0000;fill-opacity:1;stroke-width:4.7625;stroke-linecap:round"
       id="path23" /><g
       inkscape:label="Capa 1"
       id="layer1-7"
       transform="matrix(0.1059103,0,0,0.1059103,156.89058,5.0987841)"><path
         id="path1"
         d="m 0,0 c -1.397,5.227 -5.514,9.343 -10.741,10.74 -9.474,2.539 -47.463,2.539 -47.463,2.539 0,0 -37.989,0 -47.463,-2.539 -5.227,-1.397 -9.344,-5.513 -10.741,-10.74 -2.538,-9.474 -2.538,-29.241 -2.538,-29.241 0,0 0,-19.767 2.538,-29.24 1.397,-5.227 5.514,-9.344 10.741,-10.741 9.474,-2.539 47.463,-2.539 47.463,-2.539 0,0 37.989,0 47.463,2.539 5.227,1.397 9.344,5.514 10.741,10.741 2.539,9.473 2.539,29.24 2.539,29.24 0,0 0,19.767 -2.539,29.241"
         style="fill:#ff0000;fill-opacity:1;fill-rule:nonzero;stroke:none"
         transform="matrix(2.8925795,0,0,-2.8925795,422.35825,169.41808)"
         clip-path="url(#clipPath2)" /><path
         id="path3"
         d="M 0,0 31.562,18.223 0,36.446 Z"
         style="fill:#ffffff;fill-opacity:1;fill-rule:nonzero;stroke:none"
         transform="matrix(2.8925795,0,0,-2.8925795,218.85778,306.71121)"
         clip-path="url(#clipPath4)" /></g></g><style
     type="text/css"
     id="style1">
	.st0{fill:#1D9BF0;}
</style></svg>
