<?xml version="1.0" encoding="UTF-8" standalone="no"?>
<!-- Created with Inkscape (http://www.inkscape.org/) -->

<svg
   width="1920"
   height="1920"
   viewBox="0 0 507.99999 508"
   version="1.1"
   id="svg1"
   inkscape:version="1.4 (86a8ad7, 2024-10-11)"
   sodipodi:docname="HeartIcon.svg"
   xmlns:inkscape="http://www.inkscape.org/namespaces/inkscape"
   xmlns:sodipodi="http://sodipodi.sourceforge.net/DTD/sodipodi-0.dtd"
   xmlns="http://www.w3.org/2000/svg"
   xmlns:svg="http://www.w3.org/2000/svg">
  <sodipodi:namedview
     id="namedview1"
     pagecolor="#505050"
     bordercolor="#eeeeee"
     borderopacity="1"
     inkscape:showpageshadow="0"
     inkscape:pageopacity="0"
     inkscape:pagecheckerboard="0"
     inkscape:deskcolor="#505050"
     inkscape:document-units="mm"
     inkscape:zoom="0.17772517"
     inkscape:cx="2526.3726"
     inkscape:cy="1114.0797"
     inkscape:window-width="1920"
     inkscape:window-height="991"
     inkscape:window-x="-9"
     inkscape:window-y="-9"
     inkscape:window-maximized="1"
     inkscape:current-layer="layer1" />
  <defs
     id="defs1" />
  <g
     inkscape:label="Capa 1"
     inkscape:groupmode="layer"
     id="layer1">
    <g
       id="g7790"
       transform="matrix(9.5121817,0,0,-9.5121817,900.95627,220.41829)">
      <path
         d="m 0,0 c -0.747,-0.633 -3.2,-2.242 -4.458,-3.057 v 2.098 c 0,0.272 -0.221,0.494 -0.493,0.494 h -0.262 c -2.41,0 -4.159,1.629 -4.159,3.874 0,2.326 1.821,4.148 4.147,4.148 l 2.729,-0.006 h 10e-4 C -0.17,7.551 1.651,5.73 1.653,3.406 1.652,2.149 1.034,0.876 0,0 m -2.493,8.538 v 0 l -2.731,0.006 h -10e-4 c -2.879,0 -5.134,-2.255 -5.134,-5.135 0,-2.697 2.097,-4.743 4.914,-4.851 v -2.52 c 0,-0.071 0.028,-0.188 0.078,-0.266 0.094,-0.147 0.253,-0.228 0.416,-0.228 0.091,0 0.182,0.025 0.265,0.078 0.173,0.11 4.26,2.725 5.324,3.624 1.252,1.061 2,2.612 2.003,4.154 V 3.403 3.406 3.411 C 2.637,6.286 0.384,8.537 -2.493,8.538"
         style="fill:#647787;fill-opacity:1;fill-rule:nonzero;stroke:none"
         id="path7792" />
    </g>
    <g
       id="g7794"
       transform="matrix(9.5121817,0,0,-9.5121817,1316.1269,224.05955)">
      <path
         d="m 0,0 c -0.193,0.192 -0.506,0.192 -0.698,0 l -1.676,-1.675 v 7.167 c 0,1.362 -1.107,2.469 -2.468,2.469 h -4.377 c -0.272,0 -0.493,-0.222 -0.493,-0.494 0,-0.273 0.221,-0.493 0.493,-0.493 h 4.377 c 0.817,0 1.481,-0.664 1.481,-1.482 V -1.675 L -5.035,0 c -0.194,0.192 -0.506,0.192 -0.698,0 -0.194,-0.193 -0.194,-0.506 0,-0.698 l 2.517,-2.518 c 0.092,-0.093 0.218,-0.144 0.349,-0.144 0.131,0 0.257,0.051 0.348,0.144 L 0,-0.698 C 0.192,-0.506 0.192,-0.193 0,0"
         style="fill:#647787;fill-opacity:1;fill-rule:nonzero;stroke:none"
         id="path7796" />
    </g>
    <g
       id="g7798"
       transform="matrix(9.5121817,0,0,-9.5121817,1243.8942,247.88661)">
      <path
         d="m 0,0 h -4.378 c -0.815,0 -1.48,0.664 -1.48,1.48 v 7.168 l 1.674,-1.674 c 0.097,-0.097 0.223,-0.145 0.35,-0.145 0.126,0 0.252,0.048 0.349,0.145 0.193,0.192 0.193,0.505 0,0.698 l -2.518,2.517 c -0.193,0.194 -0.506,0.194 -0.698,0 L -9.219,7.672 c -0.193,-0.193 -0.193,-0.506 0,-0.698 0.193,-0.193 0.505,-0.193 0.698,0 l 1.675,1.674 V 1.48 c 0,-1.36 1.108,-2.467 2.468,-2.467 H 0 c 0.272,0 0.494,0.22 0.494,0.493 C 0.494,-0.222 0.272,0 0,0"
         style="fill:#647787;fill-opacity:1;fill-rule:nonzero;stroke:none"
         id="path7800" />
    </g>
    <g
       id="g7802"
       transform="matrix(9.5121817,0,0,-9.5121817,1997.2018,170.93401)">
      <path
         d="m 0,0 -3.161,3.16 c -0.186,0.186 -0.485,0.186 -0.67,0 L -6.992,0 c -0.185,-0.186 -0.185,-0.485 0,-0.671 0.185,-0.184 0.485,-0.184 0.671,0 l 2.35,2.352 v -6.442 c 0,-0.261 0.213,-0.473 0.475,-0.473 0.262,0 0.474,0.212 0.474,0.473 v 6.442 l 2.351,-2.352 c 0.093,-0.093 0.214,-0.139 0.335,-0.139 0.122,0 0.243,0.046 0.336,0.139 0.185,0.186 0.185,0.485 0,0.671"
         style="fill:#647787;fill-opacity:1;fill-rule:nonzero;stroke:none"
         id="path7804" />
    </g>
    <g
       id="g7806"
       transform="matrix(9.5121817,0,0,-9.5121817,2010.2904,257.97523)">
      <path
         d="m 0,0 h -9.744 c -0.799,0 -1.449,0.65 -1.449,1.449 v 3.573 c 0,0.262 0.212,0.474 0.474,0.474 0.262,0 0.474,-0.212 0.474,-0.474 V 1.449 c 0,-0.276 0.225,-0.501 0.501,-0.501 H 0 c 0.276,0 0.501,0.225 0.501,0.501 v 3.573 c 0,0.262 0.212,0.474 0.474,0.474 0.261,0 0.474,-0.212 0.474,-0.474 V 1.449 C 1.449,0.65 0.799,0 0,0"
         style="fill:#647787;fill-opacity:1;fill-rule:nonzero;stroke:none"
         id="path7808" />
    </g>
    <g
       id="g7810"
       transform="matrix(9.5121817,0,0,-9.5121817,1594.8553,151.62238)">
      <path
         d="m 0,0 c -1.368,0 -2.569,-1.309 -2.569,-2.801 0,-3.778 4.63,-7.632 5.628,-7.673 0.998,0.041 5.628,3.895 5.628,7.673 C 8.687,-1.309 7.485,0 6.116,0 4.452,0 3.523,-1.932 3.515,-1.951 3.363,-2.321 2.754,-2.321 2.603,-1.951 2.594,-1.932 1.665,0 0,0 M 3.059,-11.462 H 3.05 c -1.7,0.032 -6.607,4.464 -6.607,8.661 0,2.019 1.662,3.788 3.557,3.788 1.508,0 2.521,-1.04 3.059,-1.796 0.537,0.756 1.55,1.796 3.057,1.796 1.896,0 3.558,-1.769 3.558,-3.788 0,-4.197 -4.906,-8.629 -6.607,-8.661 z"
         style="fill:#647787;fill-opacity:1;fill-rule:nonzero;stroke:none"
         id="path7812" />
    </g>
    <g
       id="g3"
       transform="matrix(38.394679,0,0,-38.394679,136.56987,52.907869)">
      <path
         d="m 0,0 c -1.368,0 -2.569,-1.309 -2.569,-2.801 0,-3.778 4.63,-7.632 5.628,-7.673 0.998,0.041 5.628,3.895 5.628,7.673 C 8.687,-1.309 7.485,0 6.116,0 4.452,0 3.523,-1.932 3.515,-1.951 3.363,-2.321 2.754,-2.321 2.603,-1.951 2.594,-1.932 1.665,0 0,0 M 3.059,-11.462 H 3.05 c -1.7,0.032 -6.607,4.464 -6.607,8.661 0,2.019 1.662,3.788 3.557,3.788 1.508,0 2.521,-1.04 3.059,-1.796 0.537,0.756 1.55,1.796 3.057,1.796 1.896,0 3.558,-1.769 3.558,-3.788 0,-4.197 -4.906,-8.629 -6.607,-8.661 z"
         style="fill:#647787;fill-opacity:1;fill-rule:nonzero;stroke:none"
         id="path3" />
    </g>
  </g>
</svg>
