<?xml version="1.0" encoding="UTF-8" standalone="no"?>
<!-- Created with Inkscape (http://www.inkscape.org/) -->

<svg
   width="1920"
   height="1920"
   viewBox="0 0 1920 1920"
   version="1.1"
   id="svg1"
   xml:space="preserve"
   inkscape:version="1.4 (86a8ad7, 2024-10-11)"
   sodipodi:docname="TwitterIcon.svg"
   xmlns:inkscape="http://www.inkscape.org/namespaces/inkscape"
   xmlns:sodipodi="http://sodipodi.sourceforge.net/DTD/sodipodi-0.dtd"
   xmlns="http://www.w3.org/2000/svg"
   xmlns:svg="http://www.w3.org/2000/svg"><sodipodi:namedview
     id="namedview1"
     pagecolor="#505050"
     bordercolor="#eeeeee"
     borderopacity="1"
     inkscape:showpageshadow="0"
     inkscape:pageopacity="0"
     inkscape:pagecheckerboard="0"
     inkscape:deskcolor="#505050"
     inkscape:document-units="px"
     inkscape:zoom="0.42"
     inkscape:cx="955.95238"
     inkscape:cy="957.14286"
     inkscape:window-width="1920"
     inkscape:window-height="991"
     inkscape:window-x="-9"
     inkscape:window-y="-9"
     inkscape:window-maximized="1"
     inkscape:current-layer="layer1" /><defs
     id="defs1"><clipPath
       clipPathUnits="userSpaceOnUse"
       id="clipPath4"><path
         d="M 0,255.118 H 550.024 V 0 H 0 Z"
         transform="translate(-133.14351,-109.336)"
         id="path4" /></clipPath><clipPath
       clipPathUnits="userSpaceOnUse"
       id="clipPath2"><path
         d="M 0,255.118 H 550.024 V 0 H 0 Z"
         transform="translate(-203.4961,-156.7999)"
         id="path2" /></clipPath></defs><g
     inkscape:label="Capa 1"
     inkscape:groupmode="layer"
     id="layer1"><g
       id="Logo__x2014__FIXED"
       transform="scale(4.8)"
       style="fill:#1b9df0;fill-opacity:1">
	<path
   class="st1"
   d="m 163.4,305.5 c 88.7,0 137.2,-73.5 137.2,-137.2 0,-2.1 0,-4.2 -0.1,-6.2 9.4,-6.8 17.6,-15.3 24.1,-25 -8.6,3.8 -17.9,6.4 -27.7,7.6 10,-6 17.6,-15.4 21.2,-26.7 -9.3,5.5 -19.6,9.5 -30.6,11.7 -8.8,-9.4 -21.3,-15.2 -35.2,-15.2 -26.6,0 -48.2,21.6 -48.2,48.2 0,3.8 0.4,7.5 1.3,11 -40.1,-2 -75.6,-21.2 -99.4,-50.4 -4.1,7.1 -6.5,15.4 -6.5,24.2 0,16.7 8.5,31.5 21.5,40.1 -7.9,-0.2 -15.3,-2.4 -21.8,-6 0,0.2 0,0.4 0,0.6 0,23.4 16.6,42.8 38.7,47.3 -4,1.1 -8.3,1.7 -12.7,1.7 -3.1,0 -6.1,-0.3 -9.1,-0.9 6.1,19.2 23.9,33.1 45,33.5 -16.5,12.9 -37.3,20.6 -59.9,20.6 -3.9,0 -7.7,-0.2 -11.5,-0.7 21.1,13.8 46.5,21.8 73.7,21.8"
   id="path1-2"
   style="fill:#1b9df0;fill-opacity:1" />
</g><path
       id="path1"
       d="m 0,0 c -1.397,5.227 -5.514,9.343 -10.741,10.74 -9.474,2.539 -47.463,2.539 -47.463,2.539 0,0 -37.989,0 -47.463,-2.539 -5.227,-1.397 -9.344,-5.513 -10.741,-10.74 -2.538,-9.474 -2.538,-29.241 -2.538,-29.241 0,0 0,-19.767 2.538,-29.24 1.397,-5.227 5.514,-9.344 10.741,-10.741 9.474,-2.539 47.463,-2.539 47.463,-2.539 0,0 37.989,0 47.463,2.539 5.227,1.397 9.344,5.514 10.741,10.741 2.539,9.473 2.539,29.24 2.539,29.24 0,0 0,19.767 -2.539,29.241"
       style="fill:#ff0000;fill-opacity:1;fill-rule:nonzero;stroke:none"
       transform="matrix(8.2171316,0,0,-8.2171316,2947.7357,374.24086)"
       clip-path="url(#clipPath2)" /><path
       id="path3"
       d="M 0,0 31.562,18.223 0,36.446 Z"
       style="fill:#ffffff;fill-opacity:1;fill-rule:nonzero;stroke:none"
       transform="matrix(8.2171316,0,0,-8.2171316,2369.6389,764.25798)"
       clip-path="url(#clipPath4)" /></g><style
     type="text/css"
     id="style1">
	.st0{fill:#1D9BF0;}
</style><style
     type="text/css"
     id="style1-8">
	.st0{fill:#1B9DF0;}
	.st1{fill:#FFFFFF;}
</style></svg>
