<?xml version="1.0" encoding="UTF-8" standalone="no"?>
<!-- Created with Inkscape (http://www.inkscape.org/) -->

<svg
   width="1920"
   height="1080"
   viewBox="0 0 508 285.75"
   version="1.1"
   id="svg5"
   inkscape:version="1.4 (86a8ad7, 2024-10-11)"
   sodipodi:docname="Website_Logo_3.svg"
   inkscape:export-filename="Website_Logo_3.png"
   inkscape:export-xdpi="96"
   inkscape:export-ydpi="96"
   xml:space="preserve"
   xmlns:inkscape="http://www.inkscape.org/namespaces/inkscape"
   xmlns:sodipodi="http://sodipodi.sourceforge.net/DTD/sodipodi-0.dtd"
   xmlns="http://www.w3.org/2000/svg"
   xmlns:svg="http://www.w3.org/2000/svg"><sodipodi:namedview
     id="namedview7"
     pagecolor="#505050"
     bordercolor="#eeeeee"
     borderopacity="1"
     inkscape:showpageshadow="0"
     inkscape:pageopacity="0"
     inkscape:pagecheckerboard="0"
     inkscape:deskcolor="#505050"
     inkscape:document-units="mm"
     showgrid="false"
     inkscape:zoom="0.69418086"
     inkscape:cx="1032.1518"
     inkscape:cy="481.14262"
     inkscape:window-width="1920"
     inkscape:window-height="991"
     inkscape:window-x="-9"
     inkscape:window-y="-9"
     inkscape:window-maximized="1"
     inkscape:current-layer="layer1" /><defs
     id="defs2" /><g
     inkscape:label="Capa 1"
     inkscape:groupmode="layer"
     id="layer1"><text
       xml:space="preserve"
       style="font-style:normal;font-variant:normal;font-weight:bold;font-stretch:normal;font-size:96px;line-height:1;font-family:Arial;-inkscape-font-specification:'Arial Bold';font-variant-ligatures:normal;font-variant-position:normal;font-variant-caps:normal;font-variant-numeric:normal;font-variant-alternates:normal;font-variant-east-asian:normal;font-feature-settings:normal;font-variation-settings:normal;text-indent:0;text-align:center;text-decoration-line:none;text-decoration-style:solid;text-decoration-color:#000000;letter-spacing:normal;word-spacing:normal;text-transform:none;writing-mode:lr-tb;direction:ltr;text-orientation:mixed;dominant-baseline:auto;baseline-shift:baseline;text-anchor:middle;white-space:normal;shape-padding:0;shape-margin:0;inline-size:0;opacity:1;vector-effect:none;fill:#ffffff;fill-opacity:1;stroke-width:0.999999;stroke-linecap:butt;stroke-linejoin:miter;stroke-miterlimit:4;stroke-dasharray:none;stroke-dashoffset:0;stroke-opacity:1;-inkscape-stroke:none;stop-color:#000000;stop-opacity:1"
       x="762.90344"
       y="535.79431"
       id="text236"
       transform="matrix(0.8827475,0,0,0.8827475,-419.40877,-581.4462)"><tspan
         sodipodi:role="line"
         x="762.90344"
         y="535.79431"
         style="font-style:italic;font-variant:normal;font-weight:normal;font-stretch:normal;font-family:'Times New Roman';-inkscape-font-specification:'Times New Roman,  Italic';text-align:center;text-anchor:middle;fill:#ffffff"
         id="tspan288"><tspan
           id="tspan292"
           style="font-style:normal;font-variant:normal;font-weight:bold;font-stretch:normal;font-family:'Minecraft Ten v2';-inkscape-font-specification:'Minecraft Ten v2 Bold';text-align:center;text-anchor:middle;fill:#ffffff">elminehuy</tspan></tspan><tspan
         sodipodi:role="line"
         x="762.90344"
         y="634.26672"
         style="font-style:italic;font-variant:normal;font-weight:normal;font-stretch:normal;font-family:'Times New Roman';-inkscape-font-specification:'Times New Roman,  Italic';text-align:center;text-anchor:middle;fill:#ffffff"
         id="tspan295">.github.io</tspan></text><text
       xml:space="preserve"
       style="font-style:normal;font-variant:normal;font-weight:normal;font-stretch:normal;font-size:65.5897px;line-height:0;font-family:'Minecraft Ten v2';-inkscape-font-specification:'Minecraft Ten v2';text-align:center;text-anchor:middle;fill:#ffffff;fill-opacity:1;stroke:none;stroke-width:7.9375;stroke-linecap:round;stroke-linejoin:miter;stroke-dasharray:none;stroke-opacity:1"
       x="-1170.0846"
       y="421.07123"
       id="text1818"><tspan
         sodipodi:role="line"
         id="tspan1816"
         style="font-size:65.5897px;stroke-width:7.9375"
         x="-1170.0846"
         y="421.07123"><tspan
   style="font-size:50.8px"
   id="tspan1820">el</tspan>m<tspan
   style="font-size:100.867px"
   id="tspan1830">i<tspan
   style="font-size:136.145px"
   id="tspan1838">n</tspan><tspan
   style="font-size:171.423px"
   id="tspan1834">e</tspan>h</tspan>u<tspan
   style="font-size:50.8px"
   id="tspan1828">y</tspan></tspan></text><text
       xml:space="preserve"
       style="font-style:normal;font-variant:normal;font-weight:normal;font-stretch:normal;font-size:71.6037px;line-height:0;font-family:'Minecraft Ten v2';-inkscape-font-specification:'Minecraft Ten v2';text-align:center;text-anchor:middle;fill:#ffffff;fill-opacity:1;stroke:none;stroke-width:8.6653;stroke-linecap:round;stroke-linejoin:miter;stroke-dasharray:none;stroke-opacity:1"
       x="-509.4747"
       y="330.81335"
       id="text1854"><tspan
         sodipodi:role="line"
         id="tspan1852"
         style="font-size:71.6037px;stroke-width:8.6653"
         x="-509.4747"
         y="330.81335"><tspan
   style="font-size:55.4579px;stroke-width:8.6653"
   id="tspan1842">el</tspan>m<tspan
   style="font-size:110.115px;stroke-width:8.6653"
   id="tspan1848">i<tspan
   style="font-size:148.628px;stroke-width:8.6653"
   id="tspan1844">n</tspan><tspan
   style="font-size:187.141px;stroke-width:8.6653"
   id="tspan1846">e</tspan>h</tspan>u<tspan
   style="font-size:55.4579px;stroke-width:8.6653"
   id="tspan1850">y</tspan></tspan></text><text
       xml:space="preserve"
       style="font-style:normal;font-variant:normal;font-weight:normal;font-stretch:normal;font-size:21.2639px;line-height:0;font-family:'Century Gothic';-inkscape-font-specification:'Century Gothic';text-align:center;text-anchor:middle;fill:#ffffff;fill-opacity:1;stroke:none;stroke-width:3.32245;stroke-linecap:round;stroke-linejoin:miter;stroke-dasharray:none;stroke-opacity:1"
       x="-472.39813"
       y="379.56848"
       id="text1983"><tspan
         sodipodi:role="line"
         id="tspan1981"
         style="font-style:normal;font-variant:normal;font-weight:normal;font-stretch:normal;font-family:'Century Gothic';-inkscape-font-specification:'Century Gothic';stroke-width:3.32245"
         x="-472.39813"
         y="379.56848">/ELMINEHUY</tspan></text><rect
       style="fill:#ffffff;fill-opacity:1;stroke:none;stroke-width:5.306;stroke-linecap:round;stroke-linejoin:miter;stroke-dasharray:none;stroke-opacity:1"
       id="rect1987"
       width="462.14172"
       height="3.316442"
       x="-740.4754"
       y="345.63629" /><path
       style="fill:#000000;fill-opacity:1;stroke:none;stroke-width:7.96088;stroke-linecap:round;stroke-linejoin:miter;stroke-dasharray:none;stroke-opacity:1"
       d="m -1422.6227,608.75568 h 516.20656 V 559.48792 L -1055.43,462.08498 h -106.2778 l -260.9149,100.23443 z"
       id="path1993" /><rect
       style="fill:#000000;fill-opacity:1;stroke:none;stroke-width:8.09285;stroke-linecap:round;stroke-linejoin:miter;stroke-dasharray:none;stroke-opacity:1"
       id="rect1995"
       width="42.618275"
       height="34.052425"
       x="-1261.2178"
       y="493.89893" /><text
       xml:space="preserve"
       style="font-style:normal;font-variant:normal;font-weight:normal;font-stretch:normal;font-size:72.7604px;line-height:0;font-family:'Minecraft Ten v2';-inkscape-font-specification:'Minecraft Ten v2';text-align:center;text-anchor:middle;fill:#ffffff;fill-opacity:1;stroke:none;stroke-width:8.80528;stroke-linecap:round;stroke-linejoin:miter;stroke-dasharray:none;stroke-opacity:1"
       x="-1164.4912"
       y="604.25452"
       id="text2009"><tspan
         sodipodi:role="line"
         id="tspan2007"
         style="font-size:72.7604px;stroke-width:8.80528"
         x="-1164.4912"
         y="604.25452"><tspan
   style="font-size:56.3538px;stroke-width:8.80528"
   id="tspan1997">el</tspan>m<tspan
   style="font-size:111.894px;stroke-width:8.80528"
   id="tspan2003">i<tspan
   style="font-size:151.029px;stroke-width:8.80528"
   id="tspan1999">n</tspan><tspan
   style="font-size:190.164px;stroke-width:8.80528"
   id="tspan2001">e</tspan>h</tspan>u<tspan
   style="font-size:56.3538px;stroke-width:8.80528"
   id="tspan2005">y</tspan></tspan></text><text
       xml:space="preserve"
       style="font-style:normal;font-variant:normal;font-weight:normal;font-stretch:normal;font-size:63.6591px;line-height:0;font-family:'Minecraft Five v2';-inkscape-font-specification:'Minecraft Five v2';text-align:center;text-anchor:middle;fill:#ffffff;fill-opacity:1;stroke:none;stroke-width:9.94672;stroke-linecap:round;stroke-linejoin:miter;stroke-dasharray:none;stroke-opacity:1"
       x="-1164.5194"
       y="698.22266"
       id="text2013"><tspan
         sodipodi:role="line"
         id="tspan2011"
         style="font-style:normal;font-variant:normal;font-weight:normal;font-stretch:normal;font-family:'Minecraft Five v2';-inkscape-font-specification:'Minecraft Five v2';stroke-width:9.94672"
         x="-1164.5194"
         y="698.22266">/elminehuy</tspan></text><rect
       style="fill:#ffffff;fill-opacity:1;stroke:none;stroke-width:5.39172;stroke-linecap:round;stroke-linejoin:miter;stroke-dasharray:none;stroke-opacity:1"
       id="rect2015"
       width="469.60742"
       height="3.3700178"
       x="-1399.2236"
       y="619.31696" /><g
       id="Logo_1_"
       transform="matrix(0.08866263,0,0,0.08866266,-558.64213,363.77863)">
	<path
   id="white_background"
   class="st0"
   d="m 221.95,51.29 c 0.15,2.17 0.15,4.34 0.15,6.53 0,66.73 -50.8,143.69 -143.69,143.69 v -0.04 C 50.97,201.51 24.1,193.65 1,178.83 c 3.99,0.48 8,0.72 12.02,0.73 22.74,0.02 44.83,-7.61 62.72,-21.66 -21.61,-0.41 -40.56,-14.5 -47.18,-35.07 7.57,1.46 15.37,1.16 22.8,-0.87 C 27.8,117.2 10.85,96.5 10.85,72.46 c 0,-0.22 0,-0.43 0,-0.64 7.02,3.91 14.88,6.08 22.92,6.32 C 11.58,63.31 4.74,33.79 18.14,10.71 c 25.64,31.55 63.47,50.73 104.08,52.76 -4.07,-17.54 1.49,-35.92 14.61,-48.25 20.34,-19.12 52.33,-18.14 71.45,2.19 11.31,-2.23 22.15,-6.38 32.07,-12.26 -3.77,11.69 -11.66,21.62 -22.2,27.93 10.01,-1.18 19.79,-3.86 29,-7.95 -6.78,10.16 -15.32,19.01 -25.2,26.16 z" />
</g><g
       style="fill:none"
       id="g2040"
       transform="matrix(0.03545899,0,0,0.035459,-604.54329,354.23336)"><path
         d="m 650.96239,306.59986 c 65.12,48.888 135.16,148.017 160.879,201.209 25.719,-53.192 95.759,-152.321 160.879,-201.209 46.98701,-35.276 123.12101,-62.57 123.12101,24.282 0,17.346 -9.945,145.713 -15.778,166.555 -20.275,72.453 -94.15501,90.933 -159.87501,79.748 114.87501,19.551 144.09701,84.311 80.98601,149.071 -119.86001,122.992 -172.27201,-30.859 -185.70201,-70.281 -2.462,-7.227 -3.614,-10.608 -3.631,-7.733 -0.017,-2.875 -1.169,0.506 -3.631,7.733 -13.43,39.422 -65.842,193.273 -185.702,70.281 -63.111,-64.76 -33.889,-129.52 80.986,-149.071 -65.72,11.185 -139.6,-7.295 -159.875,-79.748 -5.833,-20.842 -15.778,-149.209 -15.778,-166.555 0,-86.852 76.134,-59.558 123.121,-24.282 z"
         fill="#1185fe"
         id="path2031" /></g><path
       d="m -607.42877,369.91328 h 4.38808 l -3.13694,-2.97374 1.72261,-1.74072 2.97374,3.02813 v -4.31555 h 2.57482 v 4.31555 l 2.97375,-3.02813 1.72259,1.74072 -3.13693,2.95562 h 4.38808 v 2.44789 h -4.40622 l 3.13694,3.02814 -1.7226,1.70446 -4.26115,-4.26115 -4.26115,4.27928 -1.72261,-1.72259 3.13696,-3.02814 h -4.40623 v -2.42977 z m 5.96563,5.92936 h 2.57482 v 5.80243 h -2.57482 z"
       id="path2112"
       style="fill:#43e660;fill-opacity:1;stroke-width:0.181326">
 </path><text
       xml:space="preserve"
       style="font-style:normal;font-variant:normal;font-weight:normal;font-stretch:normal;font-size:20.5886px;line-height:0;font-family:'Minecraft Five v2';-inkscape-font-specification:'Minecraft Five v2';text-align:center;text-anchor:middle;fill:#ffffff;fill-opacity:1;stroke:none;stroke-width:3.21696;stroke-linecap:round;stroke-linejoin:miter;stroke-dasharray:none;stroke-opacity:1"
       x="-740.18707"
       y="584.14178"
       id="text2329"><tspan
         sodipodi:role="line"
         id="tspan2327"
         style="font-style:normal;font-variant:normal;font-weight:normal;font-stretch:normal;font-family:'Minecraft Five v2';-inkscape-font-specification:'Minecraft Five v2';stroke-width:3.21696"
         x="-740.18707"
         y="584.14178">/elminehuy</tspan></text><g
       id="g2333"
       transform="matrix(0.07212819,0,0,0.07212819,-843.06325,569.60724)">
	<path
   id="path2331"
   class="st0"
   d="m 221.95,51.29 c 0.15,2.17 0.15,4.34 0.15,6.53 0,66.73 -50.8,143.69 -143.69,143.69 v -0.04 C 50.97,201.51 24.1,193.65 1,178.83 c 3.99,0.48 8,0.72 12.02,0.73 22.74,0.02 44.83,-7.61 62.72,-21.66 -21.61,-0.41 -40.56,-14.5 -47.18,-35.07 7.57,1.46 15.37,1.16 22.8,-0.87 C 27.8,117.2 10.85,96.5 10.85,72.46 c 0,-0.22 0,-0.43 0,-0.64 7.02,3.91 14.88,6.08 22.92,6.32 C 11.58,63.31 4.74,33.79 18.14,10.71 c 25.64,31.55 63.47,50.73 104.08,52.76 -4.07,-17.54 1.49,-35.92 14.61,-48.25 20.34,-19.12 52.33,-18.14 71.45,2.19 11.31,-2.23 22.15,-6.38 32.07,-12.26 -3.77,11.69 -11.66,21.62 -22.2,27.93 10.01,-1.18 19.79,-3.86 29,-7.95 -6.78,10.16 -15.32,19.01 -25.2,26.16 z" />
</g><g
       style="fill:none"
       id="g2337"
       transform="matrix(0.02884635,0,0,0.02884635,-877.50329,561.84203)"><path
         d="m 650.96239,306.59986 c 65.12,48.888 135.16,148.017 160.879,201.209 25.719,-53.192 95.759,-152.321 160.879,-201.209 46.98701,-35.276 123.12101,-62.57 123.12101,24.282 0,17.346 -9.945,145.713 -15.778,166.555 -20.275,72.453 -94.15501,90.933 -159.87501,79.748 114.87501,19.551 144.09701,84.311 80.98601,149.071 -119.86001,122.992 -172.27201,-30.859 -185.70201,-70.281 -2.462,-7.227 -3.614,-10.608 -3.631,-7.733 -0.017,-2.875 -1.169,0.506 -3.631,7.733 -13.43,39.422 -65.842,193.273 -185.702,70.281 -63.111,-64.76 -33.889,-129.52 80.986,-149.071 -65.72,11.185 -139.6,-7.295 -159.875,-79.748 -5.833,-20.842 -15.778,-149.209 -15.778,-166.555 0,-86.852 76.134,-59.558 123.121,-24.282 z"
         fill="#1185fe"
         id="path2335" /></g><path
       d="m -876.9495,574.59784 h 3.56976 l -2.55194,-2.41917 1.40136,-1.41611 2.41918,2.46343 v -3.51076 h 2.09465 v 3.51076 l 2.41918,-2.46343 1.40135,1.41611 -2.55193,2.40442 h 3.56976 v 1.9914 h -3.58452 l 2.55194,2.46343 -1.40135,1.3866 -3.46651,-3.4665 -3.4665,3.48125 -1.40136,-1.40135 2.55195,-2.46343 h -3.58452 v -1.97665 z m 4.85311,4.82361 h 2.09465 v 4.72034 h -2.09465 z"
       id="path2339"
       style="fill:#43e660;fill-opacity:1;stroke-width:0.147511">
 </path><path
       style="fill:#000000;fill-opacity:1;stroke:none;stroke-width:7.9375;stroke-linecap:round;stroke-linejoin:miter;stroke-dasharray:none;stroke-opacity:1"
       d="m -683.60672,477.09402 27.00697,-27.00698 h 316.76948 l -27.007,27.00698 z"
       id="path2520" /><text
       xml:space="preserve"
       style="font-style:normal;font-variant:normal;font-weight:normal;font-stretch:normal;font-size:24.3833px;line-height:0;font-family:'Minecraft Five v2';-inkscape-font-specification:'Minecraft Five v2';text-align:center;text-anchor:middle;fill:#ffffff;fill-opacity:1;stroke:none;stroke-width:3.80987;stroke-linecap:round;stroke-linejoin:miter;stroke-dasharray:none;stroke-opacity:1"
       x="-479.5864"
       y="472.29123"
       id="text2524"><tspan
         sodipodi:role="line"
         id="tspan2522"
         style="font-style:normal;font-variant:normal;font-weight:normal;font-stretch:normal;font-family:'Minecraft Five v2';-inkscape-font-specification:'Minecraft Five v2';stroke-width:3.80987"
         x="-479.5864"
         y="472.29123">/elminehuy</tspan></text><g
       id="g2528"
       transform="matrix(0.08542196,0,0,0.08542199,-601.42344,455.07782)">
	<path
   id="path2526"
   class="st0"
   d="m 221.95,51.29 c 0.15,2.17 0.15,4.34 0.15,6.53 0,66.73 -50.8,143.69 -143.69,143.69 v -0.04 C 50.97,201.51 24.1,193.65 1,178.83 c 3.99,0.48 8,0.72 12.02,0.73 22.74,0.02 44.83,-7.61 62.72,-21.66 -21.61,-0.41 -40.56,-14.5 -47.18,-35.07 7.57,1.46 15.37,1.16 22.8,-0.87 C 27.8,117.2 10.85,96.5 10.85,72.46 c 0,-0.22 0,-0.43 0,-0.64 7.02,3.91 14.88,6.08 22.92,6.32 C 11.58,63.31 4.74,33.79 18.14,10.71 c 25.64,31.55 63.47,50.73 104.08,52.76 -4.07,-17.54 1.49,-35.92 14.61,-48.25 20.34,-19.12 52.33,-18.14 71.45,2.19 11.31,-2.23 22.15,-6.38 32.07,-12.26 -3.77,11.69 -11.66,21.62 -22.2,27.93 10.01,-1.18 19.79,-3.86 29,-7.95 -6.78,10.16 -15.32,19.01 -25.2,26.16 z" />
</g><g
       style="fill:none"
       id="g2532"
       transform="matrix(0.03416295,0,0,0.03416296,-642.21104,445.88143)"><path
         d="m 650.96239,306.59986 c 65.12,48.888 135.16,148.017 160.879,201.209 25.719,-53.192 95.759,-152.321 160.879,-201.209 46.98701,-35.276 123.12101,-62.57 123.12101,24.282 0,17.346 -9.945,145.713 -15.778,166.555 -20.275,72.453 -94.15501,90.933 -159.87501,79.748 114.87501,19.551 144.09701,84.311 80.98601,149.071 -119.86001,122.992 -172.27201,-30.859 -185.70201,-70.281 -2.462,-7.227 -3.614,-10.608 -3.631,-7.733 -0.017,-2.875 -1.169,0.506 -3.631,7.733 -13.43,39.422 -65.842,193.273 -185.702,70.281 -63.111,-64.76 -33.889,-129.52 80.986,-149.071 -65.72,11.185 -139.6,-7.295 -159.875,-79.748 -5.833,-20.842 -15.778,-149.209 -15.778,-166.555 0,-86.852 76.134,-59.558 123.121,-24.282 z"
         fill="#1185fe"
         id="path2530" /></g><path
       d="m -641.55518,460.98823 h 4.22769 l -3.02228,-2.86504 1.65964,-1.67711 2.86506,2.91746 v -4.15782 h 2.48071 v 4.15782 l 2.86505,-2.91746 1.65963,1.67711 -3.02227,2.84758 h 4.22769 v 2.35842 h -4.24517 l 3.02228,2.91746 -1.65963,1.64216 -4.10541,-4.1054 -4.1054,4.12287 -1.65965,-1.65963 3.0223,-2.91746 h -4.24518 v -2.34096 z m 5.74758,5.71264 h 2.48071 v 5.59034 h -2.48071 z"
       id="path2534"
       style="fill:#43e660;fill-opacity:1;stroke-width:0.174698">
 </path><rect
       style="fill:#ff0000;fill-opacity:1;stroke:none;stroke-width:6.94927;stroke-linecap:round;stroke-linejoin:miter;stroke-dasharray:none;stroke-opacity:1"
       id="rect2542"
       width="4.1549349"
       height="20.661299"
       x="-764.84021"
       y="442.76215" /><path
       style="fill:#000000;fill-opacity:1;stroke:none;stroke-width:7.51249;stroke-linecap:round;stroke-linejoin:miter;stroke-dasharray:none;stroke-opacity:1"
       d="m -649.47746,539.94323 25.56086,-25.56086 h 254.38925 l -25.56089,25.56086 z"
       id="path2093"
       sodipodi:nodetypes="ccccc" /><text
       xml:space="preserve"
       style="font-style:normal;font-variant:normal;font-weight:normal;font-stretch:normal;font-size:21.2639px;line-height:0;font-family:'Century Gothic';-inkscape-font-specification:'Century Gothic';text-align:center;text-anchor:middle;fill:#ffffff;fill-opacity:1;stroke:none;stroke-width:3.32245;stroke-linecap:round;stroke-linejoin:miter;stroke-dasharray:none;stroke-opacity:1"
       x="-472.39813"
       y="533.93451"
       id="text2097"><tspan
         sodipodi:role="line"
         id="tspan2095"
         style="font-style:normal;font-variant:normal;font-weight:normal;font-stretch:normal;font-family:'Century Gothic';-inkscape-font-specification:'Century Gothic';stroke-width:3.32245"
         x="-472.39813"
         y="533.93451">/ELMINEHUY</tspan></text><g
       id="g2101"
       transform="matrix(0.08866263,0,0,0.08866266,-558.64213,518.14464)">
	<path
   id="path2099"
   class="st0"
   d="m 221.95,51.29 c 0.15,2.17 0.15,4.34 0.15,6.53 0,66.73 -50.8,143.69 -143.69,143.69 v -0.04 C 50.97,201.51 24.1,193.65 1,178.83 c 3.99,0.48 8,0.72 12.02,0.73 22.74,0.02 44.83,-7.61 62.72,-21.66 -21.61,-0.41 -40.56,-14.5 -47.18,-35.07 7.57,1.46 15.37,1.16 22.8,-0.87 C 27.8,117.2 10.85,96.5 10.85,72.46 c 0,-0.22 0,-0.43 0,-0.64 7.02,3.91 14.88,6.08 22.92,6.32 C 11.58,63.31 4.74,33.79 18.14,10.71 c 25.64,31.55 63.47,50.73 104.08,52.76 -4.07,-17.54 1.49,-35.92 14.61,-48.25 20.34,-19.12 52.33,-18.14 71.45,2.19 11.31,-2.23 22.15,-6.38 32.07,-12.26 -3.77,11.69 -11.66,21.62 -22.2,27.93 10.01,-1.18 19.79,-3.86 29,-7.95 -6.78,10.16 -15.32,19.01 -25.2,26.16 z" />
</g><g
       style="fill:none"
       id="g2105"
       transform="matrix(0.03545899,0,0,0.035459,-604.54329,508.59937)"><path
         d="m 650.96239,306.59986 c 65.12,48.888 135.16,148.017 160.879,201.209 25.719,-53.192 95.759,-152.321 160.879,-201.209 46.98701,-35.276 123.12101,-62.57 123.12101,24.282 0,17.346 -9.945,145.713 -15.778,166.555 -20.275,72.453 -94.15501,90.933 -159.87501,79.748 114.87501,19.551 144.09701,84.311 80.98601,149.071 -119.86001,122.992 -172.27201,-30.859 -185.70201,-70.281 -2.462,-7.227 -3.614,-10.608 -3.631,-7.733 -0.017,-2.875 -1.169,0.506 -3.631,7.733 -13.43,39.422 -65.842,193.273 -185.702,70.281 -63.111,-64.76 -33.889,-129.52 80.986,-149.071 -65.72,11.185 -139.6,-7.295 -159.875,-79.748 -5.833,-20.842 -15.778,-149.209 -15.778,-166.555 0,-86.852 76.134,-59.558 123.121,-24.282 z"
         fill="#1185fe"
         id="path2103" /></g><path
       d="m -607.42877,524.27929 h 4.38808 l -3.13694,-2.97374 1.72261,-1.74072 2.97374,3.02813 v -4.31555 h 2.57482 v 4.31555 l 2.97375,-3.02813 1.72259,1.74072 -3.13693,2.95562 h 4.38808 v 2.44789 h -4.40622 l 3.13694,3.02814 -1.7226,1.70446 -4.26115,-4.26115 -4.26115,4.27928 -1.72261,-1.72259 3.13696,-3.02814 h -4.40623 v -2.42977 z m 5.96563,5.92936 h 2.57482 v 5.80243 h -2.57482 z"
       id="path2107"
       style="fill:#43e660;fill-opacity:1;stroke-width:0.181326">
 </path><text
       xml:space="preserve"
       style="font-style:normal;font-variant:normal;font-weight:normal;font-stretch:normal;font-size:62.8737px;line-height:0;font-family:'Minecraft Ten v2';-inkscape-font-specification:'Minecraft Ten v2';text-align:center;text-anchor:middle;fill:#333333;fill-opacity:1;stroke:none;stroke-width:7.60882;stroke-linecap:round;stroke-linejoin:miter;stroke-dasharray:none;stroke-opacity:1"
       x="254.02432"
       y="155.91597"
       id="text19"><tspan
         sodipodi:role="line"
         id="tspan19"
         style="font-size:62.8737px;fill:#333333;stroke-width:7.60882"
         x="254.02432"
         y="155.91597"><tspan
   style="font-size:48.6964px;fill:#333333;stroke-width:7.60882"
   id="tspan14">el</tspan>m<tspan
   style="font-size:96.6897px;fill:#333333;stroke-width:7.60882"
   id="tspan17">i<tspan
   style="font-size:130.508px;fill:#333333;stroke-width:7.60882"
   id="tspan15">n</tspan><tspan
   style="font-size:164.325px;fill:#333333;stroke-width:7.60882"
   id="tspan16">e</tspan>h</tspan>u<tspan
   style="font-size:48.6964px;fill:#333333;stroke-width:7.60882"
   id="tspan18">y</tspan></tspan></text><text
       xml:space="preserve"
       style="font-style:normal;font-variant:normal;font-weight:bold;font-stretch:normal;font-size:96px;line-height:1;font-family:Arial;-inkscape-font-specification:'Arial Bold';font-variant-ligatures:normal;font-variant-position:normal;font-variant-caps:normal;font-variant-numeric:normal;font-variant-alternates:normal;font-variant-east-asian:normal;font-feature-settings:normal;font-variation-settings:normal;text-indent:0;text-align:center;text-decoration-line:none;text-decoration-style:solid;text-decoration-color:#000000;letter-spacing:normal;word-spacing:normal;text-transform:none;writing-mode:lr-tb;direction:ltr;text-orientation:mixed;dominant-baseline:auto;baseline-shift:baseline;text-anchor:middle;white-space:normal;shape-padding:0;shape-margin:0;inline-size:0;vector-effect:none;fill:#333333;fill-opacity:1;stroke-width:0.999999;stroke-linecap:butt;stroke-linejoin:miter;stroke-miterlimit:4;stroke-dasharray:none;stroke-dashoffset:0;stroke-opacity:1;-inkscape-stroke:none;stop-color:#000000"
       x="762.90344"
       y="535.79431"
       id="text20"
       transform="matrix(0.8827475,0,0,0.8827475,-419.40877,-240.57815)"><tspan
         sodipodi:role="line"
         x="762.90344"
         y="535.79431"
         style="font-style:italic;font-variant:normal;font-weight:normal;font-stretch:normal;font-family:'Times New Roman';-inkscape-font-specification:'Times New Roman,  Italic';text-align:center;text-anchor:middle;fill:#333333"
         id="tspan20">.github.io</tspan></text><text
       xml:space="preserve"
       style="font-style:normal;font-variant:normal;font-weight:normal;font-stretch:normal;font-size:62.8737px;line-height:0;font-family:'Minecraft Ten v2';-inkscape-font-specification:'Minecraft Ten v2';text-align:center;text-anchor:middle;fill:#ffffff;fill-opacity:1;stroke:none;stroke-width:7.60882;stroke-linecap:round;stroke-linejoin:miter;stroke-dasharray:none;stroke-opacity:1"
       x="254.02432"
       y="152.21181"
       id="text6"><tspan
         sodipodi:role="line"
         id="tspan6"
         style="font-size:62.8737px;stroke-width:7.60882;fill:#ffffff;fill-opacity:1"
         x="254.02432"
         y="152.21181"><tspan
   style="font-size:48.6964px;stroke-width:7.60882;fill:#ffffff;fill-opacity:1"
   id="tspan1">el</tspan>m<tspan
   style="font-size:96.6897px;stroke-width:7.60882;fill:#ffffff;fill-opacity:1"
   id="tspan4">i<tspan
   style="font-size:130.508px;stroke-width:7.60882;fill:#ffffff;fill-opacity:1"
   id="tspan2">n</tspan><tspan
   style="font-size:164.325px;stroke-width:7.60882;fill:#ffffff;fill-opacity:1"
   id="tspan3">e</tspan>h</tspan>u<tspan
   style="font-size:48.6964px;stroke-width:7.60882;fill:#ffffff;fill-opacity:1"
   id="tspan5">y</tspan></tspan></text><text
       xml:space="preserve"
       style="font-style:normal;font-variant:normal;font-weight:bold;font-stretch:normal;font-size:96px;line-height:1;font-family:Arial;-inkscape-font-specification:'Arial Bold';font-variant-ligatures:normal;font-variant-position:normal;font-variant-caps:normal;font-variant-numeric:normal;font-variant-alternates:normal;font-variant-east-asian:normal;font-feature-settings:normal;font-variation-settings:normal;text-indent:0;text-align:center;text-decoration-line:none;text-decoration-style:solid;text-decoration-color:#000000;letter-spacing:normal;word-spacing:normal;text-transform:none;writing-mode:lr-tb;direction:ltr;text-orientation:mixed;dominant-baseline:auto;baseline-shift:baseline;text-anchor:middle;white-space:normal;shape-padding:0;shape-margin:0;inline-size:0;opacity:1;vector-effect:none;fill:#ffffff;fill-opacity:1;stroke-width:0.999999;stroke-linecap:butt;stroke-linejoin:miter;stroke-miterlimit:4;stroke-dasharray:none;stroke-dashoffset:0;stroke-opacity:1;-inkscape-stroke:none;stop-color:#000000;stop-opacity:1"
       x="762.90344"
       y="535.79431"
       id="text9"
       transform="matrix(0.8827475,0,0,0.8827475,-419.40877,-242.69481)"><tspan
         sodipodi:role="line"
         x="762.90344"
         y="535.79431"
         style="font-style:italic;font-variant:normal;font-weight:normal;font-stretch:normal;font-family:'Times New Roman';-inkscape-font-specification:'Times New Roman,  Italic';text-align:center;text-anchor:middle;fill:#ffffff"
         id="tspan10">.github.io</tspan></text></g><style
     type="text/css"
     id="style2019">
	.st0{fill:#1D9BF0;}
</style></svg>
