<?xml version="1.0" encoding="UTF-8" standalone="no"?>
<!-- Created with Inkscape (http://www.inkscape.org/) -->

<svg
   width="1920"
   height="1080"
   viewBox="0 0 508 285.75"
   version="1.1"
   id="svg5"
   inkscape:version="1.4 (86a8ad7, 2024-10-11)"
   sodipodi:docname="website_logo_4.svg"
   inkscape:export-filename="website_logo_4.png"
   inkscape:export-xdpi="96"
   inkscape:export-ydpi="96"
   xml:space="preserve"
   xmlns:inkscape="http://www.inkscape.org/namespaces/inkscape"
   xmlns:sodipodi="http://sodipodi.sourceforge.net/DTD/sodipodi-0.dtd"
   xmlns="http://www.w3.org/2000/svg"
   xmlns:svg="http://www.w3.org/2000/svg"><sodipodi:namedview
     id="namedview7"
     pagecolor="#505050"
     bordercolor="#eeeeee"
     borderopacity="1"
     inkscape:showpageshadow="0"
     inkscape:pageopacity="0"
     inkscape:pagecheckerboard="0"
     inkscape:deskcolor="#505050"
     inkscape:document-units="mm"
     showgrid="false"
     inkscape:zoom="0.52247334"
     inkscape:cx="1297.6739"
     inkscape:cy="478.49332"
     inkscape:window-width="1920"
     inkscape:window-height="991"
     inkscape:window-x="-9"
     inkscape:window-y="-9"
     inkscape:window-maximized="1"
     inkscape:current-layer="g47" /><defs
     id="defs2" /><g
     inkscape:label="Capa 1"
     inkscape:groupmode="layer"
     id="layer1"><text
       xml:space="preserve"
       style="font-style:normal;font-variant:normal;font-weight:bold;font-stretch:normal;font-size:96px;line-height:1;font-family:Arial;-inkscape-font-specification:'Arial Bold';font-variant-ligatures:normal;font-variant-position:normal;font-variant-caps:normal;font-variant-numeric:normal;font-variant-alternates:normal;font-variant-east-asian:normal;font-feature-settings:normal;font-variation-settings:normal;text-indent:0;text-align:center;text-decoration-line:none;text-decoration-style:solid;text-decoration-color:#000000;letter-spacing:normal;word-spacing:normal;text-transform:none;writing-mode:lr-tb;direction:ltr;text-orientation:mixed;dominant-baseline:auto;baseline-shift:baseline;text-anchor:middle;white-space:normal;shape-padding:0;shape-margin:0;inline-size:0;opacity:1;vector-effect:none;fill:#ffffff;fill-opacity:1;stroke-width:0.999999;stroke-linecap:butt;stroke-linejoin:miter;stroke-miterlimit:4;stroke-dasharray:none;stroke-dashoffset:0;stroke-opacity:1;-inkscape-stroke:none;stop-color:#000000;stop-opacity:1"
       x="762.90344"
       y="535.79431"
       id="text236"
       transform="matrix(0.8827475,0,0,0.8827475,-419.40877,-586.73787)"><tspan
         sodipodi:role="line"
         x="762.90344"
         y="535.79431"
         style="font-style:italic;font-variant:normal;font-weight:normal;font-stretch:normal;font-family:'Times New Roman';-inkscape-font-specification:'Times New Roman,  Italic';text-align:center;text-anchor:middle;fill:#ffffff"
         id="tspan288"><tspan
           id="tspan292"
           style="font-style:normal;font-variant:normal;font-weight:bold;font-stretch:normal;font-family:'Minecraft Ten v2';-inkscape-font-specification:'Minecraft Ten v2 Bold';text-align:center;text-anchor:middle;fill:#ffffff">elminehuy</tspan></tspan><tspan
         sodipodi:role="line"
         x="762.90344"
         y="634.26672"
         style="font-style:italic;font-variant:normal;font-weight:normal;font-stretch:normal;font-family:'Times New Roman';-inkscape-font-specification:'Times New Roman,  Italic';text-align:center;text-anchor:middle;fill:#ffffff"
         id="tspan295">.github.io</tspan></text><text
       xml:space="preserve"
       style="font-style:normal;font-variant:normal;font-weight:normal;font-stretch:normal;font-size:62.8737px;line-height:0;font-family:'Minecraft Ten v2';-inkscape-font-specification:'Minecraft Ten v2';text-align:center;text-anchor:middle;fill:#333333;fill-opacity:1;stroke:none;stroke-width:7.60882;stroke-linecap:round;stroke-linejoin:miter;stroke-dasharray:none;stroke-opacity:1"
       x="820.23334"
       y="155.91597"
       id="text19"><tspan
         sodipodi:role="line"
         id="tspan19"
         style="font-size:62.8737px;fill:#333333;stroke-width:7.60882"
         x="820.23334"
         y="155.91597"><tspan
   style="font-size:48.6964px;fill:#333333;stroke-width:7.60882"
   id="tspan14">el</tspan>m<tspan
   style="font-size:96.6897px;fill:#333333;stroke-width:7.60882"
   id="tspan17">i<tspan
   style="font-size:130.508px;fill:#333333;stroke-width:7.60882"
   id="tspan15">n</tspan><tspan
   style="font-size:164.325px;fill:#333333;stroke-width:7.60882"
   id="tspan16">e</tspan>h</tspan>u<tspan
   style="font-size:48.6964px;fill:#333333;stroke-width:7.60882"
   id="tspan18">y</tspan></tspan></text><text
       xml:space="preserve"
       style="font-style:normal;font-variant:normal;font-weight:bold;font-stretch:normal;font-size:96px;line-height:1;font-family:Arial;-inkscape-font-specification:'Arial Bold';font-variant-ligatures:normal;font-variant-position:normal;font-variant-caps:normal;font-variant-numeric:normal;font-variant-alternates:normal;font-variant-east-asian:normal;font-feature-settings:normal;font-variation-settings:normal;text-indent:0;text-align:center;text-decoration-line:none;text-decoration-style:solid;text-decoration-color:#000000;letter-spacing:normal;word-spacing:normal;text-transform:none;writing-mode:lr-tb;direction:ltr;text-orientation:mixed;dominant-baseline:auto;baseline-shift:baseline;text-anchor:middle;white-space:normal;shape-padding:0;shape-margin:0;inline-size:0;vector-effect:none;fill:#333333;fill-opacity:1;stroke-width:0.999999;stroke-linecap:butt;stroke-linejoin:miter;stroke-miterlimit:4;stroke-dasharray:none;stroke-dashoffset:0;stroke-opacity:1;-inkscape-stroke:none;stop-color:#000000"
       x="762.90344"
       y="535.79431"
       id="text20"
       transform="matrix(0.8827475,0,0,0.8827475,146.7998,-240.57815)"><tspan
         sodipodi:role="line"
         x="762.90344"
         y="535.79431"
         style="font-style:italic;font-variant:normal;font-weight:normal;font-stretch:normal;font-family:'Times New Roman';-inkscape-font-specification:'Times New Roman,  Italic';text-align:center;text-anchor:middle;fill:#333333"
         id="tspan20">.github.io</tspan></text><text
       xml:space="preserve"
       style="font-style:normal;font-variant:normal;font-weight:normal;font-stretch:normal;font-size:62.8737px;line-height:0;font-family:'Minecraft Ten v2';-inkscape-font-specification:'Minecraft Ten v2';text-align:center;text-anchor:middle;fill:#ffffff;fill-opacity:1;stroke:none;stroke-width:7.60882;stroke-linecap:round;stroke-linejoin:miter;stroke-dasharray:none;stroke-opacity:1"
       x="820.23334"
       y="152.21181"
       id="text6"><tspan
         sodipodi:role="line"
         id="tspan6"
         style="font-size:62.8737px;fill:#ffffff;fill-opacity:1;stroke-width:7.60882"
         x="820.23334"
         y="152.21181"><tspan
   style="font-size:48.6964px;fill:#ffffff;fill-opacity:1;stroke-width:7.60882"
   id="tspan1">el</tspan>m<tspan
   style="font-size:96.6897px;fill:#ffffff;fill-opacity:1;stroke-width:7.60882"
   id="tspan4">i<tspan
   style="font-size:130.508px;fill:#ffffff;fill-opacity:1;stroke-width:7.60882"
   id="tspan2">n</tspan><tspan
   style="font-size:164.325px;fill:#ffffff;fill-opacity:1;stroke-width:7.60882"
   id="tspan3">e</tspan>h</tspan>u<tspan
   style="font-size:48.6964px;fill:#ffffff;fill-opacity:1;stroke-width:7.60882"
   id="tspan5">y</tspan></tspan></text><text
       xml:space="preserve"
       style="font-style:normal;font-variant:normal;font-weight:bold;font-stretch:normal;font-size:96px;line-height:1;font-family:Arial;-inkscape-font-specification:'Arial Bold';font-variant-ligatures:normal;font-variant-position:normal;font-variant-caps:normal;font-variant-numeric:normal;font-variant-alternates:normal;font-variant-east-asian:normal;font-feature-settings:normal;font-variation-settings:normal;text-indent:0;text-align:center;text-decoration-line:none;text-decoration-style:solid;text-decoration-color:#000000;letter-spacing:normal;word-spacing:normal;text-transform:none;writing-mode:lr-tb;direction:ltr;text-orientation:mixed;dominant-baseline:auto;baseline-shift:baseline;text-anchor:middle;white-space:normal;shape-padding:0;shape-margin:0;inline-size:0;opacity:1;vector-effect:none;fill:#ffffff;fill-opacity:1;stroke-width:0.999999;stroke-linecap:butt;stroke-linejoin:miter;stroke-miterlimit:4;stroke-dasharray:none;stroke-dashoffset:0;stroke-opacity:1;-inkscape-stroke:none;stop-color:#000000;stop-opacity:1"
       x="762.90344"
       y="535.79431"
       id="text9"
       transform="matrix(0.8827475,0,0,0.8827475,146.7998,-242.69481)"><tspan
         sodipodi:role="line"
         x="762.90344"
         y="535.79431"
         style="font-style:italic;font-variant:normal;font-weight:normal;font-stretch:normal;font-family:'Times New Roman';-inkscape-font-specification:'Times New Roman,  Italic';text-align:center;text-anchor:middle;fill:#ffffff"
         id="tspan10">.github.io</tspan></text><g
       id="g47"
       transform="translate(-3.4892612e-6,-2.6458315)"><path
         d="m 204.99473,61.594688 c -1.99117,0 -3.66048,0.644297 -5.00745,1.932699 -1.34697,1.229838 -2.02003,2.782007 -2.02003,4.656046 0,1.87404 0.67306,3.454978 2.02003,4.74338 1.34697,1.229838 3.01628,1.844849 5.00745,1.844849 2.04973,0 3.71852,-0.644297 5.00693,-1.932699 1.34696,-1.346966 2.02054,-2.986476 2.02054,-4.91908 0,-1.815475 -0.67358,-3.309072 -2.02054,-4.480346 -1.34697,-1.229839 -3.01577,-1.844849 -5.00693,-1.844849 z M 61.303755,64.230186 v 50.511124 c 0,4.86079 1.347166,8.6382 4.041097,11.33213 2.752495,2.63537 6.559185,3.95325 11.419975,3.95325 2.342549,0 4.538498,-0.38072 6.588228,-1.14205 l -0.527099,-8.78448 c -1.171275,0.58564 -2.488637,0.8785 -3.952731,0.8785 -4.392279,0 -6.588745,-2.3429 -6.588745,-7.02799 V 64.230186 Z m 280.253695,0 v 65.181554 h 10.98072 v -23.71845 c 0,-4.56797 1.17145,-8.052514 3.514,-10.453627 2.34255,-2.459677 5.53423,-3.689697 9.57513,-3.689697 3.57239,0 6.32477,1.054303 8.25738,3.162597 1.9326,2.049731 2.89904,5.124266 2.89904,9.223727 v 25.47545 h 10.98021 v -26.88105 c 0,-6.793392 -1.78594,-11.917444 -5.35833,-15.372704 -3.57239,-3.45526 -8.31623,-5.183147 -14.23117,-5.183147 -3.27957,0 -6.26625,0.527152 -8.96018,1.581299 -2.63536,0.995584 -4.8606,2.459894 -6.67608,4.392497 V 64.230186 Z M 28.901082,67.041384 c -5.739246,0 -10.570436,0.820014 -14.494206,2.459798 -3.92377,1.581221 -6.8816765,3.718597 -8.8728434,6.412529 -1.9326031,2.635368 -2.8985311,5.592757 -2.8985311,8.872326 0,2.869623 0.6735827,5.475579 2.0205485,7.818128 1.4055296,2.283985 3.3086161,4.070444 5.709729,5.358846 -3.1624414,1.171274 -5.6805382,3.015789 -7.5545776,5.534029 -1.87403938,2.51824 -2.8111979107388,5.47563 -2.8111979107388,8.87233 0,3.51382 1.0543033107388,6.61816 3.1625976107388,9.31209 2.1082944,2.69393 5.2121152,4.80202 9.3115759,6.32468 4.158025,1.52266 9.194219,2.2841 15.109156,2.2841 5.036481,0 9.721756,-0.58573 14.055473,-1.757 4.333716,-1.17128 7.87683,-2.84059 10.629325,-5.00745 l -3.689697,-8.78448 c -2.459677,1.87404 -5.534212,3.33835 -9.223727,4.3925 -3.630951,1.05415 -7.379068,1.5813 -11.244275,1.5813 -5.563554,0 -9.721678,-0.82001 -12.474174,-2.4598 -2.752495,-1.63978 -4.12843,-3.86553 -4.12843,-6.67659 0,-2.81106 1.142162,-4.91915 3.426148,-6.32468 2.283985,-1.46409 5.504951,-2.19625 9.662976,-2.19625 H 41.463106 V 93.570514 H 25.211901 c -3.630951,0 -6.383854,-0.673583 -8.257894,-2.020548 -1.874039,-1.40553 -2.810681,-3.425761 -2.810681,-6.061129 0,-2.693932 1.25879,-4.831308 3.777031,-6.412529 2.576804,-1.639784 6.383494,-2.459798 11.419974,-2.459798 6.383447,0 12.151796,1.346649 17.305404,4.04058 l 3.250448,-9.048026 c -2.752496,-1.40553 -5.973461,-2.517889 -9.662976,-3.337781 -3.689515,-0.819892 -7.466919,-1.229899 -11.332125,-1.229899 z m 93.355538,0 c -4.21658,0 -7.93542,0.790728 -11.15642,2.371948 -3.22101,1.522657 -5.76891,3.718606 -7.64295,6.588229 V 67.919883 H 92.389196 V 129.41174 H 103.80865 V 92.779865 c 0,-5.270736 1.37646,-9.194571 4.12895,-11.771375 2.81106,-2.635368 6.52989,-3.95273 11.15643,-3.95273 4.09946,0 7.32042,1.229504 9.66297,3.68918 2.40112,2.459677 3.60185,6.149222 3.60185,11.068575 v 37.598225 h 11.41997 V 92.779865 c 0,-5.3293 1.34665,-9.282421 4.04058,-11.859225 2.7525,-2.576804 6.41276,-3.86488 10.98073,-3.86488 4.09946,0 7.40829,1.25879 9.92653,3.77703 2.5768,2.459677 3.86539,6.119936 3.86539,10.980725 v 37.598225 h 11.41998 V 91.374266 c 0,-7.84754 -2.02075,-13.850178 -6.06165,-18.008203 -4.0409,-4.216589 -9.66281,-6.324679 -16.86615,-6.324679 -4.33372,0 -8.28684,0.820014 -11.85923,2.459798 -3.51382,1.639785 -6.29549,3.952878 -8.34522,6.939628 -1.63979,-2.98675 -4.07003,-5.299843 -7.29103,-6.939628 -3.22101,-1.639784 -6.99841,-2.459798 -11.33213,-2.459798 z m 129.72283,14.933455 c -3.45526,0 -6.55908,0.556438 -9.31157,1.669149 -2.7525,1.112711 -5.0363,2.752739 -6.85178,4.919597 v -6.061646 h -10.45362 v 46.909801 h 10.98072 v -23.71845 c 0,-4.56797 1.17145,-8.052514 3.514,-10.453627 2.34255,-2.459677 5.53423,-3.689697 9.57512,-3.689697 3.57239,0 6.32478,1.054303 8.25738,3.162597 1.9326,2.049731 2.89905,5.124266 2.89905,9.223727 v 25.47545 h 10.98072 v -26.88105 c 0,-6.793392 -1.78645,-11.917444 -5.35884,-15.372704 -3.57239,-3.45526 -8.31624,-5.183147 -14.23118,-5.183147 z m 54.80338,0 c -4.62654,0 -8.78466,1.025018 -12.47418,3.074748 -3.63095,2.049731 -6.50048,4.919262 -8.60877,8.608777 -2.04973,3.630951 -3.07475,7.730506 -3.07475,12.298476 0,4.62653 1.0543,8.78466 3.1626,12.47417 2.16686,3.63095 5.2121,6.4712 9.13587,8.52093 3.92377,2.04973 8.46262,3.07475 13.61623,3.07475 4.04089,0 7.67187,-0.6443 10.89287,-1.9327 3.22101,-1.2884 5.85625,-3.19201 7.90598,-5.71025 l -5.79758,-6.76393 c -3.3967,3.3967 -7.64268,5.0953 -12.73772,5.0953 -3.45526,0 -6.41265,-0.70287 -8.87233,-2.1084 -2.45968,-1.40553 -4.24614,-3.45556 -5.35885,-6.14949 l 35.92908,-7.02748 c 0,-4.74366 -1.05431,-8.872502 -3.1626,-12.386325 -2.10829,-3.572388 -4.97783,-6.295488 -8.60878,-8.169528 -3.57239,-1.932603 -7.55479,-2.899048 -11.94707,-2.899048 z m -107.32265,0.5271 v 46.909801 h 10.98073 V 82.501939 Z m 202.43467,0 v 26.793201 c 0,6.85195 1.78646,12.03458 5.35885,15.5484 3.63095,3.45526 8.57928,5.18315 14.8456,5.18315 3.04532,0 5.88556,-0.55644 8.52093,-1.66915 2.63537,-1.17128 4.83183,-2.8113 6.58875,-4.9196 v 5.9738 H 447.6626 V 82.501939 h -10.98072 v 23.718451 c 0,4.56797 -1.17145,8.0818 -3.514,10.54147 -2.28399,2.40112 -5.38781,3.60185 -9.31158,3.60185 -3.51382,0 -6.23692,-1.02502 -8.16952,-3.07475 -1.87404,-2.10829 -2.8112,-5.27068 -2.8112,-9.48727 V 82.501939 Z m 60.3374,0 v 24.069851 c 0,6.91052 1.78646,12.09314 5.35885,15.5484 3.63095,3.45526 8.57929,5.18315 14.84561,5.18315 2.92818,0 5.6518,-0.49787 8.17004,-1.49345 2.51824,-1.05415 4.65562,-2.54723 6.41253,-4.47983 v 2.19573 c 0,4.80223 -1.14216,8.34534 -3.42615,10.62933 -2.22542,2.34255 -5.73925,3.51399 -10.54147,3.51399 -3.16245,0 -6.17841,-0.49786 -9.04803,-1.49344 -2.86962,-0.99559 -5.29986,-2.34224 -7.29103,-4.04058 l -4.9196,8.25737 c 2.51825,2.16686 5.71044,3.80637 9.57565,4.91908 3.92377,1.17128 8.0228,1.757 12.29796,1.757 16.22215,0 24.33339,-8.25768 24.33339,-24.77265 V 82.501939 h -10.98072 v 21.082951 c 0,4.56797 -1.17145,8.05251 -3.514,10.45363 -2.28398,2.40111 -5.38781,3.60184 -9.31158,3.60184 -3.51382,0 -6.23692,-1.02501 -8.16952,-3.07474 -1.87404,-2.1083 -2.8112,-5.24141 -2.8112,-9.39943 V 82.501939 Z m -155.44942,8.257377 c 3.27957,0 6.06124,0.878586 8.34523,2.635498 2.34254,1.756912 3.89471,4.070522 4.65604,6.940146 l -26.52965,5.09478 v -0.0878 c 0,-4.45084 1.23003,-7.993959 3.6897,-10.629327 2.51824,-2.635368 5.79778,-3.953247 9.83868,-3.953247 z"
         style="font-weight:bold;font-size:87.8456px;line-height:1;font-family:'Montserrat Alternates';-inkscape-font-specification:'Montserrat Alternates Bold';text-align:center;letter-spacing:0.514721px;text-anchor:middle;opacity:0.3;stroke-width:5.14721;stroke-linecap:round;stroke-linejoin:round"
         id="path3" /><path
         d="m 204.99473,56.303021 c -1.99117,0 -3.66048,0.644297 -5.00745,1.932699 -1.34697,1.229838 -2.02003,2.782007 -2.02003,4.656047 0,1.874039 0.67306,3.454977 2.02003,4.743379 1.34697,1.229839 3.01628,1.844849 5.00745,1.844849 2.04973,0 3.71852,-0.644297 5.00693,-1.932699 1.34696,-1.346965 2.02054,-2.986476 2.02054,-4.919079 0,-1.815476 -0.67358,-3.309072 -2.02054,-4.480347 -1.34697,-1.229838 -3.01577,-1.844849 -5.00693,-1.844849 z M 61.303755,58.938519 v 50.511131 c 0,4.86079 1.347166,8.63819 4.041097,11.33212 2.752495,2.63537 6.559185,3.95325 11.419975,3.95325 2.342549,0 4.538498,-0.38072 6.588228,-1.14205 l -0.527099,-8.78448 c -1.171275,0.58564 -2.488637,0.8785 -3.952731,0.8785 -4.392279,0 -6.588745,-2.34289 -6.588745,-7.02799 V 58.938519 Z m 280.253695,0 v 65.181551 h 10.98072 v -23.71845 c 0,-4.567969 1.17145,-8.052511 3.514,-10.453624 2.34255,-2.459676 5.53423,-3.689697 9.57513,-3.689697 3.57239,0 6.32477,1.054303 8.25738,3.162598 1.9326,2.04973 2.89904,5.124265 2.89904,9.223726 v 25.475447 h 10.98021 V 97.239024 c 0,-6.793393 -1.78594,-11.917445 -5.35833,-15.372705 -3.57239,-3.45526 -8.31623,-5.183146 -14.23117,-5.183146 -3.27957,0 -6.26625,0.527151 -8.96018,1.581299 -2.63536,0.995583 -4.8606,2.459893 -6.67608,4.392496 V 58.938519 Z M 28.901082,61.749717 c -5.739246,0 -10.570436,0.820014 -14.494206,2.459799 -3.92377,1.58122 -6.8816765,3.718596 -8.8728434,6.412528 -1.9326031,2.635368 -2.8985311,5.592758 -2.8985311,8.872327 0,2.869623 0.6735827,5.475578 2.0205485,7.818127 1.4055296,2.283986 3.3086161,4.070444 5.709729,5.358846 C 7.2033376,93.842619 4.6852408,95.687133 2.8112014,98.205373 0.93716202,100.72361 3.4892612e-6,103.681 3.4892612e-6,107.0777 c 0,3.51382 1.0543033107388,6.61816 3.1625976107388,9.31209 2.1082944,2.69393 5.2121152,4.80202 9.3115759,6.32468 4.158025,1.52266 9.194219,2.2841 15.109156,2.2841 5.036481,0 9.721756,-0.58572 14.055473,-1.757 4.333716,-1.17127 7.87683,-2.84059 10.629325,-5.00745 l -3.689697,-8.78447 c -2.459677,1.87404 -5.534212,3.33835 -9.223727,4.39249 -3.630951,1.05415 -7.379068,1.5813 -11.244275,1.5813 -5.563554,0 -9.721678,-0.82001 -12.474174,-2.45979 -2.752495,-1.63979 -4.12843,-3.86554 -4.12843,-6.6766 0,-2.81106 1.142162,-4.91915 3.426148,-6.324678 2.283985,-1.464093 5.504951,-2.196248 9.662976,-2.196248 H 41.463106 V 88.278847 H 25.211901 c -3.630951,0 -6.383854,-0.673582 -8.257894,-2.020548 -1.874039,-1.40553 -2.810681,-3.425761 -2.810681,-6.061129 0,-2.693931 1.25879,-4.831308 3.777031,-6.412528 2.576804,-1.639785 6.383494,-2.459798 11.419974,-2.459798 6.383447,0 12.151796,1.346648 17.305404,4.04058 l 3.250448,-9.048027 C 47.143687,64.911868 43.922722,63.799509 40.233207,62.979616 36.543692,62.159724 32.766288,61.749717 28.901082,61.749717 Z m 93.355538,0 c -4.21658,0 -7.93542,0.790728 -11.15642,2.371949 -3.22101,1.522657 -5.76891,3.718605 -7.64295,6.588228 V 62.628217 H 92.389196 V 124.12007 H 103.80865 V 87.488198 c 0,-5.270736 1.37646,-9.19457 4.12895,-11.771374 2.81106,-2.635368 6.52989,-3.952731 11.15643,-3.952731 4.09946,0 7.32042,1.229504 9.66297,3.689181 2.40112,2.459676 3.60185,6.149221 3.60185,11.068575 v 37.598221 h 11.41997 V 87.488198 c 0,-5.329299 1.34665,-9.28242 4.04058,-11.859224 2.7525,-2.576805 6.41276,-3.864881 10.98073,-3.864881 4.09946,0 7.40829,1.25879 9.92653,3.777031 2.5768,2.459676 3.86539,6.119935 3.86539,10.980725 v 37.598221 h 11.41998 V 86.082599 c 0,-7.84754 -2.02075,-13.850178 -6.06165,-18.008203 -4.0409,-4.216589 -9.66281,-6.324679 -16.86615,-6.324679 -4.33372,0 -8.28684,0.820014 -11.85923,2.459799 -3.51382,1.639784 -6.29549,3.952877 -8.34522,6.939628 -1.63979,-2.986751 -4.07003,-5.299844 -7.29103,-6.939628 -3.22101,-1.639785 -6.99841,-2.459799 -11.33213,-2.459799 z m 129.72283,14.933456 c -3.45526,0 -6.55908,0.556438 -9.31157,1.669149 -2.7525,1.11271 -5.0363,2.752738 -6.85178,4.919596 v -6.061646 h -10.45362 v 46.909798 h 10.98072 v -23.71845 c 0,-4.567969 1.17145,-8.052511 3.514,-10.453624 2.34255,-2.459676 5.53423,-3.689697 9.57512,-3.689697 3.57239,0 6.32478,1.054303 8.25738,3.162598 1.9326,2.04973 2.89905,5.124265 2.89905,9.223726 v 25.475447 h 10.98072 V 97.239024 c 0,-6.793393 -1.78645,-11.917445 -5.35884,-15.372705 -3.57239,-3.45526 -8.31624,-5.183146 -14.23118,-5.183146 z m 54.80338,0 c -4.62654,0 -8.78466,1.025017 -12.47418,3.074748 -3.63095,2.04973 -6.50048,4.919261 -8.60877,8.608776 -2.04973,3.630952 -3.07475,7.730503 -3.07475,12.298473 0,4.62654 1.0543,8.78466 3.1626,12.47418 2.16686,3.63095 5.2121,6.47119 9.13587,8.52092 3.92377,2.04973 8.46262,3.07475 13.61623,3.07475 4.04089,0 7.67187,-0.6443 10.89287,-1.9327 3.22101,-1.2884 5.85625,-3.192 7.90598,-5.71024 l -5.79758,-6.76393 c -3.3967,3.39669 -7.64268,5.09529 -12.73772,5.09529 -3.45526,0 -6.41265,-0.70287 -8.87233,-2.10839 -2.45968,-1.40553 -4.24614,-3.45557 -5.35885,-6.1495 l 35.92908,-7.02748 c 0,-4.74366 -1.05431,-8.872498 -3.1626,-12.386322 -2.10829,-3.572388 -4.97783,-6.295488 -8.60878,-8.169527 -3.57239,-1.932603 -7.55479,-2.899048 -11.94707,-2.899048 z m -107.32265,0.527099 v 46.909798 h 10.98073 V 77.210272 Z m 202.43467,0 v 26.793198 c 0,6.85196 1.78646,12.03458 5.35885,15.5484 3.63095,3.45526 8.57928,5.18315 14.8456,5.18315 3.04532,0 5.88556,-0.55644 8.52093,-1.66915 2.63537,-1.17127 4.83183,-2.8113 6.58875,-4.91959 v 5.97379 H 447.6626 V 77.210272 h -10.98072 v 23.718448 c 0,4.56797 -1.17145,8.0818 -3.514,10.54148 -2.28399,2.40111 -5.38781,3.60184 -9.31158,3.60184 -3.51382,0 -6.23692,-1.02501 -8.16952,-3.07474 -1.87404,-2.1083 -2.8112,-5.27069 -2.8112,-9.48728 V 77.210272 Z m 60.3374,0 v 24.069848 c 0,6.91052 1.78646,12.09315 5.35885,15.54841 3.63095,3.45526 8.57929,5.18314 14.84561,5.18314 2.92818,0 5.6518,-0.49786 8.17004,-1.49345 2.51824,-1.05414 4.65562,-2.54722 6.41253,-4.47983 v 2.19573 c 0,4.80223 -1.14216,8.34534 -3.42615,10.62933 -2.22542,2.34255 -5.73925,3.514 -10.54147,3.514 -3.16245,0 -6.17841,-0.49787 -9.04803,-1.49345 -2.86962,-0.99558 -5.29986,-2.34223 -7.29103,-4.04058 l -4.9196,8.25738 c 2.51825,2.16685 5.71044,3.80636 9.57565,4.91908 3.92377,1.17127 8.0228,1.75699 12.29796,1.75699 16.22215,0 24.33339,-8.25767 24.33339,-24.77264 V 77.210272 h -10.98072 v 21.082951 c 0,4.567967 -1.17145,8.052517 -3.514,10.453627 -2.28398,2.40111 -5.38781,3.60185 -9.31158,3.60185 -3.51382,0 -6.23692,-1.02502 -8.16952,-3.07475 -1.87404,-2.1083 -2.8112,-5.2414 -2.8112,-9.399428 V 77.210272 Z M 306.78283,85.46765 c 3.27957,0 6.06124,0.878586 8.34523,2.635498 2.34254,1.756912 3.89471,4.070522 4.65604,6.940144 l -26.52965,5.094778 v -0.0879 c 0,-4.450842 1.23003,-7.993956 3.6897,-10.629323 2.51824,-2.635368 5.79778,-3.953247 9.83868,-3.953247 z"
         style="font-weight:bold;font-size:87.8456px;line-height:1;font-family:'Montserrat Alternates';-inkscape-font-specification:'Montserrat Alternates Bold';text-align:center;letter-spacing:0.514721px;text-anchor:middle;fill:#ffffff;stroke-width:5.14721;stroke-linecap:round;stroke-linejoin:round"
         id="path1" /><text
         xml:space="preserve"
         style="font-style:normal;font-variant:normal;font-weight:bold;font-stretch:normal;font-size:87.8456px;line-height:1;font-family:'Montserrat Alternates';-inkscape-font-specification:'Montserrat Alternates Bold';text-align:center;letter-spacing:0.514721px;writing-mode:lr-tb;direction:ltr;text-anchor:middle;opacity:0.3;fill:#000000;stroke-width:5.14721;stroke-linecap:round;stroke-linejoin:round"
         x="255.88249"
         y="217.25723"
         id="text45"><tspan
           sodipodi:role="line"
           style="font-style:normal;font-variant:normal;font-weight:normal;font-stretch:normal;line-height:1;font-family:'Montserrat Alternates';-inkscape-font-specification:'Montserrat Alternates';text-align:center;text-anchor:middle;fill:#000000;stroke-width:5.14721"
           x="256.13986"
           y="217.25723"
           id="tspan45">.github.io</tspan></text><path
         d="m 139.29848,146.78432 c -1.2884,0 -2.37199,0.43929 -3.25045,1.31775 -0.87846,0.87846 -1.31775,1.90296 -1.31775,3.07423 0,1.22984 0.43929,2.28414 1.31775,3.1626 0.87846,0.87845 1.96205,1.31775 3.25045,1.31775 1.2884,0 2.37199,-0.4393 3.25045,-1.31775 0.87845,-0.87846 1.31723,-1.96205 1.31723,-3.25045 0,-1.17127 -0.43878,-2.16649 -1.31723,-2.98638 -0.87846,-0.87846 -1.96205,-1.31775 -3.25045,-1.31775 z m 55.58162,0 v 65.18103 h 6.23683 v -24.24503 c 0,-5.21217 1.43502,-9.28243 4.30464,-12.21062 2.92819,-2.98675 6.88131,-4.48035 11.85923,-4.48035 4.45084,0 7.87681,1.25931 10.27792,3.77755 2.40112,2.51824 3.60133,6.1785 3.60133,10.98072 v 26.17773 h 6.23735 v -26.79268 c 0,-6.44201 -1.72789,-11.33228 -5.18315,-14.67042 -3.39669,-3.39669 -7.99411,-5.09478 -13.79192,-5.09478 -3.86521,0 -7.29118,0.73216 -10.27793,2.19625 -2.98675,1.46409 -5.32913,3.5429 -7.02747,6.23683 v -27.05623 z m 119.62112,0 v 65.18103 h 5.97328 v -9.13587 c 1.87404,3.10388 4.33356,5.47606 7.37888,7.11584 3.10387,1.63979 6.58842,2.45928 10.45362,2.45928 4.33372,0 8.25755,-0.99521 11.77138,-2.98638 3.51382,-1.99116 6.26621,-4.77335 8.25737,-8.34574 1.99117,-3.57239 2.9869,-7.64214 2.9869,-12.21011 0,-4.56797 -0.99573,-8.63823 -2.9869,-12.21062 -1.99116,-3.57239 -4.74355,-6.32478 -8.25737,-8.25738 -3.51383,-1.99117 -7.43766,-2.9869 -11.77138,-2.9869 -3.74808,0 -7.14476,0.79073 -10.19007,2.37195 -2.98675,1.52266 -5.44628,3.77718 -7.37888,6.76393 v -27.75903 z m 81.05655,0 c -1.2884,0 -2.37199,0.43929 -3.25045,1.31775 -0.87845,0.87846 -1.31775,1.90296 -1.31775,3.07423 0,1.22984 0.4393,2.28414 1.31775,3.1626 0.87846,0.87845 1.96205,1.31775 3.25045,1.31775 1.2884,0 2.37199,-0.4393 3.25045,-1.31775 0.87845,-0.87846 1.31723,-1.96205 1.31723,-3.25045 0,-1.17127 -0.43878,-2.16649 -1.31723,-2.98638 -0.87846,-0.87846 -1.96205,-1.31775 -3.25045,-1.31775 z m -235.71584,8.87233 v 43.30795 c 0,4.27515 1.17144,7.58397 3.51399,9.92652 2.34255,2.34255 5.68066,3.51348 10.01438,3.51348 1.87404,0 3.65998,-0.26357 5.35833,-0.79065 1.69835,-0.58563 3.13337,-1.40513 4.30465,-2.45928 l -2.19625,-4.48034 c -1.75691,1.58122 -4.04124,2.37195 -6.8523,2.37195 -2.5768,0 -4.53846,-0.70287 -5.88543,-2.1084 -1.34696,-1.4641 -2.02054,-3.57219 -2.02054,-6.32468 v -27.58385 h 13.96762 v -5.27048 h -13.96762 v -10.10222 z m -65.947399,9.75082 c -4.39228,0 -8.345401,0.93716 -11.859225,2.8112 -3.513824,1.87404 -6.295496,4.50928 -8.345227,7.90598 -1.991167,3.39669 -2.986898,7.26196 -2.986898,11.59567 0,4.33372 0.995731,8.22827 2.986898,11.68353 2.049731,3.39669 4.831403,6.06122 8.345227,7.99382 3.572388,1.87404 7.525509,2.8112 11.859225,2.8112 3.806642,0 7.261899,-0.76144 10.365779,-2.2841 3.16244,-1.52265 5.70982,-3.7484 7.64242,-6.67659 v 5.88594 c 0,5.73925 -1.37593,9.95595 -4.12843,12.64988 -2.75249,2.75249 -7.05705,4.12843 -12.91342,4.12843 -3.513824,0 -6.881221,-0.55644 -10.102226,-1.66915 -3.162441,-1.11271 -5.856255,-2.66436 -8.081677,-4.65553 l -3.162598,4.74338 c 2.401113,2.22542 5.504934,3.95331 9.311577,5.18315 3.865206,1.2884 7.935471,1.93269 12.210624,1.93269 7.73041,0 13.49876,-1.9036 17.3054,-5.71024 3.86521,-3.74808 5.7981,-9.54571 5.7981,-17.39325 v -40.58461 h -5.9738 v 8.87233 c -1.9326,-2.98675 -4.47998,-5.27056 -7.64242,-6.85178 -3.16245,-1.58122 -6.705559,-2.37195 -10.629329,-2.37195 z m 341.532639,0 c -4.45084,0 -8.46253,0.99573 -12.03492,2.9869 -3.57239,1.99117 -6.38335,4.77284 -8.43308,8.34523 -2.04973,3.57239 -3.07475,7.61336 -3.07475,12.12277 0,4.50941 1.02502,8.54987 3.07475,12.12226 2.04973,3.57239 4.86069,6.38386 8.43308,8.43359 3.57239,1.99117 7.58408,2.98638 12.03492,2.98638 4.45085,0 8.46254,-0.99521 12.03493,-2.98638 3.57238,-2.04973 6.35406,-4.8612 8.34522,-8.43359 2.04973,-3.57239 3.07475,-7.61285 3.07475,-12.12226 0,-4.50941 -1.02502,-8.55038 -3.07475,-12.12277 -1.99116,-3.57239 -4.77284,-6.35406 -8.34522,-8.34523 -3.57239,-1.99117 -7.58408,-2.9869 -12.03493,-2.9869 z m -299.29129,0.3514 v 46.20648 h 6.23735 v -46.20648 z m 118.29097,0 v 26.79268 c 0,6.50058 1.72789,11.44943 5.18315,14.84612 3.51382,3.33814 8.28644,5.00693 14.3185,5.00693 3.68952,0 6.96906,-0.76092 9.83868,-2.28358 2.86962,-1.58122 5.12466,-3.77768 6.76444,-6.58874 v 8.43307 h 5.97328 v -46.20648 h -6.23683 v 24.24503 c 0,5.27074 -1.40573,9.39958 -4.21679,12.38633 -2.81106,2.92819 -6.64704,4.3925 -11.50783,4.3925 -4.45084,0 -7.87681,-1.25931 -10.27792,-3.77755 -2.40112,-2.51824 -3.60185,-6.20779 -3.60185,-11.06858 v -26.17773 z m 137.96832,0 v 46.20648 h 6.23735 v -46.20648 z m -297.88569,5.09478 c 3.396697,0 6.41266,0.73216 9.04803,2.19625 2.69393,1.40553 4.77273,3.39699 6.23683,5.9738 1.52265,2.51824 2.28409,5.41705 2.28409,8.69662 0,3.27957 -0.76144,6.20768 -2.28409,8.78448 -1.4641,2.5768 -3.5429,4.59704 -6.23683,6.06113 -2.69393,1.40553 -5.709897,2.1084 -9.04803,2.1084 -3.338132,0 -6.354095,-0.70287 -9.048026,-2.1084 -2.635368,-1.46409 -4.714689,-3.48433 -6.237346,-6.06113 -1.464093,-2.5768 -2.195731,-5.50491 -2.195731,-8.78448 0,-3.27957 0.731638,-6.20767 2.195731,-8.78447 1.522657,-2.57681 3.601978,-4.56827 6.237346,-5.9738 2.693931,-1.40553 5.709894,-2.1084 9.048026,-2.1084 z m 243.35827,0 c 3.22101,0 6.14911,0.76144 8.78448,2.2841 2.63537,1.46409 4.6854,3.5727 6.14949,6.3252 1.52266,2.75249 2.2841,5.8856 2.2841,9.39942 0,3.51383 -0.76144,6.64693 -2.2841,9.39943 -1.46409,2.75249 -3.51412,4.88987 -6.14949,6.41253 -2.63537,1.46409 -5.56347,2.19625 -8.78448,2.19625 -3.27957,0 -6.23696,-0.73216 -8.87232,-2.19625 -2.57681,-1.52266 -4.62633,-3.66004 -6.14898,-6.41253 -1.4641,-2.7525 -2.19625,-5.8856 -2.19625,-9.39943 0,-3.51382 0.73215,-6.64693 2.19625,-9.39942 1.52265,-2.7525 3.57217,-4.86111 6.14898,-6.3252 2.63536,-1.52266 5.59275,-2.2841 8.87232,-2.2841 z m 97.55942,0 c 3.27957,0 6.20767,0.76144 8.78448,2.2841 2.63537,1.46409 4.6854,3.5727 6.14949,6.3252 1.4641,2.75249 2.19574,5.8856 2.19574,9.39942 0,3.51383 -0.73164,6.64693 -2.19574,9.39943 -1.46409,2.75249 -3.51412,4.88987 -6.14949,6.41253 -2.57681,1.46409 -5.50491,2.19625 -8.78448,2.19625 -3.27957,0 -6.23696,-0.73216 -8.87232,-2.19625 -2.57681,-1.52266 -4.62684,-3.66004 -6.1495,-6.41253 -1.46409,-2.7525 -2.19573,-5.8856 -2.19573,-9.39943 0,-3.51382 0.73164,-6.64693 2.19573,-9.39942 1.52266,-2.7525 3.57269,-4.86111 6.1495,-6.3252 2.63536,-1.52266 5.59275,-2.2841 8.87232,-2.2841 z M 58.15356,202.82948 c -1.288402,0 -2.400761,0.46858 -3.337781,1.4056 -0.878456,0.87845 -1.317749,1.99133 -1.317749,3.33829 0,1.34697 0.439293,2.48862 1.317749,3.42564 0.93702,0.93702 2.049379,1.40559 3.337781,1.40559 1.288402,0 2.401278,-0.46857 3.338297,-1.40559 0.93702,-0.93702 1.405599,-2.07867 1.405599,-3.42564 0,-1.34696 -0.468579,-2.45984 -1.405599,-3.33829 -0.937019,-0.93702 -2.049895,-1.4056 -3.338297,-1.4056 z m 315.71871,0 c -1.2884,0 -2.40127,0.46858 -3.33829,1.4056 -0.87846,0.87845 -1.31775,1.99133 -1.31775,3.33829 0,1.34697 0.43929,2.48862 1.31775,3.42564 0.93702,0.93702 2.04989,1.40559 3.33829,1.40559 1.28841,0 2.40128,-0.46857 3.3383,-1.40559 0.93702,-0.93702 1.40508,-2.07867 1.40508,-3.42564 0,-1.34696 -0.46806,-2.45984 -1.40508,-3.33829 -0.93702,-0.93702 -2.04989,-1.4056 -3.3383,-1.4056 z"
         style="font-weight:bold;font-size:87.8456px;line-height:1;font-family:'Montserrat Alternates';-inkscape-font-specification:'Montserrat Alternates Bold';text-align:center;letter-spacing:0.514721px;text-anchor:middle;fill:#ffffff;stroke-width:5.14721;stroke-linecap:round;stroke-linejoin:round"
         id="path4" /></g></g><style
     type="text/css"
     id="style2019">
	.st0{fill:#1D9BF0;}
</style></svg>
