<?xml version="1.0" encoding="UTF-8" standalone="no"?>
<!-- Created with Inkscape (http://www.inkscape.org/) -->

<svg
   width="1920"
   height="1080"
   viewBox="0 0 508 285.75"
   version="1.1"
   id="svg5"
   inkscape:version="1.4 (86a8ad7, 2024-10-11)"
   sodipodi:docname="BlogLogo2.svg"
   inkscape:export-filename="Website_Logo_3.png"
   inkscape:export-xdpi="96"
   inkscape:export-ydpi="96"
   xml:space="preserve"
   xmlns:inkscape="http://www.inkscape.org/namespaces/inkscape"
   xmlns:sodipodi="http://sodipodi.sourceforge.net/DTD/sodipodi-0.dtd"
   xmlns="http://www.w3.org/2000/svg"
   xmlns:svg="http://www.w3.org/2000/svg"><sodipodi:namedview
     id="namedview7"
     pagecolor="#505050"
     bordercolor="#eeeeee"
     borderopacity="1"
     inkscape:showpageshadow="0"
     inkscape:pageopacity="0"
     inkscape:pagecheckerboard="0"
     inkscape:deskcolor="#505050"
     inkscape:document-units="mm"
     showgrid="false"
     inkscape:zoom="0.35355339"
     inkscape:cx="1036.6185"
     inkscape:cy="503.46003"
     inkscape:window-width="1920"
     inkscape:window-height="991"
     inkscape:window-x="-9"
     inkscape:window-y="-9"
     inkscape:window-maximized="1"
     inkscape:current-layer="layer1" /><defs
     id="defs2"><rect
       x="-361.57724"
       y="1139.4725"
       width="105.15991"
       height="649.6866"
       id="rect71" /></defs><g
     inkscape:label="Capa 1"
     inkscape:groupmode="layer"
     id="layer1"><text
       xml:space="preserve"
       style="font-style:normal;font-variant:normal;font-weight:bold;font-stretch:normal;font-size:96px;line-height:1;font-family:Arial;-inkscape-font-specification:'Arial Bold';font-variant-ligatures:normal;font-variant-position:normal;font-variant-caps:normal;font-variant-numeric:normal;font-variant-alternates:normal;font-variant-east-asian:normal;font-feature-settings:normal;font-variation-settings:normal;text-indent:0;text-align:center;text-decoration-line:none;text-decoration-style:solid;text-decoration-color:#000000;letter-spacing:normal;word-spacing:normal;text-transform:none;writing-mode:lr-tb;direction:ltr;text-orientation:mixed;dominant-baseline:auto;baseline-shift:baseline;text-anchor:middle;white-space:normal;shape-padding:0;shape-margin:0;inline-size:0;opacity:1;vector-effect:none;fill:#ffffff;fill-opacity:1;stroke-width:0.999999;stroke-linecap:butt;stroke-linejoin:miter;stroke-miterlimit:4;stroke-dasharray:none;stroke-dashoffset:0;stroke-opacity:1;-inkscape-stroke:none;stop-color:#000000;stop-opacity:1"
       x="762.90344"
       y="535.79431"
       id="text236"
       transform="matrix(0.8827475,0,0,0.8827475,-419.40877,-607.85818)"><tspan
         sodipodi:role="line"
         x="762.90344"
         y="535.79431"
         style="font-style:italic;font-variant:normal;font-weight:normal;font-stretch:normal;font-family:'Times New Roman';-inkscape-font-specification:'Times New Roman,  Italic';text-align:center;text-anchor:middle;fill:#ffffff"
         id="tspan288"><tspan
           id="tspan292"
           style="font-style:normal;font-variant:normal;font-weight:bold;font-stretch:normal;font-family:'Minecraft Ten v2';-inkscape-font-specification:'Minecraft Ten v2 Bold';text-align:center;text-anchor:middle;fill:#ffffff">elminehuy</tspan></tspan><tspan
         sodipodi:role="line"
         x="762.90344"
         y="634.26672"
         style="font-style:italic;font-variant:normal;font-weight:normal;font-stretch:normal;font-family:'Times New Roman';-inkscape-font-specification:'Times New Roman,  Italic';text-align:center;text-anchor:middle;fill:#ffffff"
         id="tspan295">.github.io</tspan></text><text
       xml:space="preserve"
       style="font-style:normal;font-variant:normal;font-weight:normal;font-stretch:normal;font-size:65.5897px;line-height:0;font-family:'Minecraft Ten v2';-inkscape-font-specification:'Minecraft Ten v2';text-align:center;text-anchor:middle;fill:#ffffff;fill-opacity:1;stroke:none;stroke-width:7.9375;stroke-linecap:round;stroke-linejoin:miter;stroke-dasharray:none;stroke-opacity:1"
       x="-1170.0846"
       y="421.07123"
       id="text1818"><tspan
         sodipodi:role="line"
         id="tspan1816"
         style="font-size:65.5897px;stroke-width:7.9375"
         x="-1170.0846"
         y="421.07123"><tspan
   style="font-size:50.8px"
   id="tspan1820">el</tspan>m<tspan
   style="font-size:100.867px"
   id="tspan1830">i<tspan
   style="font-size:136.145px"
   id="tspan1838">n</tspan><tspan
   style="font-size:171.423px"
   id="tspan1834">e</tspan>h</tspan>u<tspan
   style="font-size:50.8px"
   id="tspan1828">y</tspan></tspan></text><text
       xml:space="preserve"
       style="font-style:normal;font-variant:normal;font-weight:normal;font-stretch:normal;font-size:71.6037px;line-height:0;font-family:'Minecraft Ten v2';-inkscape-font-specification:'Minecraft Ten v2';text-align:center;text-anchor:middle;fill:#ffffff;fill-opacity:1;stroke:none;stroke-width:8.6653;stroke-linecap:round;stroke-linejoin:miter;stroke-dasharray:none;stroke-opacity:1"
       x="-509.4747"
       y="330.81335"
       id="text1854"><tspan
         sodipodi:role="line"
         id="tspan1852"
         style="font-size:71.6037px;stroke-width:8.6653"
         x="-509.4747"
         y="330.81335"><tspan
   style="font-size:55.4579px;stroke-width:8.6653"
   id="tspan1842">el</tspan>m<tspan
   style="font-size:110.115px;stroke-width:8.6653"
   id="tspan1848">i<tspan
   style="font-size:148.628px;stroke-width:8.6653"
   id="tspan1844">n</tspan><tspan
   style="font-size:187.141px;stroke-width:8.6653"
   id="tspan1846">e</tspan>h</tspan>u<tspan
   style="font-size:55.4579px;stroke-width:8.6653"
   id="tspan1850">y</tspan></tspan></text><text
       xml:space="preserve"
       style="font-style:normal;font-variant:normal;font-weight:normal;font-stretch:normal;font-size:21.2639px;line-height:0;font-family:'Century Gothic';-inkscape-font-specification:'Century Gothic';text-align:center;text-anchor:middle;fill:#ffffff;fill-opacity:1;stroke:none;stroke-width:3.32245;stroke-linecap:round;stroke-linejoin:miter;stroke-dasharray:none;stroke-opacity:1"
       x="-472.39813"
       y="379.56848"
       id="text1983"><tspan
         sodipodi:role="line"
         id="tspan1981"
         style="font-style:normal;font-variant:normal;font-weight:normal;font-stretch:normal;font-family:'Century Gothic';-inkscape-font-specification:'Century Gothic';stroke-width:3.32245"
         x="-472.39813"
         y="379.56848">/ELMINEHUY</tspan></text><rect
       style="fill:#ffffff;fill-opacity:1;stroke:none;stroke-width:5.306;stroke-linecap:round;stroke-linejoin:miter;stroke-dasharray:none;stroke-opacity:1"
       id="rect1987"
       width="462.14172"
       height="3.316442"
       x="-740.4754"
       y="345.63629" /><path
       style="fill:#000000;fill-opacity:1;stroke:none;stroke-width:7.96088;stroke-linecap:round;stroke-linejoin:miter;stroke-dasharray:none;stroke-opacity:1"
       d="m -1422.6227,608.75568 h 516.20656 V 559.48792 L -1055.43,462.08498 h -106.2778 l -260.9149,100.23443 z"
       id="path1993" /><rect
       style="fill:#000000;fill-opacity:1;stroke:none;stroke-width:8.09285;stroke-linecap:round;stroke-linejoin:miter;stroke-dasharray:none;stroke-opacity:1"
       id="rect1995"
       width="42.618275"
       height="34.052425"
       x="-1261.2178"
       y="493.89893" /><text
       xml:space="preserve"
       style="font-style:normal;font-variant:normal;font-weight:normal;font-stretch:normal;font-size:72.7604px;line-height:0;font-family:'Minecraft Ten v2';-inkscape-font-specification:'Minecraft Ten v2';text-align:center;text-anchor:middle;fill:#ffffff;fill-opacity:1;stroke:none;stroke-width:8.80528;stroke-linecap:round;stroke-linejoin:miter;stroke-dasharray:none;stroke-opacity:1"
       x="-1164.4912"
       y="604.25452"
       id="text2009"><tspan
         sodipodi:role="line"
         id="tspan2007"
         style="font-size:72.7604px;stroke-width:8.80528"
         x="-1164.4912"
         y="604.25452"><tspan
   style="font-size:56.3538px;stroke-width:8.80528"
   id="tspan1997">el</tspan>m<tspan
   style="font-size:111.894px;stroke-width:8.80528"
   id="tspan2003">i<tspan
   style="font-size:151.029px;stroke-width:8.80528"
   id="tspan1999">n</tspan><tspan
   style="font-size:190.164px;stroke-width:8.80528"
   id="tspan2001">e</tspan>h</tspan>u<tspan
   style="font-size:56.3538px;stroke-width:8.80528"
   id="tspan2005">y</tspan></tspan></text><text
       xml:space="preserve"
       style="font-style:normal;font-variant:normal;font-weight:normal;font-stretch:normal;font-size:63.6591px;line-height:0;font-family:'Minecraft Five v2';-inkscape-font-specification:'Minecraft Five v2';text-align:center;text-anchor:middle;fill:#ffffff;fill-opacity:1;stroke:none;stroke-width:9.94672;stroke-linecap:round;stroke-linejoin:miter;stroke-dasharray:none;stroke-opacity:1"
       x="-1164.5194"
       y="698.22266"
       id="text2013"><tspan
         sodipodi:role="line"
         id="tspan2011"
         style="font-style:normal;font-variant:normal;font-weight:normal;font-stretch:normal;font-family:'Minecraft Five v2';-inkscape-font-specification:'Minecraft Five v2';stroke-width:9.94672"
         x="-1164.5194"
         y="698.22266">/elminehuy</tspan></text><rect
       style="fill:#ffffff;fill-opacity:1;stroke:none;stroke-width:5.39172;stroke-linecap:round;stroke-linejoin:miter;stroke-dasharray:none;stroke-opacity:1"
       id="rect2015"
       width="469.60742"
       height="3.3700178"
       x="-1399.2236"
       y="619.31696" /><g
       id="Logo_1_"
       transform="matrix(0.08866263,0,0,0.08866266,-558.64213,363.77863)">
	<path
   id="white_background"
   class="st0"
   d="m 221.95,51.29 c 0.15,2.17 0.15,4.34 0.15,6.53 0,66.73 -50.8,143.69 -143.69,143.69 v -0.04 C 50.97,201.51 24.1,193.65 1,178.83 c 3.99,0.48 8,0.72 12.02,0.73 22.74,0.02 44.83,-7.61 62.72,-21.66 -21.61,-0.41 -40.56,-14.5 -47.18,-35.07 7.57,1.46 15.37,1.16 22.8,-0.87 C 27.8,117.2 10.85,96.5 10.85,72.46 c 0,-0.22 0,-0.43 0,-0.64 7.02,3.91 14.88,6.08 22.92,6.32 C 11.58,63.31 4.74,33.79 18.14,10.71 c 25.64,31.55 63.47,50.73 104.08,52.76 -4.07,-17.54 1.49,-35.92 14.61,-48.25 20.34,-19.12 52.33,-18.14 71.45,2.19 11.31,-2.23 22.15,-6.38 32.07,-12.26 -3.77,11.69 -11.66,21.62 -22.2,27.93 10.01,-1.18 19.79,-3.86 29,-7.95 -6.78,10.16 -15.32,19.01 -25.2,26.16 z" />
</g><g
       style="fill:none"
       id="g2040"
       transform="matrix(0.03545899,0,0,0.035459,-604.54329,354.23336)"><path
         d="m 650.96239,306.59986 c 65.12,48.888 135.16,148.017 160.879,201.209 25.719,-53.192 95.759,-152.321 160.879,-201.209 46.98701,-35.276 123.12101,-62.57 123.12101,24.282 0,17.346 -9.945,145.713 -15.778,166.555 -20.275,72.453 -94.15501,90.933 -159.87501,79.748 114.87501,19.551 144.09701,84.311 80.98601,149.071 -119.86001,122.992 -172.27201,-30.859 -185.70201,-70.281 -2.462,-7.227 -3.614,-10.608 -3.631,-7.733 -0.017,-2.875 -1.169,0.506 -3.631,7.733 -13.43,39.422 -65.842,193.273 -185.702,70.281 -63.111,-64.76 -33.889,-129.52 80.986,-149.071 -65.72,11.185 -139.6,-7.295 -159.875,-79.748 -5.833,-20.842 -15.778,-149.209 -15.778,-166.555 0,-86.852 76.134,-59.558 123.121,-24.282 z"
         fill="#1185fe"
         id="path2031" /></g><path
       d="m -607.42877,369.91328 h 4.38808 l -3.13694,-2.97374 1.72261,-1.74072 2.97374,3.02813 v -4.31555 h 2.57482 v 4.31555 l 2.97375,-3.02813 1.72259,1.74072 -3.13693,2.95562 h 4.38808 v 2.44789 h -4.40622 l 3.13694,3.02814 -1.7226,1.70446 -4.26115,-4.26115 -4.26115,4.27928 -1.72261,-1.72259 3.13696,-3.02814 h -4.40623 v -2.42977 z m 5.96563,5.92936 h 2.57482 v 5.80243 h -2.57482 z"
       id="path2112"
       style="fill:#43e660;fill-opacity:1;stroke-width:0.181326">
 </path><text
       xml:space="preserve"
       style="font-style:normal;font-variant:normal;font-weight:normal;font-stretch:normal;font-size:20.5886px;line-height:0;font-family:'Minecraft Five v2';-inkscape-font-specification:'Minecraft Five v2';text-align:center;text-anchor:middle;fill:#ffffff;fill-opacity:1;stroke:none;stroke-width:3.21696;stroke-linecap:round;stroke-linejoin:miter;stroke-dasharray:none;stroke-opacity:1"
       x="-740.18707"
       y="584.14178"
       id="text2329"><tspan
         sodipodi:role="line"
         id="tspan2327"
         style="font-style:normal;font-variant:normal;font-weight:normal;font-stretch:normal;font-family:'Minecraft Five v2';-inkscape-font-specification:'Minecraft Five v2';stroke-width:3.21696"
         x="-740.18707"
         y="584.14178">/elminehuy</tspan></text><g
       id="g2333"
       transform="matrix(0.07212819,0,0,0.07212819,-843.06325,569.60724)">
	<path
   id="path2331"
   class="st0"
   d="m 221.95,51.29 c 0.15,2.17 0.15,4.34 0.15,6.53 0,66.73 -50.8,143.69 -143.69,143.69 v -0.04 C 50.97,201.51 24.1,193.65 1,178.83 c 3.99,0.48 8,0.72 12.02,0.73 22.74,0.02 44.83,-7.61 62.72,-21.66 -21.61,-0.41 -40.56,-14.5 -47.18,-35.07 7.57,1.46 15.37,1.16 22.8,-0.87 C 27.8,117.2 10.85,96.5 10.85,72.46 c 0,-0.22 0,-0.43 0,-0.64 7.02,3.91 14.88,6.08 22.92,6.32 C 11.58,63.31 4.74,33.79 18.14,10.71 c 25.64,31.55 63.47,50.73 104.08,52.76 -4.07,-17.54 1.49,-35.92 14.61,-48.25 20.34,-19.12 52.33,-18.14 71.45,2.19 11.31,-2.23 22.15,-6.38 32.07,-12.26 -3.77,11.69 -11.66,21.62 -22.2,27.93 10.01,-1.18 19.79,-3.86 29,-7.95 -6.78,10.16 -15.32,19.01 -25.2,26.16 z" />
</g><g
       style="fill:none"
       id="g2337"
       transform="matrix(0.02884635,0,0,0.02884635,-877.50329,561.84203)"><path
         d="m 650.96239,306.59986 c 65.12,48.888 135.16,148.017 160.879,201.209 25.719,-53.192 95.759,-152.321 160.879,-201.209 46.98701,-35.276 123.12101,-62.57 123.12101,24.282 0,17.346 -9.945,145.713 -15.778,166.555 -20.275,72.453 -94.15501,90.933 -159.87501,79.748 114.87501,19.551 144.09701,84.311 80.98601,149.071 -119.86001,122.992 -172.27201,-30.859 -185.70201,-70.281 -2.462,-7.227 -3.614,-10.608 -3.631,-7.733 -0.017,-2.875 -1.169,0.506 -3.631,7.733 -13.43,39.422 -65.842,193.273 -185.702,70.281 -63.111,-64.76 -33.889,-129.52 80.986,-149.071 -65.72,11.185 -139.6,-7.295 -159.875,-79.748 -5.833,-20.842 -15.778,-149.209 -15.778,-166.555 0,-86.852 76.134,-59.558 123.121,-24.282 z"
         fill="#1185fe"
         id="path2335" /></g><path
       d="m -876.9495,574.59784 h 3.56976 l -2.55194,-2.41917 1.40136,-1.41611 2.41918,2.46343 v -3.51076 h 2.09465 v 3.51076 l 2.41918,-2.46343 1.40135,1.41611 -2.55193,2.40442 h 3.56976 v 1.9914 h -3.58452 l 2.55194,2.46343 -1.40135,1.3866 -3.46651,-3.4665 -3.4665,3.48125 -1.40136,-1.40135 2.55195,-2.46343 h -3.58452 v -1.97665 z m 4.85311,4.82361 h 2.09465 v 4.72034 h -2.09465 z"
       id="path2339"
       style="fill:#43e660;fill-opacity:1;stroke-width:0.147511">
 </path><path
       style="fill:#000000;fill-opacity:1;stroke:none;stroke-width:7.9375;stroke-linecap:round;stroke-linejoin:miter;stroke-dasharray:none;stroke-opacity:1"
       d="m -683.60672,477.09402 27.00697,-27.00698 h 316.76948 l -27.007,27.00698 z"
       id="path2520" /><text
       xml:space="preserve"
       style="font-style:normal;font-variant:normal;font-weight:normal;font-stretch:normal;font-size:24.3833px;line-height:0;font-family:'Minecraft Five v2';-inkscape-font-specification:'Minecraft Five v2';text-align:center;text-anchor:middle;fill:#ffffff;fill-opacity:1;stroke:none;stroke-width:3.80987;stroke-linecap:round;stroke-linejoin:miter;stroke-dasharray:none;stroke-opacity:1"
       x="-479.5864"
       y="472.29123"
       id="text2524"><tspan
         sodipodi:role="line"
         id="tspan2522"
         style="font-style:normal;font-variant:normal;font-weight:normal;font-stretch:normal;font-family:'Minecraft Five v2';-inkscape-font-specification:'Minecraft Five v2';stroke-width:3.80987"
         x="-479.5864"
         y="472.29123">/elminehuy</tspan></text><g
       id="g2528"
       transform="matrix(0.08542196,0,0,0.08542199,-601.42344,455.07782)">
	<path
   id="path2526"
   class="st0"
   d="m 221.95,51.29 c 0.15,2.17 0.15,4.34 0.15,6.53 0,66.73 -50.8,143.69 -143.69,143.69 v -0.04 C 50.97,201.51 24.1,193.65 1,178.83 c 3.99,0.48 8,0.72 12.02,0.73 22.74,0.02 44.83,-7.61 62.72,-21.66 -21.61,-0.41 -40.56,-14.5 -47.18,-35.07 7.57,1.46 15.37,1.16 22.8,-0.87 C 27.8,117.2 10.85,96.5 10.85,72.46 c 0,-0.22 0,-0.43 0,-0.64 7.02,3.91 14.88,6.08 22.92,6.32 C 11.58,63.31 4.74,33.79 18.14,10.71 c 25.64,31.55 63.47,50.73 104.08,52.76 -4.07,-17.54 1.49,-35.92 14.61,-48.25 20.34,-19.12 52.33,-18.14 71.45,2.19 11.31,-2.23 22.15,-6.38 32.07,-12.26 -3.77,11.69 -11.66,21.62 -22.2,27.93 10.01,-1.18 19.79,-3.86 29,-7.95 -6.78,10.16 -15.32,19.01 -25.2,26.16 z" />
</g><g
       style="fill:none"
       id="g2532"
       transform="matrix(0.03416295,0,0,0.03416296,-642.21104,445.88143)"><path
         d="m 650.96239,306.59986 c 65.12,48.888 135.16,148.017 160.879,201.209 25.719,-53.192 95.759,-152.321 160.879,-201.209 46.98701,-35.276 123.12101,-62.57 123.12101,24.282 0,17.346 -9.945,145.713 -15.778,166.555 -20.275,72.453 -94.15501,90.933 -159.87501,79.748 114.87501,19.551 144.09701,84.311 80.98601,149.071 -119.86001,122.992 -172.27201,-30.859 -185.70201,-70.281 -2.462,-7.227 -3.614,-10.608 -3.631,-7.733 -0.017,-2.875 -1.169,0.506 -3.631,7.733 -13.43,39.422 -65.842,193.273 -185.702,70.281 -63.111,-64.76 -33.889,-129.52 80.986,-149.071 -65.72,11.185 -139.6,-7.295 -159.875,-79.748 -5.833,-20.842 -15.778,-149.209 -15.778,-166.555 0,-86.852 76.134,-59.558 123.121,-24.282 z"
         fill="#1185fe"
         id="path2530" /></g><path
       d="m -641.55518,460.98823 h 4.22769 l -3.02228,-2.86504 1.65964,-1.67711 2.86506,2.91746 v -4.15782 h 2.48071 v 4.15782 l 2.86505,-2.91746 1.65963,1.67711 -3.02227,2.84758 h 4.22769 v 2.35842 h -4.24517 l 3.02228,2.91746 -1.65963,1.64216 -4.10541,-4.1054 -4.1054,4.12287 -1.65965,-1.65963 3.0223,-2.91746 h -4.24518 v -2.34096 z m 5.74758,5.71264 h 2.48071 v 5.59034 h -2.48071 z"
       id="path2534"
       style="fill:#43e660;fill-opacity:1;stroke-width:0.174698">
 </path><rect
       style="fill:#ff0000;fill-opacity:1;stroke:none;stroke-width:6.94927;stroke-linecap:round;stroke-linejoin:miter;stroke-dasharray:none;stroke-opacity:1"
       id="rect2542"
       width="4.1549349"
       height="20.661299"
       x="-764.84021"
       y="442.76215" /><path
       style="fill:#000000;fill-opacity:1;stroke:none;stroke-width:7.51249;stroke-linecap:round;stroke-linejoin:miter;stroke-dasharray:none;stroke-opacity:1"
       d="m -649.47746,539.94323 25.56086,-25.56086 h 254.38925 l -25.56089,25.56086 z"
       id="path2093"
       sodipodi:nodetypes="ccccc" /><text
       xml:space="preserve"
       style="font-style:normal;font-variant:normal;font-weight:normal;font-stretch:normal;font-size:21.2639px;line-height:0;font-family:'Century Gothic';-inkscape-font-specification:'Century Gothic';text-align:center;text-anchor:middle;fill:#ffffff;fill-opacity:1;stroke:none;stroke-width:3.32245;stroke-linecap:round;stroke-linejoin:miter;stroke-dasharray:none;stroke-opacity:1"
       x="-472.39813"
       y="533.93451"
       id="text2097"><tspan
         sodipodi:role="line"
         id="tspan2095"
         style="font-style:normal;font-variant:normal;font-weight:normal;font-stretch:normal;font-family:'Century Gothic';-inkscape-font-specification:'Century Gothic';stroke-width:3.32245"
         x="-472.39813"
         y="533.93451">/ELMINEHUY</tspan></text><g
       id="g2101"
       transform="matrix(0.08866263,0,0,0.08866266,-558.64213,518.14464)">
	<path
   id="path2099"
   class="st0"
   d="m 221.95,51.29 c 0.15,2.17 0.15,4.34 0.15,6.53 0,66.73 -50.8,143.69 -143.69,143.69 v -0.04 C 50.97,201.51 24.1,193.65 1,178.83 c 3.99,0.48 8,0.72 12.02,0.73 22.74,0.02 44.83,-7.61 62.72,-21.66 -21.61,-0.41 -40.56,-14.5 -47.18,-35.07 7.57,1.46 15.37,1.16 22.8,-0.87 C 27.8,117.2 10.85,96.5 10.85,72.46 c 0,-0.22 0,-0.43 0,-0.64 7.02,3.91 14.88,6.08 22.92,6.32 C 11.58,63.31 4.74,33.79 18.14,10.71 c 25.64,31.55 63.47,50.73 104.08,52.76 -4.07,-17.54 1.49,-35.92 14.61,-48.25 20.34,-19.12 52.33,-18.14 71.45,2.19 11.31,-2.23 22.15,-6.38 32.07,-12.26 -3.77,11.69 -11.66,21.62 -22.2,27.93 10.01,-1.18 19.79,-3.86 29,-7.95 -6.78,10.16 -15.32,19.01 -25.2,26.16 z" />
</g><g
       style="fill:none"
       id="g2105"
       transform="matrix(0.03545899,0,0,0.035459,-604.54329,508.59937)"><path
         d="m 650.96239,306.59986 c 65.12,48.888 135.16,148.017 160.879,201.209 25.719,-53.192 95.759,-152.321 160.879,-201.209 46.98701,-35.276 123.12101,-62.57 123.12101,24.282 0,17.346 -9.945,145.713 -15.778,166.555 -20.275,72.453 -94.15501,90.933 -159.87501,79.748 114.87501,19.551 144.09701,84.311 80.98601,149.071 -119.86001,122.992 -172.27201,-30.859 -185.70201,-70.281 -2.462,-7.227 -3.614,-10.608 -3.631,-7.733 -0.017,-2.875 -1.169,0.506 -3.631,7.733 -13.43,39.422 -65.842,193.273 -185.702,70.281 -63.111,-64.76 -33.889,-129.52 80.986,-149.071 -65.72,11.185 -139.6,-7.295 -159.875,-79.748 -5.833,-20.842 -15.778,-149.209 -15.778,-166.555 0,-86.852 76.134,-59.558 123.121,-24.282 z"
         fill="#1185fe"
         id="path2103" /></g><path
       d="m -607.42877,524.27929 h 4.38808 l -3.13694,-2.97374 1.72261,-1.74072 2.97374,3.02813 v -4.31555 h 2.57482 v 4.31555 l 2.97375,-3.02813 1.72259,1.74072 -3.13693,2.95562 h 4.38808 v 2.44789 h -4.40622 l 3.13694,3.02814 -1.7226,1.70446 -4.26115,-4.26115 -4.26115,4.27928 -1.72261,-1.72259 3.13696,-3.02814 h -4.40623 v -2.42977 z m 5.96563,5.92936 h 2.57482 v 5.80243 h -2.57482 z"
       id="path2107"
       style="fill:#43e660;fill-opacity:1;stroke-width:0.181326">
 </path><path
       d="m 449.62527,119.11685 v 17.0434 h 6.81767 v 17.04392 h 10.22625 v -17.04392 h 6.81715 v -17.0434 H 463.2601 v 10.22625 h -3.40858 v -10.22625 z"
       style="font-size:62.8737px;line-height:0;font-family:'Minecraft Ten v2';-inkscape-font-specification:'Minecraft Ten v2';text-align:center;text-anchor:middle;fill:#808080;stroke-width:7.60882;stroke-linecap:round"
       id="path24" /><path
       d="m 412.95257,119.11685 v 44.01178 h 30.80846 v -44.01178 h -13.20385 v 35.20922 h -4.40076 v -35.20922 z"
       style="font-size:62.8737px;line-height:0;font-family:'Minecraft Ten v2';-inkscape-font-specification:'Minecraft Ten v2';text-align:center;text-anchor:middle;fill:#808080;stroke-width:7.60882;stroke-linecap:round"
       id="path23" /><path
       d="m 357.18078,119.11684 v 67.6827 h 20.30471 v -27.07328 h 6.76857 v 27.07328 h 20.30471 v -67.6827 h -20.30471 v 27.07278 h -6.76857 v -27.07278 z"
       style="font-size:62.8737px;line-height:0;font-family:'Minecraft Ten v2';-inkscape-font-specification:'Minecraft Ten v2';text-align:center;text-anchor:middle;fill:#808080;stroke-width:7.60882;stroke-linecap:round"
       id="path22" /><path
       d="m 262.92452,119.11685 v 115.02764 h 80.51912 v -23.00583 h -46.01063 v -23.00531 h 34.50797 v -23.00532 h -34.50797 v -23.00585 h 46.01063 v -23.00533 z"
       style="font-size:62.8737px;line-height:0;font-family:'Minecraft Ten v2';-inkscape-font-specification:'Minecraft Ten v2';text-align:center;text-anchor:middle;fill:#808080;stroke-width:7.60882;stroke-linecap:round"
       id="path21" /><path
       d="m 174.37799,119.11685 v 91.35568 h 27.40711 v -36.54247 h 9.13536 v 18.27124 h 9.13536 v 18.27123 h 27.40711 v -91.35568 h -27.40711 v 36.54198 h -9.13536 v -18.27074 h -9.13536 v -18.27124 z"
       style="font-size:62.8737px;line-height:0;font-family:'Minecraft Ten v2';-inkscape-font-specification:'Minecraft Ten v2';text-align:center;text-anchor:middle;fill:#808080;stroke-width:7.60882;stroke-linecap:round"
       id="path20" /><path
       d="m 142.16238,119.11684 v 67.6827 h 20.30471 v -67.6827 z"
       style="font-size:62.8737px;line-height:0;font-family:'Minecraft Ten v2';-inkscape-font-specification:'Minecraft Ten v2';text-align:center;text-anchor:middle;fill:#808080;stroke-width:7.60882;stroke-linecap:round"
       id="path19" /><path
       d="m 89.790388,119.11685 v 44.01178 h 13.203842 v -17.60461 h 4.40077 v 8.80205 h 8.80256 v -8.80205 h 4.40128 v 17.60461 h 13.20333 v -44.01178 h -13.20333 v 8.80256 h -4.40128 v 8.80205 H 107.395 v -8.80205 h -4.40077 v -8.80256 z"
       style="font-size:62.8737px;line-height:0;font-family:'Minecraft Ten v2';-inkscape-font-specification:'Minecraft Ten v2';text-align:center;text-anchor:middle;fill:#808080;stroke-width:7.60882;stroke-linecap:round"
       id="path18" /><path
       d="m 63.487601,119.11685 v 34.08732 H 83.940099 V 146.3865 H 73.71385 v -27.26965 z"
       style="font-size:62.8737px;line-height:0;font-family:'Minecraft Ten v2';-inkscape-font-specification:'Minecraft Ten v2';text-align:center;text-anchor:middle;fill:#808080;stroke-width:7.60882;stroke-linecap:round"
       id="path17" /><path
       d="m 34.513659,119.11685 v 34.08732 H 58.374734 V 146.3865 H 44.739908 v -6.81767 h 10.226249 v -6.81715 H 44.739908 V 125.934 h 13.634826 v -6.81715 z"
       style="font-size:62.8737px;line-height:0;font-family:'Minecraft Ten v2';-inkscape-font-specification:'Minecraft Ten v2';text-align:center;text-anchor:middle;fill:#808080;stroke-width:7.60882;stroke-linecap:round"
       id="path16" /><path
       d="m 449.62527,115.41268 v 17.04341 h 6.81767 v 17.04392 h 10.22625 v -17.04392 h 6.81715 V 115.41268 H 463.2601 v 10.22625 h -3.40858 v -10.22625 z"
       style="font-size:62.8737px;line-height:0;font-family:'Minecraft Ten v2';-inkscape-font-specification:'Minecraft Ten v2';text-align:center;text-anchor:middle;fill:#000000;stroke-width:7.60882;stroke-linecap:round"
       id="path15" /><path
       d="m 412.95257,115.41268 v 44.01179 h 30.80846 v -44.01179 h -13.20385 v 35.20922 h -4.40076 v -35.20922 z"
       style="font-size:62.8737px;line-height:0;font-family:'Minecraft Ten v2';-inkscape-font-specification:'Minecraft Ten v2';text-align:center;text-anchor:middle;fill:#000000;stroke-width:7.60882;stroke-linecap:round"
       id="path14" /><path
       d="m 357.18078,115.41268 v 67.6827 h 20.30471 v -27.07329 h 6.76857 v 27.07329 h 20.30471 v -67.6827 h -20.30471 v 27.07277 h -6.76857 v -27.07277 z"
       style="font-size:62.8737px;line-height:0;font-family:'Minecraft Ten v2';-inkscape-font-specification:'Minecraft Ten v2';text-align:center;text-anchor:middle;fill:#000000;stroke-width:7.60882;stroke-linecap:round"
       id="path13" /><path
       d="m 262.92452,115.41269 v 115.02764 h 80.51912 V 207.4345 h -46.01063 v -23.00532 h 34.50797 v -23.00532 h -34.50797 v -23.00585 h 46.01063 v -23.00532 z"
       style="font-size:62.8737px;line-height:0;font-family:'Minecraft Ten v2';-inkscape-font-specification:'Minecraft Ten v2';text-align:center;text-anchor:middle;fill:#000000;stroke-width:7.60882;stroke-linecap:round"
       id="path12" /><path
       d="m 174.37799,115.41268 v 91.35569 H 201.7851 V 170.2259 h 9.13536 v 18.27123 h 9.13536 v 18.27124 h 27.40711 v -91.35569 h -27.40711 v 36.54249 h -9.13536 v -18.27124 h -9.13536 v -18.27125 z"
       style="font-size:62.8737px;line-height:0;font-family:'Minecraft Ten v2';-inkscape-font-specification:'Minecraft Ten v2';text-align:center;text-anchor:middle;fill:#000000;stroke-width:7.60882;stroke-linecap:round"
       id="path11" /><path
       d="m 142.16238,115.41268 v 67.6827 h 20.30471 v -67.6827 z"
       style="font-size:62.8737px;line-height:0;font-family:'Minecraft Ten v2';-inkscape-font-specification:'Minecraft Ten v2';text-align:center;text-anchor:middle;fill:#000000;stroke-width:7.60882;stroke-linecap:round"
       id="path10" /><path
       d="m 89.790388,115.41268 v 44.01179 h 13.203842 v -17.60461 h 4.40077 v 8.80204 h 8.80256 v -8.80204 h 4.40128 v 17.60461 h 13.20333 v -44.01179 h -13.20333 v 8.80257 h -4.40128 v 8.80204 H 107.395 v -8.80204 h -4.40077 v -8.80257 z"
       style="font-size:62.8737px;line-height:0;font-family:'Minecraft Ten v2';-inkscape-font-specification:'Minecraft Ten v2';text-align:center;text-anchor:middle;fill:#000000;stroke-width:7.60882;stroke-linecap:round"
       id="path9" /><path
       d="m 63.487601,115.41268 v 34.08733 h 20.452498 v -6.81767 H 73.71385 v -27.26966 z"
       style="font-size:62.8737px;line-height:0;font-family:'Minecraft Ten v2';-inkscape-font-specification:'Minecraft Ten v2';text-align:center;text-anchor:middle;fill:#000000;stroke-width:7.60882;stroke-linecap:round"
       id="path8" /><path
       d="m 34.513659,115.41268 v 34.08733 h 23.861075 v -6.81767 H 44.739908 v -6.81716 h 10.226249 v -6.81767 H 44.739908 v -6.81767 h 13.634826 v -6.81716 z"
       style="font-size:62.8737px;line-height:0;font-family:'Minecraft Ten v2';-inkscape-font-specification:'Minecraft Ten v2';text-align:center;text-anchor:middle;fill:#000000;stroke-width:7.60882;stroke-linecap:round"
       id="path7" /><text
       xml:space="preserve"
       transform="scale(0.26458333)"
       id="text71"
       style="font-style:normal;font-variant:normal;font-weight:normal;font-stretch:normal;font-size:53.3333px;line-height:1.25;font-family:Arial;-inkscape-font-specification:Arial;text-align:center;letter-spacing:0px;writing-mode:lr-tb;direction:ltr;white-space:pre;shape-inside:url(#rect71);display:inline;fill:#808080;fill-opacity:1;stroke:none;stroke-linecap:round;stroke-linejoin:round;paint-order:fill markers stroke" /><path
       d="m 362.46625,62.151637 c -3.25195,0 -5.99198,1.121926 -8.22017,3.365169 -2.22819,2.243243 -3.34243,5.284367 -3.34243,9.123474 0,3.703609 1.03128,6.594188 3.09386,8.671822 2.06258,2.062579 4.96084,3.093868 8.69456,3.093868 3.41756,0 6.19497,-0.57197 8.33283,-1.716174 v -5.14904 c -1.92708,1.204426 -4.16274,1.806608 -6.70709,1.806608 -3.98966,0 -6.10498,-1.678531 -6.34586,-5.035868 h 15.08538 v -3.003951 c 0,-3.432614 -0.9258,-6.150116 -2.77761,-8.152474 -1.83675,-2.002358 -4.44108,-3.003434 -7.81347,-3.003434 z m -0.0455,4.810042 c 2.67985,0 4.01991,1.656518 4.01991,4.968689 h -8.51369 c 0.18066,-1.4152 0.68504,-2.597035 1.51309,-3.54552 0.84309,-0.948485 1.83649,-1.423169 2.98069,-1.423169 z"
       style="font-weight:bold;font-size:96px;line-height:1;font-family:'Segoe UI';-inkscape-font-specification:'Segoe UI Bold';text-align:center;baseline-shift:baseline;text-anchor:middle;vector-effect:none;fill:#000000;stroke-width:0.999999;stop-color:#000000"
       id="path30" /><path
       d="m 339.13796,51.60551 v 13.753166 h -0.0904 c -1.17431,-2.137856 -3.25174,-3.207039 -6.23269,-3.207039 -3.14656,0 -5.69099,1.151622 -7.63313,3.455086 -1.94213,2.303464 -2.91352,5.367635 -2.91352,9.191687 0,3.658443 0.88075,6.511127 2.64222,8.558651 1.76147,2.032468 4.08776,3.048909 6.97839,3.048909 3.14656,0 5.53276,-1.249425 7.15873,-3.748608 h 0.0904 v 3.183785 h 7.13599 V 51.60551 Z m -4.58422,16.011426 c 1.40014,0 2.5364,0.496697 3.40961,1.490348 0.87321,0.993652 1.31,2.243077 1.31,3.748609 v 1.738912 c 0,1.912026 -0.45932,3.447694 -1.3777,4.606954 -0.90332,1.15926 -2.07747,1.738912 -3.52278,1.738912 -1.52059,0 -2.7101,-0.54944 -3.56826,-1.648479 -0.85815,-1.099038 -1.28726,-2.664919 -1.28726,-4.697387 0,-2.167967 0.44448,-3.869028 1.33274,-5.103565 0.88826,-1.249591 2.12284,-1.874304 3.70365,-1.874304 z"
       style="font-weight:bold;font-size:96px;line-height:1;font-family:'Segoe UI';-inkscape-font-specification:'Segoe UI Bold';text-align:center;baseline-shift:baseline;text-anchor:middle;vector-effect:none;fill:#000000;stroke-width:0.999999;stop-color:#000000"
       id="path29" /><path
       d="m 291.37498,62.151637 c -3.14656,0 -5.68331,1.151622 -7.61039,3.455086 -1.92708,2.303464 -2.89078,5.412695 -2.89078,9.327079 0,3.492835 0.86538,6.277928 2.59674,8.355562 1.73136,2.077635 4.0725,3.116606 7.02335,3.116606 3.17667,0 5.57823,-1.295002 7.20421,-3.884517 h 0.0904 v 1.829345 c 0,2.183022 -0.66261,3.907131 -1.98747,5.171778 -1.32487,1.279702 -3.19184,1.919262 -5.6007,1.919262 -2.4239,0 -4.82495,-0.692302 -7.20369,-2.077392 v 6.006868 c 1.82169,0.888264 4.29085,1.332219 7.4073,1.332219 4.71232,0 8.31056,-1.181835 10.79469,-3.54552 2.48413,-2.348631 3.72587,-5.668315 3.72587,-9.959082 V 62.71646 h -7.136 v 2.687175 h -0.0904 c -1.40015,-2.167967 -3.50779,-3.251998 -6.32313,-3.251998 z m 1.82935,5.465299 c 1.38509,0 2.50649,0.519227 3.36465,1.558045 0.87321,1.023761 1.31,2.266021 1.31,3.726387 v 1.829346 c 0,1.86686 -0.45932,3.372315 -1.3777,4.51652 -0.90332,1.129149 -2.09283,1.693437 -3.56826,1.693437 -1.49047,0 -2.66462,-0.557122 -3.52278,-1.671216 -0.85815,-1.129149 -1.28726,-2.657135 -1.28726,-4.584216 0,-2.243244 0.45164,-3.9822 1.35496,-5.216736 0.90332,-1.234537 2.14558,-1.851567 3.72639,-1.851567 z"
       style="font-weight:bold;font-size:96px;line-height:1;font-family:'Segoe UI';-inkscape-font-specification:'Segoe UI Bold';text-align:center;baseline-shift:baseline;text-anchor:middle;vector-effect:none;fill:#1d9bf0;stroke-width:0.999999;stop-color:#000000"
       id="path28" /><path
       d="m 265.31404,62.151637 c -3.89933,0 -6.9932,1.084031 -9.28161,3.251998 -2.2884,2.152911 -3.43234,5.141292 -3.43234,8.965344 0,3.703609 1.09887,6.639764 3.29695,8.807731 2.21313,2.152911 5.24658,3.22926 9.10074,3.22926 3.91438,0 6.9934,-1.114244 9.23664,-3.342432 2.2583,-2.228187 3.38739,-5.261629 3.38739,-9.100736 0,-3.553056 -1.09171,-6.406256 -3.27473,-8.559167 -2.18302,-2.167967 -5.19393,-3.251998 -9.03304,-3.251998 z m -0.13539,5.465299 c 3.44766,0 5.17126,2.160381 5.17126,6.481258 0,4.561763 -1.70875,6.842477 -5.12631,6.842477 -3.58316,0 -5.37434,-2.220289 -5.37434,-6.661609 0,-2.122801 0.46648,-3.763954 1.39991,-4.923214 0.93343,-1.15926 2.24328,-1.738912 3.92948,-1.738912 z"
       style="font-weight:bold;font-size:96px;line-height:1;font-family:'Segoe UI';-inkscape-font-specification:'Segoe UI Bold';text-align:center;baseline-shift:baseline;text-anchor:middle;vector-effect:none;fill:#1d9bf0;stroke-width:0.999999;stop-color:#000000"
       id="path27" /><path
       d="m 240.83388,51.60551 v 34.235637 h 7.13651 V 51.60551 Z"
       style="font-weight:bold;font-size:96px;line-height:1;font-family:'Segoe UI';-inkscape-font-specification:'Segoe UI Bold';text-align:center;baseline-shift:baseline;text-anchor:middle;vector-effect:none;fill:#1d9bf0;stroke-width:0.999999;stop-color:#000000"
       id="path26" /><path
       d="m 212.15398,51.60551 v 34.235637 h 7.13599 v -2.687175 h 0.0904 c 1.46036,2.167967 3.61306,3.251998 6.45852,3.251998 3.14656,0 5.66077,-1.166986 7.54269,-3.500561 1.88192,-2.333575 2.82308,-5.427442 2.82308,-9.281604 0,-3.553057 -0.80547,-6.352997 -2.41639,-8.400521 -1.61092,-2.047524 -3.90699,-3.071647 -6.88795,-3.071647 -3.25195,0 -5.75848,1.347744 -7.51995,4.042647 h -0.0904 V 51.60551 Z m 11.99151,16.011426 c 1.52059,0 2.68706,0.541757 3.50005,1.625741 0.82804,1.068928 1.2423,2.559535 1.2423,4.471561 0,2.303465 -0.45164,4.087481 -1.35496,5.352128 -0.88826,1.249592 -2.14537,1.874305 -3.77134,1.874305 -1.33993,0 -2.43932,-0.489015 -3.29748,-1.467611 -0.85815,-0.978596 -1.28726,-2.213173 -1.28726,-3.70365 v -2.371431 c 0,-1.716307 0.467,-3.108595 1.40043,-4.177523 0.94849,-1.068928 2.13801,-1.60352 3.56826,-1.60352 z"
       style="font-weight:bold;font-size:96px;line-height:1;font-family:'Segoe UI';-inkscape-font-specification:'Segoe UI Bold';text-align:center;baseline-shift:baseline;text-anchor:middle;vector-effect:none;fill:#1d9bf0;stroke-width:0.999999;stop-color:#000000"
       id="path25" /><path
       d="m 191.37747,53.660682 -1.67122,8.039303 h -4.62969 l -0.7674,4.064868 h 4.56148 l -1.19682,5.600691 h -4.24574 l -0.83561,4.064869 h 4.20078 l -1.60352,7.813993 h 4.51652 l 1.67122,-7.813993 h 5.17126 l -1.64848,7.813993 h 4.51652 l 1.76165,-7.813993 h 4.49378 l 1.01648,-4.064869 h -4.67465 l 1.24178,-5.600691 h 4.17804 l 0.88057,-4.064868 h -4.17753 l 1.67122,-8.039303 h -4.58473 l -1.71618,8.039303 h -5.17126 l 1.67122,-8.039303 z m 2.07325,12.09952 5.24723,0.0021 -1.26194,5.606893 h -5.22655 z"
       style="font-weight:bold;font-size:96px;line-height:1;font-family:'Segoe UI';-inkscape-font-specification:'Segoe UI Bold';text-align:center;baseline-shift:baseline;text-anchor:middle;vector-effect:none;fill:#1d9bf0;stroke-width:0.999999;stop-color:#000000"
       id="path6" /><path
       d="m 158.858,51.60551 v 34.235637 h 7.136 V 51.60551 Z"
       style="font-weight:bold;font-size:96px;line-height:1;font-family:'Segoe UI';-inkscape-font-specification:'Segoe UI Bold';text-align:center;baseline-shift:baseline;text-anchor:middle;vector-effect:none;fill:#000000;stroke-width:0.999999;stop-color:#000000"
       id="path5" /><path
       d="m 134.94267,53.457077 v 32.38407 h 19.42103 v -5.916435 h -12.1269 v -7.4073 h 10.5916 v -5.916951 h -10.5916 v -7.203695 h 11.38173 v -5.939689 z"
       style="font-weight:bold;font-size:96px;line-height:1;font-family:'Segoe UI';-inkscape-font-specification:'Segoe UI Bold';text-align:center;baseline-shift:baseline;text-anchor:middle;vector-effect:none;fill:#000000;stroke-width:0.999999;stop-color:#000000"
       id="path4" /><text
       xml:space="preserve"
       style="font-style:normal;font-variant:normal;font-weight:bold;font-stretch:normal;font-size:96px;line-height:1;font-family:'Segoe UI';-inkscape-font-specification:'Segoe UI Bold';font-variant-ligatures:normal;font-variant-position:normal;font-variant-caps:normal;font-variant-numeric:normal;font-variant-alternates:normal;font-variant-east-asian:normal;font-feature-settings:normal;text-indent:0;text-align:center;text-decoration-line:none;text-decoration-style:solid;text-decoration-color:#000000;letter-spacing:normal;word-spacing:normal;text-transform:none;writing-mode:lr-tb;direction:ltr;text-orientation:mixed;dominant-baseline:auto;baseline-shift:baseline;text-anchor:middle;white-space:normal;shape-padding:0;shape-margin:0;inline-size:0;vector-effect:none;fill:#1d9bf0;fill-opacity:1;stroke-width:0.999999;stroke-linecap:butt;stroke-linejoin:miter;stroke-miterlimit:4;stroke-dasharray:none;stroke-dashoffset:0;stroke-opacity:1;-inkscape-stroke:none;stop-color:#000000"
       x="762.90344"
       y="535.79431"
       id="text3"
       transform="matrix(0.48177032,0,0,0.48177032,278.18515,-172.4837)"><tspan
         sodipodi:role="line"
         x="762.90344"
         y="535.79431"
         style="font-style:normal;font-variant:normal;font-weight:bold;font-stretch:normal;font-family:'Segoe UI';-inkscape-font-specification:'Segoe UI Bold';text-align:center;text-anchor:middle;fill:#1d9bf0;fill-opacity:1"
         id="tspan3"><tspan
   style="font-style:normal;font-variant:normal;font-weight:bold;font-stretch:normal;font-family:'Segoe UI';-inkscape-font-specification:'Segoe UI Bold';fill:#000000"
   id="tspan1">El</tspan> #blog <tspan
   style="font-style:normal;font-variant:normal;font-weight:bold;font-stretch:normal;font-family:'Segoe UI';-inkscape-font-specification:'Segoe UI Bold';fill:#000000"
   id="tspan2">de</tspan></tspan></text></g><style
     type="text/css"
     id="style2019">
	.st0{fill:#1D9BF0;}
</style><style
     type="text/css"
     id="style1">
	.st0{fill:#1D9BF0;}
</style></svg>
