<?xml version="1.0" encoding="UTF-8" standalone="no"?>
<!-- Created with Inkscape (http://www.inkscape.org/) -->

<svg
   width="1920"
   height="1080"
   viewBox="0 0 508 285.75"
   version="1.1"
   id="svg5"
   inkscape:version="1.4 (86a8ad7, 2024-10-11)"
   sodipodi:docname="BlogLogo.svg"
   inkscape:export-filename="Website_Logo_3.png"
   inkscape:export-xdpi="96"
   inkscape:export-ydpi="96"
   xml:space="preserve"
   xmlns:inkscape="http://www.inkscape.org/namespaces/inkscape"
   xmlns:sodipodi="http://sodipodi.sourceforge.net/DTD/sodipodi-0.dtd"
   xmlns="http://www.w3.org/2000/svg"
   xmlns:svg="http://www.w3.org/2000/svg"><sodipodi:namedview
     id="namedview7"
     pagecolor="#505050"
     bordercolor="#eeeeee"
     borderopacity="1"
     inkscape:showpageshadow="0"
     inkscape:pageopacity="0"
     inkscape:pagecheckerboard="0"
     inkscape:deskcolor="#505050"
     inkscape:document-units="mm"
     showgrid="false"
     inkscape:zoom="0.34709043"
     inkscape:cx="1503.9308"
     inkscape:cy="213.20092"
     inkscape:window-width="1920"
     inkscape:window-height="991"
     inkscape:window-x="-9"
     inkscape:window-y="-9"
     inkscape:window-maximized="1"
     inkscape:current-layer="layer1" /><defs
     id="defs2"><rect
       x="-361.57724"
       y="1139.4725"
       width="105.15991"
       height="649.6866"
       id="rect71" /></defs><g
     inkscape:label="Capa 1"
     inkscape:groupmode="layer"
     id="layer1"><text
       xml:space="preserve"
       style="font-style:normal;font-variant:normal;font-weight:bold;font-stretch:normal;font-size:96px;line-height:1;font-family:Arial;-inkscape-font-specification:'Arial Bold';font-variant-ligatures:normal;font-variant-position:normal;font-variant-caps:normal;font-variant-numeric:normal;font-variant-alternates:normal;font-variant-east-asian:normal;font-feature-settings:normal;font-variation-settings:normal;text-indent:0;text-align:center;text-decoration-line:none;text-decoration-style:solid;text-decoration-color:#000000;letter-spacing:normal;word-spacing:normal;text-transform:none;writing-mode:lr-tb;direction:ltr;text-orientation:mixed;dominant-baseline:auto;baseline-shift:baseline;text-anchor:middle;white-space:normal;shape-padding:0;shape-margin:0;inline-size:0;opacity:1;vector-effect:none;fill:#ffffff;fill-opacity:1;stroke-width:0.999999;stroke-linecap:butt;stroke-linejoin:miter;stroke-miterlimit:4;stroke-dasharray:none;stroke-dashoffset:0;stroke-opacity:1;-inkscape-stroke:none;stop-color:#000000;stop-opacity:1"
       x="762.90344"
       y="535.79431"
       id="text236"
       transform="matrix(0.8827475,0,0,0.8827475,-419.40877,-607.85818)"><tspan
         sodipodi:role="line"
         x="762.90344"
         y="535.79431"
         style="font-style:italic;font-variant:normal;font-weight:normal;font-stretch:normal;font-family:'Times New Roman';-inkscape-font-specification:'Times New Roman,  Italic';text-align:center;text-anchor:middle;fill:#ffffff"
         id="tspan288"><tspan
           id="tspan292"
           style="font-style:normal;font-variant:normal;font-weight:bold;font-stretch:normal;font-family:'Minecraft Ten v2';-inkscape-font-specification:'Minecraft Ten v2 Bold';text-align:center;text-anchor:middle;fill:#ffffff">elminehuy</tspan></tspan><tspan
         sodipodi:role="line"
         x="762.90344"
         y="634.26672"
         style="font-style:italic;font-variant:normal;font-weight:normal;font-stretch:normal;font-family:'Times New Roman';-inkscape-font-specification:'Times New Roman,  Italic';text-align:center;text-anchor:middle;fill:#ffffff"
         id="tspan295">.github.io</tspan></text><text
       xml:space="preserve"
       style="font-style:normal;font-variant:normal;font-weight:normal;font-stretch:normal;font-size:65.5897px;line-height:0;font-family:'Minecraft Ten v2';-inkscape-font-specification:'Minecraft Ten v2';text-align:center;text-anchor:middle;fill:#ffffff;fill-opacity:1;stroke:none;stroke-width:7.9375;stroke-linecap:round;stroke-linejoin:miter;stroke-dasharray:none;stroke-opacity:1"
       x="-1170.0846"
       y="421.07123"
       id="text1818"><tspan
         sodipodi:role="line"
         id="tspan1816"
         style="font-size:65.5897px;stroke-width:7.9375"
         x="-1170.0846"
         y="421.07123"><tspan
   style="font-size:50.8px"
   id="tspan1820">el</tspan>m<tspan
   style="font-size:100.867px"
   id="tspan1830">i<tspan
   style="font-size:136.145px"
   id="tspan1838">n</tspan><tspan
   style="font-size:171.423px"
   id="tspan1834">e</tspan>h</tspan>u<tspan
   style="font-size:50.8px"
   id="tspan1828">y</tspan></tspan></text><text
       xml:space="preserve"
       style="font-style:normal;font-variant:normal;font-weight:normal;font-stretch:normal;font-size:71.6037px;line-height:0;font-family:'Minecraft Ten v2';-inkscape-font-specification:'Minecraft Ten v2';text-align:center;text-anchor:middle;fill:#ffffff;fill-opacity:1;stroke:none;stroke-width:8.6653;stroke-linecap:round;stroke-linejoin:miter;stroke-dasharray:none;stroke-opacity:1"
       x="-509.4747"
       y="330.81335"
       id="text1854"><tspan
         sodipodi:role="line"
         id="tspan1852"
         style="font-size:71.6037px;stroke-width:8.6653"
         x="-509.4747"
         y="330.81335"><tspan
   style="font-size:55.4579px;stroke-width:8.6653"
   id="tspan1842">el</tspan>m<tspan
   style="font-size:110.115px;stroke-width:8.6653"
   id="tspan1848">i<tspan
   style="font-size:148.628px;stroke-width:8.6653"
   id="tspan1844">n</tspan><tspan
   style="font-size:187.141px;stroke-width:8.6653"
   id="tspan1846">e</tspan>h</tspan>u<tspan
   style="font-size:55.4579px;stroke-width:8.6653"
   id="tspan1850">y</tspan></tspan></text><text
       xml:space="preserve"
       style="font-style:normal;font-variant:normal;font-weight:normal;font-stretch:normal;font-size:21.2639px;line-height:0;font-family:'Century Gothic';-inkscape-font-specification:'Century Gothic';text-align:center;text-anchor:middle;fill:#ffffff;fill-opacity:1;stroke:none;stroke-width:3.32245;stroke-linecap:round;stroke-linejoin:miter;stroke-dasharray:none;stroke-opacity:1"
       x="-472.39813"
       y="379.56848"
       id="text1983"><tspan
         sodipodi:role="line"
         id="tspan1981"
         style="font-style:normal;font-variant:normal;font-weight:normal;font-stretch:normal;font-family:'Century Gothic';-inkscape-font-specification:'Century Gothic';stroke-width:3.32245"
         x="-472.39813"
         y="379.56848">/ELMINEHUY</tspan></text><rect
       style="fill:#ffffff;fill-opacity:1;stroke:none;stroke-width:5.306;stroke-linecap:round;stroke-linejoin:miter;stroke-dasharray:none;stroke-opacity:1"
       id="rect1987"
       width="462.14172"
       height="3.316442"
       x="-740.4754"
       y="345.63629" /><path
       style="fill:#000000;fill-opacity:1;stroke:none;stroke-width:7.96088;stroke-linecap:round;stroke-linejoin:miter;stroke-dasharray:none;stroke-opacity:1"
       d="m -1422.6227,608.75568 h 516.20656 V 559.48792 L -1055.43,462.08498 h -106.2778 l -260.9149,100.23443 z"
       id="path1993" /><rect
       style="fill:#000000;fill-opacity:1;stroke:none;stroke-width:8.09285;stroke-linecap:round;stroke-linejoin:miter;stroke-dasharray:none;stroke-opacity:1"
       id="rect1995"
       width="42.618275"
       height="34.052425"
       x="-1261.2178"
       y="493.89893" /><text
       xml:space="preserve"
       style="font-style:normal;font-variant:normal;font-weight:normal;font-stretch:normal;font-size:72.7604px;line-height:0;font-family:'Minecraft Ten v2';-inkscape-font-specification:'Minecraft Ten v2';text-align:center;text-anchor:middle;fill:#ffffff;fill-opacity:1;stroke:none;stroke-width:8.80528;stroke-linecap:round;stroke-linejoin:miter;stroke-dasharray:none;stroke-opacity:1"
       x="-1164.4912"
       y="604.25452"
       id="text2009"><tspan
         sodipodi:role="line"
         id="tspan2007"
         style="font-size:72.7604px;stroke-width:8.80528"
         x="-1164.4912"
         y="604.25452"><tspan
   style="font-size:56.3538px;stroke-width:8.80528"
   id="tspan1997">el</tspan>m<tspan
   style="font-size:111.894px;stroke-width:8.80528"
   id="tspan2003">i<tspan
   style="font-size:151.029px;stroke-width:8.80528"
   id="tspan1999">n</tspan><tspan
   style="font-size:190.164px;stroke-width:8.80528"
   id="tspan2001">e</tspan>h</tspan>u<tspan
   style="font-size:56.3538px;stroke-width:8.80528"
   id="tspan2005">y</tspan></tspan></text><text
       xml:space="preserve"
       style="font-style:normal;font-variant:normal;font-weight:normal;font-stretch:normal;font-size:63.6591px;line-height:0;font-family:'Minecraft Five v2';-inkscape-font-specification:'Minecraft Five v2';text-align:center;text-anchor:middle;fill:#ffffff;fill-opacity:1;stroke:none;stroke-width:9.94672;stroke-linecap:round;stroke-linejoin:miter;stroke-dasharray:none;stroke-opacity:1"
       x="-1164.5194"
       y="698.22266"
       id="text2013"><tspan
         sodipodi:role="line"
         id="tspan2011"
         style="font-style:normal;font-variant:normal;font-weight:normal;font-stretch:normal;font-family:'Minecraft Five v2';-inkscape-font-specification:'Minecraft Five v2';stroke-width:9.94672"
         x="-1164.5194"
         y="698.22266">/elminehuy</tspan></text><rect
       style="fill:#ffffff;fill-opacity:1;stroke:none;stroke-width:5.39172;stroke-linecap:round;stroke-linejoin:miter;stroke-dasharray:none;stroke-opacity:1"
       id="rect2015"
       width="469.60742"
       height="3.3700178"
       x="-1399.2236"
       y="619.31696" /><g
       id="Logo_1_"
       transform="matrix(0.08866263,0,0,0.08866266,-558.64213,363.77863)">
	<path
   id="white_background"
   class="st0"
   d="m 221.95,51.29 c 0.15,2.17 0.15,4.34 0.15,6.53 0,66.73 -50.8,143.69 -143.69,143.69 v -0.04 C 50.97,201.51 24.1,193.65 1,178.83 c 3.99,0.48 8,0.72 12.02,0.73 22.74,0.02 44.83,-7.61 62.72,-21.66 -21.61,-0.41 -40.56,-14.5 -47.18,-35.07 7.57,1.46 15.37,1.16 22.8,-0.87 C 27.8,117.2 10.85,96.5 10.85,72.46 c 0,-0.22 0,-0.43 0,-0.64 7.02,3.91 14.88,6.08 22.92,6.32 C 11.58,63.31 4.74,33.79 18.14,10.71 c 25.64,31.55 63.47,50.73 104.08,52.76 -4.07,-17.54 1.49,-35.92 14.61,-48.25 20.34,-19.12 52.33,-18.14 71.45,2.19 11.31,-2.23 22.15,-6.38 32.07,-12.26 -3.77,11.69 -11.66,21.62 -22.2,27.93 10.01,-1.18 19.79,-3.86 29,-7.95 -6.78,10.16 -15.32,19.01 -25.2,26.16 z" />
</g><g
       style="fill:none"
       id="g2040"
       transform="matrix(0.03545899,0,0,0.035459,-604.54329,354.23336)"><path
         d="m 650.96239,306.59986 c 65.12,48.888 135.16,148.017 160.879,201.209 25.719,-53.192 95.759,-152.321 160.879,-201.209 46.98701,-35.276 123.12101,-62.57 123.12101,24.282 0,17.346 -9.945,145.713 -15.778,166.555 -20.275,72.453 -94.15501,90.933 -159.87501,79.748 114.87501,19.551 144.09701,84.311 80.98601,149.071 -119.86001,122.992 -172.27201,-30.859 -185.70201,-70.281 -2.462,-7.227 -3.614,-10.608 -3.631,-7.733 -0.017,-2.875 -1.169,0.506 -3.631,7.733 -13.43,39.422 -65.842,193.273 -185.702,70.281 -63.111,-64.76 -33.889,-129.52 80.986,-149.071 -65.72,11.185 -139.6,-7.295 -159.875,-79.748 -5.833,-20.842 -15.778,-149.209 -15.778,-166.555 0,-86.852 76.134,-59.558 123.121,-24.282 z"
         fill="#1185fe"
         id="path2031" /></g><path
       d="m -607.42877,369.91328 h 4.38808 l -3.13694,-2.97374 1.72261,-1.74072 2.97374,3.02813 v -4.31555 h 2.57482 v 4.31555 l 2.97375,-3.02813 1.72259,1.74072 -3.13693,2.95562 h 4.38808 v 2.44789 h -4.40622 l 3.13694,3.02814 -1.7226,1.70446 -4.26115,-4.26115 -4.26115,4.27928 -1.72261,-1.72259 3.13696,-3.02814 h -4.40623 v -2.42977 z m 5.96563,5.92936 h 2.57482 v 5.80243 h -2.57482 z"
       id="path2112"
       style="fill:#43e660;fill-opacity:1;stroke-width:0.181326">
 </path><text
       xml:space="preserve"
       style="font-style:normal;font-variant:normal;font-weight:normal;font-stretch:normal;font-size:20.5886px;line-height:0;font-family:'Minecraft Five v2';-inkscape-font-specification:'Minecraft Five v2';text-align:center;text-anchor:middle;fill:#ffffff;fill-opacity:1;stroke:none;stroke-width:3.21696;stroke-linecap:round;stroke-linejoin:miter;stroke-dasharray:none;stroke-opacity:1"
       x="-740.18707"
       y="584.14178"
       id="text2329"><tspan
         sodipodi:role="line"
         id="tspan2327"
         style="font-style:normal;font-variant:normal;font-weight:normal;font-stretch:normal;font-family:'Minecraft Five v2';-inkscape-font-specification:'Minecraft Five v2';stroke-width:3.21696"
         x="-740.18707"
         y="584.14178">/elminehuy</tspan></text><g
       id="g2333"
       transform="matrix(0.07212819,0,0,0.07212819,-843.06325,569.60724)">
	<path
   id="path2331"
   class="st0"
   d="m 221.95,51.29 c 0.15,2.17 0.15,4.34 0.15,6.53 0,66.73 -50.8,143.69 -143.69,143.69 v -0.04 C 50.97,201.51 24.1,193.65 1,178.83 c 3.99,0.48 8,0.72 12.02,0.73 22.74,0.02 44.83,-7.61 62.72,-21.66 -21.61,-0.41 -40.56,-14.5 -47.18,-35.07 7.57,1.46 15.37,1.16 22.8,-0.87 C 27.8,117.2 10.85,96.5 10.85,72.46 c 0,-0.22 0,-0.43 0,-0.64 7.02,3.91 14.88,6.08 22.92,6.32 C 11.58,63.31 4.74,33.79 18.14,10.71 c 25.64,31.55 63.47,50.73 104.08,52.76 -4.07,-17.54 1.49,-35.92 14.61,-48.25 20.34,-19.12 52.33,-18.14 71.45,2.19 11.31,-2.23 22.15,-6.38 32.07,-12.26 -3.77,11.69 -11.66,21.62 -22.2,27.93 10.01,-1.18 19.79,-3.86 29,-7.95 -6.78,10.16 -15.32,19.01 -25.2,26.16 z" />
</g><g
       style="fill:none"
       id="g2337"
       transform="matrix(0.02884635,0,0,0.02884635,-877.50329,561.84203)"><path
         d="m 650.96239,306.59986 c 65.12,48.888 135.16,148.017 160.879,201.209 25.719,-53.192 95.759,-152.321 160.879,-201.209 46.98701,-35.276 123.12101,-62.57 123.12101,24.282 0,17.346 -9.945,145.713 -15.778,166.555 -20.275,72.453 -94.15501,90.933 -159.87501,79.748 114.87501,19.551 144.09701,84.311 80.98601,149.071 -119.86001,122.992 -172.27201,-30.859 -185.70201,-70.281 -2.462,-7.227 -3.614,-10.608 -3.631,-7.733 -0.017,-2.875 -1.169,0.506 -3.631,7.733 -13.43,39.422 -65.842,193.273 -185.702,70.281 -63.111,-64.76 -33.889,-129.52 80.986,-149.071 -65.72,11.185 -139.6,-7.295 -159.875,-79.748 -5.833,-20.842 -15.778,-149.209 -15.778,-166.555 0,-86.852 76.134,-59.558 123.121,-24.282 z"
         fill="#1185fe"
         id="path2335" /></g><path
       d="m -876.9495,574.59784 h 3.56976 l -2.55194,-2.41917 1.40136,-1.41611 2.41918,2.46343 v -3.51076 h 2.09465 v 3.51076 l 2.41918,-2.46343 1.40135,1.41611 -2.55193,2.40442 h 3.56976 v 1.9914 h -3.58452 l 2.55194,2.46343 -1.40135,1.3866 -3.46651,-3.4665 -3.4665,3.48125 -1.40136,-1.40135 2.55195,-2.46343 h -3.58452 v -1.97665 z m 4.85311,4.82361 h 2.09465 v 4.72034 h -2.09465 z"
       id="path2339"
       style="fill:#43e660;fill-opacity:1;stroke-width:0.147511">
 </path><path
       style="fill:#000000;fill-opacity:1;stroke:none;stroke-width:7.9375;stroke-linecap:round;stroke-linejoin:miter;stroke-dasharray:none;stroke-opacity:1"
       d="m -683.60672,477.09402 27.00697,-27.00698 h 316.76948 l -27.007,27.00698 z"
       id="path2520" /><text
       xml:space="preserve"
       style="font-style:normal;font-variant:normal;font-weight:normal;font-stretch:normal;font-size:24.3833px;line-height:0;font-family:'Minecraft Five v2';-inkscape-font-specification:'Minecraft Five v2';text-align:center;text-anchor:middle;fill:#ffffff;fill-opacity:1;stroke:none;stroke-width:3.80987;stroke-linecap:round;stroke-linejoin:miter;stroke-dasharray:none;stroke-opacity:1"
       x="-479.5864"
       y="472.29123"
       id="text2524"><tspan
         sodipodi:role="line"
         id="tspan2522"
         style="font-style:normal;font-variant:normal;font-weight:normal;font-stretch:normal;font-family:'Minecraft Five v2';-inkscape-font-specification:'Minecraft Five v2';stroke-width:3.80987"
         x="-479.5864"
         y="472.29123">/elminehuy</tspan></text><g
       id="g2528"
       transform="matrix(0.08542196,0,0,0.08542199,-601.42344,455.07782)">
	<path
   id="path2526"
   class="st0"
   d="m 221.95,51.29 c 0.15,2.17 0.15,4.34 0.15,6.53 0,66.73 -50.8,143.69 -143.69,143.69 v -0.04 C 50.97,201.51 24.1,193.65 1,178.83 c 3.99,0.48 8,0.72 12.02,0.73 22.74,0.02 44.83,-7.61 62.72,-21.66 -21.61,-0.41 -40.56,-14.5 -47.18,-35.07 7.57,1.46 15.37,1.16 22.8,-0.87 C 27.8,117.2 10.85,96.5 10.85,72.46 c 0,-0.22 0,-0.43 0,-0.64 7.02,3.91 14.88,6.08 22.92,6.32 C 11.58,63.31 4.74,33.79 18.14,10.71 c 25.64,31.55 63.47,50.73 104.08,52.76 -4.07,-17.54 1.49,-35.92 14.61,-48.25 20.34,-19.12 52.33,-18.14 71.45,2.19 11.31,-2.23 22.15,-6.38 32.07,-12.26 -3.77,11.69 -11.66,21.62 -22.2,27.93 10.01,-1.18 19.79,-3.86 29,-7.95 -6.78,10.16 -15.32,19.01 -25.2,26.16 z" />
</g><g
       style="fill:none"
       id="g2532"
       transform="matrix(0.03416295,0,0,0.03416296,-642.21104,445.88143)"><path
         d="m 650.96239,306.59986 c 65.12,48.888 135.16,148.017 160.879,201.209 25.719,-53.192 95.759,-152.321 160.879,-201.209 46.98701,-35.276 123.12101,-62.57 123.12101,24.282 0,17.346 -9.945,145.713 -15.778,166.555 -20.275,72.453 -94.15501,90.933 -159.87501,79.748 114.87501,19.551 144.09701,84.311 80.98601,149.071 -119.86001,122.992 -172.27201,-30.859 -185.70201,-70.281 -2.462,-7.227 -3.614,-10.608 -3.631,-7.733 -0.017,-2.875 -1.169,0.506 -3.631,7.733 -13.43,39.422 -65.842,193.273 -185.702,70.281 -63.111,-64.76 -33.889,-129.52 80.986,-149.071 -65.72,11.185 -139.6,-7.295 -159.875,-79.748 -5.833,-20.842 -15.778,-149.209 -15.778,-166.555 0,-86.852 76.134,-59.558 123.121,-24.282 z"
         fill="#1185fe"
         id="path2530" /></g><path
       d="m -641.55518,460.98823 h 4.22769 l -3.02228,-2.86504 1.65964,-1.67711 2.86506,2.91746 v -4.15782 h 2.48071 v 4.15782 l 2.86505,-2.91746 1.65963,1.67711 -3.02227,2.84758 h 4.22769 v 2.35842 h -4.24517 l 3.02228,2.91746 -1.65963,1.64216 -4.10541,-4.1054 -4.1054,4.12287 -1.65965,-1.65963 3.0223,-2.91746 h -4.24518 v -2.34096 z m 5.74758,5.71264 h 2.48071 v 5.59034 h -2.48071 z"
       id="path2534"
       style="fill:#43e660;fill-opacity:1;stroke-width:0.174698">
 </path><rect
       style="fill:#ff0000;fill-opacity:1;stroke:none;stroke-width:6.94927;stroke-linecap:round;stroke-linejoin:miter;stroke-dasharray:none;stroke-opacity:1"
       id="rect2542"
       width="4.1549349"
       height="20.661299"
       x="-764.84021"
       y="442.76215" /><path
       style="fill:#000000;fill-opacity:1;stroke:none;stroke-width:7.51249;stroke-linecap:round;stroke-linejoin:miter;stroke-dasharray:none;stroke-opacity:1"
       d="m -649.47746,539.94323 25.56086,-25.56086 h 254.38925 l -25.56089,25.56086 z"
       id="path2093"
       sodipodi:nodetypes="ccccc" /><text
       xml:space="preserve"
       style="font-style:normal;font-variant:normal;font-weight:normal;font-stretch:normal;font-size:21.2639px;line-height:0;font-family:'Century Gothic';-inkscape-font-specification:'Century Gothic';text-align:center;text-anchor:middle;fill:#ffffff;fill-opacity:1;stroke:none;stroke-width:3.32245;stroke-linecap:round;stroke-linejoin:miter;stroke-dasharray:none;stroke-opacity:1"
       x="-472.39813"
       y="533.93451"
       id="text2097"><tspan
         sodipodi:role="line"
         id="tspan2095"
         style="font-style:normal;font-variant:normal;font-weight:normal;font-stretch:normal;font-family:'Century Gothic';-inkscape-font-specification:'Century Gothic';stroke-width:3.32245"
         x="-472.39813"
         y="533.93451">/ELMINEHUY</tspan></text><g
       id="g2101"
       transform="matrix(0.08866263,0,0,0.08866266,-558.64213,518.14464)">
	<path
   id="path2099"
   class="st0"
   d="m 221.95,51.29 c 0.15,2.17 0.15,4.34 0.15,6.53 0,66.73 -50.8,143.69 -143.69,143.69 v -0.04 C 50.97,201.51 24.1,193.65 1,178.83 c 3.99,0.48 8,0.72 12.02,0.73 22.74,0.02 44.83,-7.61 62.72,-21.66 -21.61,-0.41 -40.56,-14.5 -47.18,-35.07 7.57,1.46 15.37,1.16 22.8,-0.87 C 27.8,117.2 10.85,96.5 10.85,72.46 c 0,-0.22 0,-0.43 0,-0.64 7.02,3.91 14.88,6.08 22.92,6.32 C 11.58,63.31 4.74,33.79 18.14,10.71 c 25.64,31.55 63.47,50.73 104.08,52.76 -4.07,-17.54 1.49,-35.92 14.61,-48.25 20.34,-19.12 52.33,-18.14 71.45,2.19 11.31,-2.23 22.15,-6.38 32.07,-12.26 -3.77,11.69 -11.66,21.62 -22.2,27.93 10.01,-1.18 19.79,-3.86 29,-7.95 -6.78,10.16 -15.32,19.01 -25.2,26.16 z" />
</g><g
       style="fill:none"
       id="g2105"
       transform="matrix(0.03545899,0,0,0.035459,-604.54329,508.59937)"><path
         d="m 650.96239,306.59986 c 65.12,48.888 135.16,148.017 160.879,201.209 25.719,-53.192 95.759,-152.321 160.879,-201.209 46.98701,-35.276 123.12101,-62.57 123.12101,24.282 0,17.346 -9.945,145.713 -15.778,166.555 -20.275,72.453 -94.15501,90.933 -159.87501,79.748 114.87501,19.551 144.09701,84.311 80.98601,149.071 -119.86001,122.992 -172.27201,-30.859 -185.70201,-70.281 -2.462,-7.227 -3.614,-10.608 -3.631,-7.733 -0.017,-2.875 -1.169,0.506 -3.631,7.733 -13.43,39.422 -65.842,193.273 -185.702,70.281 -63.111,-64.76 -33.889,-129.52 80.986,-149.071 -65.72,11.185 -139.6,-7.295 -159.875,-79.748 -5.833,-20.842 -15.778,-149.209 -15.778,-166.555 0,-86.852 76.134,-59.558 123.121,-24.282 z"
         fill="#1185fe"
         id="path2103" /></g><path
       d="m -607.42877,524.27929 h 4.38808 l -3.13694,-2.97374 1.72261,-1.74072 2.97374,3.02813 v -4.31555 h 2.57482 v 4.31555 l 2.97375,-3.02813 1.72259,1.74072 -3.13693,2.95562 h 4.38808 v 2.44789 h -4.40622 l 3.13694,3.02814 -1.7226,1.70446 -4.26115,-4.26115 -4.26115,4.27928 -1.72261,-1.72259 3.13696,-3.02814 h -4.40623 v -2.42977 z m 5.96563,5.92936 h 2.57482 v 5.80243 h -2.57482 z"
       id="path2107"
       style="fill:#43e660;fill-opacity:1;stroke-width:0.181326">
 </path><path
       d="m 449.62527,119.86525 v 17.0434 h 6.81767 v 17.04392 h 10.22625 v -17.04392 h 6.81715 v -17.0434 H 463.2601 v 10.22625 h -3.40858 v -10.22625 z"
       style="font-size:62.8737px;line-height:0;font-family:'Minecraft Ten v2';-inkscape-font-specification:'Minecraft Ten v2';text-align:center;text-anchor:middle;fill:#808080;stroke-width:7.60882;stroke-linecap:round"
       id="path24" /><path
       d="m 412.95257,119.86525 v 44.01178 h 30.80846 v -44.01178 h -13.20385 v 35.20922 h -4.40076 v -35.20922 z"
       style="font-size:62.8737px;line-height:0;font-family:'Minecraft Ten v2';-inkscape-font-specification:'Minecraft Ten v2';text-align:center;text-anchor:middle;fill:#808080;stroke-width:7.60882;stroke-linecap:round"
       id="path23" /><path
       d="m 357.18078,119.86524 v 67.6827 h 20.30471 v -27.07328 h 6.76857 v 27.07328 h 20.30471 v -67.6827 h -20.30471 v 27.07278 h -6.76857 v -27.07278 z"
       style="font-size:62.8737px;line-height:0;font-family:'Minecraft Ten v2';-inkscape-font-specification:'Minecraft Ten v2';text-align:center;text-anchor:middle;fill:#808080;stroke-width:7.60882;stroke-linecap:round"
       id="path22" /><path
       d="m 262.92452,119.86525 v 115.02764 h 80.51912 v -23.00583 h -46.01063 v -23.00531 h 34.50797 v -23.00532 h -34.50797 v -23.00585 h 46.01063 v -23.00533 z"
       style="font-size:62.8737px;line-height:0;font-family:'Minecraft Ten v2';-inkscape-font-specification:'Minecraft Ten v2';text-align:center;text-anchor:middle;fill:#808080;stroke-width:7.60882;stroke-linecap:round"
       id="path21" /><path
       d="m 174.37799,119.86525 v 91.35568 h 27.40711 v -36.54247 h 9.13536 v 18.27124 h 9.13536 v 18.27123 h 27.40711 v -91.35568 h -27.40711 v 36.54198 h -9.13536 v -18.27074 h -9.13536 v -18.27124 z"
       style="font-size:62.8737px;line-height:0;font-family:'Minecraft Ten v2';-inkscape-font-specification:'Minecraft Ten v2';text-align:center;text-anchor:middle;fill:#808080;stroke-width:7.60882;stroke-linecap:round"
       id="path20" /><path
       d="m 142.16238,119.86524 v 67.6827 h 20.30471 v -67.6827 z"
       style="font-size:62.8737px;line-height:0;font-family:'Minecraft Ten v2';-inkscape-font-specification:'Minecraft Ten v2';text-align:center;text-anchor:middle;fill:#808080;stroke-width:7.60882;stroke-linecap:round"
       id="path19" /><path
       d="m 89.790385,119.86525 v 44.01178 h 13.203845 v -17.60461 h 4.40077 v 8.80205 h 8.80256 v -8.80205 h 4.40128 v 17.60461 h 13.20333 v -44.01178 h -13.20333 v 8.80256 h -4.40128 v 8.80205 H 107.395 v -8.80205 h -4.40077 v -8.80256 z"
       style="font-size:62.8737px;line-height:0;font-family:'Minecraft Ten v2';-inkscape-font-specification:'Minecraft Ten v2';text-align:center;text-anchor:middle;fill:#808080;stroke-width:7.60882;stroke-linecap:round"
       id="path18" /><path
       d="m 63.487598,119.86525 v 34.08732 H 83.940096 V 147.1349 H 73.713847 v -27.26965 z"
       style="font-size:62.8737px;line-height:0;font-family:'Minecraft Ten v2';-inkscape-font-specification:'Minecraft Ten v2';text-align:center;text-anchor:middle;fill:#808080;stroke-width:7.60882;stroke-linecap:round"
       id="path17" /><path
       d="m 34.513656,119.86525 v 34.08732 H 58.374731 V 147.1349 H 44.739905 v -6.81767 h 10.226249 v -6.81715 H 44.739905 v -6.81768 h 13.634826 v -6.81715 z"
       style="font-size:62.8737px;line-height:0;font-family:'Minecraft Ten v2';-inkscape-font-specification:'Minecraft Ten v2';text-align:center;text-anchor:middle;fill:#808080;stroke-width:7.60882;stroke-linecap:round"
       id="path16" /><path
       d="m 449.62527,116.16108 v 17.04341 h 6.81767 v 17.04392 h 10.22625 v -17.04392 h 6.81715 V 116.16108 H 463.2601 v 10.22625 h -3.40858 v -10.22625 z"
       style="font-size:62.8737px;line-height:0;font-family:'Minecraft Ten v2';-inkscape-font-specification:'Minecraft Ten v2';text-align:center;text-anchor:middle;fill:#000000;stroke-width:7.60882;stroke-linecap:round"
       id="path15" /><path
       d="m 412.95257,116.16108 v 44.01179 h 30.80846 v -44.01179 h -13.20385 v 35.20922 h -4.40076 v -35.20922 z"
       style="font-size:62.8737px;line-height:0;font-family:'Minecraft Ten v2';-inkscape-font-specification:'Minecraft Ten v2';text-align:center;text-anchor:middle;fill:#000000;stroke-width:7.60882;stroke-linecap:round"
       id="path14" /><path
       d="m 357.18078,116.16108 v 67.6827 h 20.30471 v -27.07329 h 6.76857 v 27.07329 h 20.30471 v -67.6827 h -20.30471 v 27.07277 h -6.76857 v -27.07277 z"
       style="font-size:62.8737px;line-height:0;font-family:'Minecraft Ten v2';-inkscape-font-specification:'Minecraft Ten v2';text-align:center;text-anchor:middle;fill:#000000;stroke-width:7.60882;stroke-linecap:round"
       id="path13" /><path
       d="m 262.92452,116.16109 v 115.02764 h 80.51912 V 208.1829 h -46.01063 v -23.00532 h 34.50797 v -23.00532 h -34.50797 v -23.00585 h 46.01063 v -23.00532 z"
       style="font-size:62.8737px;line-height:0;font-family:'Minecraft Ten v2';-inkscape-font-specification:'Minecraft Ten v2';text-align:center;text-anchor:middle;fill:#000000;stroke-width:7.60882;stroke-linecap:round"
       id="path12" /><path
       d="m 174.37799,116.16108 v 91.35569 H 201.7851 V 170.9743 h 9.13536 v 18.27123 h 9.13536 v 18.27124 h 27.40711 v -91.35569 h -27.40711 v 36.54249 h -9.13536 v -18.27124 h -9.13536 v -18.27125 z"
       style="font-size:62.8737px;line-height:0;font-family:'Minecraft Ten v2';-inkscape-font-specification:'Minecraft Ten v2';text-align:center;text-anchor:middle;fill:#000000;stroke-width:7.60882;stroke-linecap:round"
       id="path11" /><path
       d="m 142.16238,116.16108 v 67.6827 h 20.30471 v -67.6827 z"
       style="font-size:62.8737px;line-height:0;font-family:'Minecraft Ten v2';-inkscape-font-specification:'Minecraft Ten v2';text-align:center;text-anchor:middle;fill:#000000;stroke-width:7.60882;stroke-linecap:round"
       id="path10" /><path
       d="m 89.790385,116.16108 v 44.01179 h 13.203845 v -17.60461 h 4.40077 v 8.80204 h 8.80256 v -8.80204 h 4.40128 v 17.60461 h 13.20333 v -44.01179 h -13.20333 v 8.80257 h -4.40128 v 8.80204 H 107.395 v -8.80204 h -4.40077 v -8.80257 z"
       style="font-size:62.8737px;line-height:0;font-family:'Minecraft Ten v2';-inkscape-font-specification:'Minecraft Ten v2';text-align:center;text-anchor:middle;fill:#000000;stroke-width:7.60882;stroke-linecap:round"
       id="path9" /><path
       d="m 63.487598,116.16108 v 34.08733 h 20.452498 v -6.81767 H 73.713847 v -27.26966 z"
       style="font-size:62.8737px;line-height:0;font-family:'Minecraft Ten v2';-inkscape-font-specification:'Minecraft Ten v2';text-align:center;text-anchor:middle;fill:#000000;stroke-width:7.60882;stroke-linecap:round"
       id="path8" /><path
       d="m 34.513656,116.16108 v 34.08733 h 23.861075 v -6.81767 H 44.739905 v -6.81716 h 10.226249 v -6.81767 H 44.739905 v -6.81767 h 13.634826 v -6.81716 z"
       style="font-size:62.8737px;line-height:0;font-family:'Minecraft Ten v2';-inkscape-font-specification:'Minecraft Ten v2';text-align:center;text-anchor:middle;fill:#000000;stroke-width:7.60882;stroke-linecap:round"
       id="path7" /><path
       d="m 372.96948,59.49456 c -3.98539,0 -7.11259,1.092119 -9.38185,3.276286 -2.25509,2.184167 -3.38274,5.042094 -3.38274,8.573636 0,2.482008 0.56058,4.644716 1.68103,6.488493 1.13463,1.829595 2.55958,3.169969 4.27571,4.020943 1.71613,0.836792 4.07054,1.255221 7.06313,1.255221 3.44645,0 6.09166,-0.489507 7.93544,-1.468127 1.84377,-0.992804 3.41788,-2.623977 4.72271,-4.893242 l -8.53075,-0.787032 c -0.53895,0.680779 -1.04247,1.155761 -1.5105,1.425236 -0.76588,0.425487 -1.5742,0.638721 -2.42518,0.638721 -1.34737,0 -2.43949,-0.489507 -3.27628,-1.468128 -0.59568,-0.680779 -0.97157,-1.716345 -1.12758,-3.10627 h 17.35966 v -0.978235 c 0,-2.978409 -0.48899,-5.396894 -1.46761,-7.254854 -0.97862,-1.85796 -2.40408,-3.276417 -4.27622,-4.255038 -1.87215,-0.97862 -4.42527,-1.46761 -7.65897,-1.46761 z m 0.36174,5.126819 c 1.19136,0 2.14885,0.361877 2.87217,1.085205 0.73751,0.723328 1.19148,1.922063 1.36168,3.595646 h -8.53126 c 0.14182,-1.347376 0.47517,-2.361929 0.99993,-3.042709 0.82261,-1.092083 1.92174,-1.638142 3.29748,-1.638142 z"
       style="font-weight:900;font-size:96px;line-height:1;font-family:Arial;-inkscape-font-specification:'Arial Heavy';text-align:center;baseline-shift:baseline;text-anchor:middle;vector-effect:none;fill:#000000;stroke-width:0.999999;stop-color:#000000"
       id="path66" /><path
       d="m 347.27028,51.410299 v 10.807092 c -0.85098,-0.907706 -1.82948,-1.5884 -2.93574,-2.042253 -1.09209,-0.453853 -2.31183,-0.680578 -3.65921,-0.680578 -2.76567,0 -5.04952,0.992506 -6.85075,2.978113 -1.78704,1.985606 -2.68045,4.850537 -2.68045,8.594824 0,3.347165 0.80832,6.191083 2.42517,8.531262 1.63104,2.340179 3.98545,3.51038 7.06314,3.51038 1.53175,0 2.92167,-0.326338 4.16977,-0.978752 0.93607,-0.496401 1.97164,-1.453885 3.10627,-2.872176 v 3.340365 h 8.10545 V 51.410299 Z m -3.91449,14.551566 c 1.14881,0 2.09877,0.43996 2.85047,1.3193 0.75169,0.865157 1.12758,2.184001 1.12758,3.956864 0,1.957241 -0.36837,3.368176 -1.10588,4.233333 -0.73751,0.865157 -1.65945,1.298112 -2.76572,1.298112 -1.03535,0 -1.90775,-0.425433 -2.61689,-1.276408 -0.69497,-0.865157 -1.04232,-2.220057 -1.04232,-4.063834 0,-1.971424 0.34035,-3.375355 1.02113,-4.212146 0.68078,-0.836791 1.52464,-1.255221 2.53163,-1.255221 z"
       style="font-weight:900;font-size:96px;line-height:1;font-family:Arial;-inkscape-font-specification:'Arial Heavy';text-align:center;baseline-shift:baseline;text-anchor:middle;vector-effect:none;fill:#000000;stroke-width:0.999999;stop-color:#000000"
       id="path65" /><path
       d="m 296.80721,59.49456 c -2.75149,0 -4.97775,0.921945 -6.6797,2.765722 -1.70195,1.843778 -2.55333,4.52401 -2.55333,8.04137 0,3.07769 0.65968,5.552727 1.97869,7.42487 1.85796,2.63802 4.29746,3.957381 7.31841,3.957381 1.54594,0 2.98541,-0.354873 4.3186,-1.064018 0.85098,-0.453853 1.70185,-1.184094 2.55282,-2.19108 v 3.425113 c 0,1.6594 -0.31181,2.82208 -0.93586,3.488676 -0.60986,0.666597 -1.53881,0.999939 -2.78691,0.999939 -0.96444,0 -1.76576,-0.219721 -2.40399,-0.659391 -0.43967,-0.297841 -0.76601,-0.836896 -0.97875,-1.616955 l -8.4031,-0.957048 c -0.0284,0.482219 -0.0429,0.865109 -0.0429,1.148767 0,2.283447 0.84387,4.105808 2.53163,5.467367 1.70195,1.361558 4.82214,2.042252 9.36067,2.042252 1.98561,0 3.74441,-0.177178 5.27617,-0.53175 1.54593,-0.354573 2.81523,-0.929167 3.80803,-1.723409 1.00699,-0.794243 1.80831,-1.836297 2.40399,-3.126941 0.60986,-1.276461 0.91519,-2.62384 0.91519,-4.042131 l -0.0217,-0.999939 V 60.005123 h -8.10545 v 3.339848 c -0.99281,-1.375742 -2.0634,-2.361244 -3.21221,-2.956926 -1.13463,-0.595682 -2.58162,-0.893485 -4.3403,-0.893485 z m 3.0427,6.276102 c 1.10627,0 2.04223,0.439443 2.8081,1.318783 0.76588,0.865157 1.14877,2.120445 1.14877,3.765662 0,1.645216 -0.36888,2.878974 -1.10639,3.701582 -0.72333,0.808426 -1.62375,1.212846 -2.70165,1.212846 -1.13463,0 -2.04957,-0.390411 -2.74453,-1.170471 -0.69496,-0.794242 -1.04232,-2.00647 -1.04232,-3.637504 0,-1.85796 0.32583,-3.184326 0.97824,-3.978568 0.6666,-0.808426 1.55352,-1.21233 2.65978,-1.21233 z"
       style="font-weight:900;font-size:96px;line-height:1;font-family:Arial;-inkscape-font-specification:'Arial Heavy';text-align:center;baseline-shift:baseline;text-anchor:middle;vector-effect:none;fill:#1d9bf0;stroke-width:0.999999;stop-color:#000000"
       id="path64" /><path
       d="m 271.42736,59.49456 c -3.95703,0 -7.09875,1.120136 -9.42475,3.361035 -2.32599,2.226716 -3.48919,5.063629 -3.48919,8.510075 0,3.701737 1.37591,6.694299 4.1274,8.977746 2.24089,1.843778 5.1769,2.765723 8.80773,2.765723 4.07049,0 7.25424,-1.106128 9.55187,-3.31866 2.31181,-2.226716 3.468,-5.077639 3.468,-8.55245 0,-3.091873 -0.92895,-5.69454 -2.78691,-7.807792 -2.31181,-2.623837 -5.7298,-3.935677 -10.25415,-3.935677 z m 0.12764,5.956742 c 1.19136,0 2.19088,0.481986 2.9993,1.446423 0.80843,0.950255 1.21285,2.404251 1.21285,4.361491 0,2.09907 -0.40442,3.623627 -1.21285,4.573881 -0.79424,0.950255 -1.81528,1.425236 -3.06338,1.425236 -1.23391,0 -2.26196,-0.481986 -3.08456,-1.446423 -0.80843,-0.964437 -1.21285,-2.453455 -1.21285,-4.467428 0,-1.985606 0.41142,-3.460615 1.23403,-4.425052 0.82261,-0.978621 1.86518,-1.468128 3.12746,-1.468128 z"
       style="font-weight:900;font-size:96px;line-height:1;font-family:Arial;-inkscape-font-specification:'Arial Heavy';text-align:center;baseline-shift:baseline;text-anchor:middle;vector-effect:none;fill:#1d9bf0;stroke-width:0.999999;stop-color:#000000"
       id="path63" /><path
       d="m 245.3659,51.410299 v 31.188277 h 8.68009 V 51.410299 Z"
       style="font-weight:900;font-size:96px;line-height:1;font-family:Arial;-inkscape-font-specification:'Arial Heavy';text-align:center;baseline-shift:baseline;text-anchor:middle;vector-effect:none;fill:#1d9bf0;stroke-width:0.999999;stop-color:#000000"
       id="path62" /><path
       d="m 216.04986,51.410299 v 31.188277 h 8.10545 v -3.340365 c 1.12045,1.404108 2.15602,2.361592 3.10627,2.872176 1.26228,0.652414 2.6522,0.978752 4.16977,0.978752 1.77286,0 3.38251,-0.460973 4.82916,-1.382861 1.46084,-0.936072 2.60251,-2.340003 3.42512,-4.212146 0.82261,-1.886326 1.23403,-4.06356 1.23403,-6.531385 0,-3.701737 -0.90041,-6.538651 -2.70164,-8.510074 -1.80123,-1.985607 -4.07756,-2.978113 -6.82904,-2.978113 -1.3332,0 -2.55294,0.226725 -3.65921,0.680578 -1.09208,0.453853 -2.0711,1.134547 -2.93626,2.042253 V 51.410299 Z m 12.67985,14.551566 c 0.97862,0 1.80796,0.41843 2.48873,1.255221 0.69497,0.836791 1.04284,2.148631 1.04284,3.935677 0,2.028155 -0.35488,3.475146 -1.06402,4.340303 -0.69496,0.850975 -1.55984,1.276408 -2.59519,1.276408 -1.12045,0 -2.0494,-0.432955 -2.78691,-1.298112 -0.72333,-0.87934 -1.08521,-2.290275 -1.08521,-4.233333 0,-1.772863 0.36888,-3.091707 1.10639,-3.956864 0.7517,-0.87934 1.71619,-1.3193 2.89337,-1.3193 z"
       style="font-weight:900;font-size:96px;line-height:1;font-family:Arial;-inkscape-font-specification:'Arial Heavy';text-align:center;baseline-shift:baseline;text-anchor:middle;vector-effect:none;fill:#1d9bf0;stroke-width:0.999999;stop-color:#000000"
       id="path61" /><path
       d="m 198.34965,50.857361 c -3.46063,0 -6.45319,0.772785 -8.97775,2.318721 -2.52455,1.545937 -4.55263,3.772718 -6.08438,6.680213 -1.51757,2.893312 -2.27635,6.112599 -2.27635,9.658325 0,3.375531 0.73025,6.467705 2.19108,9.27592 1.47503,2.808214 3.51762,4.970922 6.12728,6.488492 2.60965,1.517571 5.55267,2.276347 8.82892,2.276347 2.35436,0 4.55261,-0.361877 6.59494,-1.085205 2.04234,-0.723328 3.83617,-1.659282 5.3821,-2.808097 1.04954,-0.78006 2.15618,-1.857653 3.31918,-3.233395 h -4.36149 c -1.68777,1.31901 -3.45357,2.311517 -5.29735,2.978113 -1.8296,0.666597 -3.73704,0.999939 -5.72265,0.999939 -4.07049,0 -7.3964,-1.33337 -9.97768,-3.999756 -2.56711,-2.680568 -3.85093,-6.304276 -3.85093,-10.871171 0,-2.935861 0.5886,-5.616093 1.76578,-8.041369 1.19137,-2.425277 2.87961,-4.276172 5.06378,-5.552633 2.19835,-1.276461 4.63032,-1.914612 7.29671,-1.914612 3.61664,0 6.49609,1.084598 8.63771,3.254582 2.1558,2.169984 3.2334,5.127523 3.2334,8.87181 0,2.283447 -0.3969,4.233438 -1.19114,5.850289 -0.78006,1.602668 -1.78009,2.829421 -2.99982,3.680395 -0.82261,0.581499 -1.55986,0.872298 -2.21227,0.872298 -0.28366,0 -0.49637,-0.07108 -0.6382,-0.212907 -0.14183,-0.141829 -0.21291,-0.34002 -0.21291,-0.595312 0,-0.156012 0.0285,-0.404268 0.0853,-0.744657 l 2.65927,-16.828431 h -4.14859 l -0.38292,2.403988 c -0.78006,-1.162998 -1.56037,-1.978326 -2.34043,-2.446362 -0.76587,-0.468036 -1.65228,-0.701766 -2.65927,-0.701766 -2.58128,0 -4.74399,1.403931 -6.48849,4.212146 -1.7445,2.808215 -2.61689,5.94942 -2.61689,9.424231 0,2.935861 0.68069,5.191176 2.04225,6.765478 1.36156,1.574302 2.98573,2.361613 4.87205,2.361613 0.90771,0 1.75157,-0.184699 2.53163,-0.553454 0.78006,-0.382939 1.64494,-1.035098 2.59519,-1.956987 0.25529,0.865157 0.65271,1.496303 1.19166,1.893425 0.53895,0.397121 1.23365,0.595829 2.08463,0.595829 1.43247,0 2.96455,-0.496512 4.59558,-1.489315 2.11326,-1.290644 3.71589,-3.042443 4.80798,-5.254976 1.09208,-2.212533 1.63814,-4.652031 1.63814,-7.318417 0,-4.49598 -1.40445,-8.162231 -4.21266,-10.998811 -2.79403,-2.836581 -6.42475,-4.254521 -10.89236,-4.254521 z m -1.42524,9.998873 c 0.82261,0 1.53184,0.354356 2.12752,1.063501 0.59568,0.709145 0.89349,1.75872 0.89349,3.148645 0,1.843777 -0.27679,3.921398 -0.82993,6.233211 -0.55313,2.311813 -1.19828,3.8579 -1.93579,4.63796 -0.73752,0.765877 -1.56036,1.148767 -2.46807,1.148767 -0.83679,0 -1.52449,-0.347352 -2.06344,-1.042314 -0.72333,-0.936071 -1.08521,-2.247911 -1.08521,-3.935677 0,-1.716131 0.24126,-3.602565 0.72347,-5.659086 0.49641,-2.070704 1.21964,-3.581252 2.1699,-4.531506 0.70914,-0.709145 1.53199,-1.063501 2.46806,-1.063501 z"
       style="font-weight:900;font-size:96px;line-height:1;font-family:Arial;-inkscape-font-specification:'Arial Heavy';text-align:center;baseline-shift:baseline;text-anchor:middle;vector-effect:none;fill:#1d9bf0;stroke-width:0.999999;stop-color:#000000"
       id="path60" /><path
       d="m 155.01379,51.410299 v 31.188277 h 8.68009 V 51.410299 Z"
       style="font-weight:900;font-size:96px;line-height:1;font-family:Arial;-inkscape-font-specification:'Arial Heavy';text-align:center;baseline-shift:baseline;text-anchor:middle;vector-effect:none;fill:#000000;stroke-width:0.999999;stop-color:#000000"
       id="path59" /><path
       d="m 123.80433,51.410299 v 31.188277 h 26.29504 v -7.063135 h -16.6362 v -6.148462 h 14.99805 v -6.360852 h -14.99805 v -4.956803 h 16.16852 v -6.659025 z"
       style="font-weight:900;font-size:96px;line-height:1;font-family:Arial;-inkscape-font-specification:'Arial Heavy';text-align:center;baseline-shift:baseline;text-anchor:middle;vector-effect:none;fill:#000000;stroke-width:0.999999;stop-color:#000000"
       id="path58" /><text
       xml:space="preserve"
       transform="scale(0.26458333)"
       id="text71"
       style="font-style:normal;font-variant:normal;font-weight:normal;font-stretch:normal;font-size:53.3333px;line-height:1.25;font-family:Arial;-inkscape-font-specification:Arial;text-align:center;letter-spacing:0px;writing-mode:lr-tb;direction:ltr;white-space:pre;shape-inside:url(#rect71);display:inline;fill:#808080;fill-opacity:1;stroke:none;stroke-linecap:round;stroke-linejoin:round;paint-order:fill markers stroke" /><text
       xml:space="preserve"
       style="font-style:normal;font-variant:normal;font-weight:900;font-stretch:normal;font-size:96px;line-height:1;font-family:Arial;-inkscape-font-specification:'Arial Heavy';font-variant-ligatures:normal;font-variant-position:normal;font-variant-caps:normal;font-variant-numeric:normal;font-variant-alternates:normal;font-variant-east-asian:normal;font-feature-settings:normal;text-indent:0;text-align:center;text-decoration-line:none;text-decoration-style:solid;text-decoration-color:#000000;letter-spacing:normal;word-spacing:normal;text-transform:none;writing-mode:lr-tb;direction:ltr;text-orientation:mixed;dominant-baseline:auto;baseline-shift:baseline;text-anchor:middle;white-space:normal;shape-padding:0;shape-margin:0;inline-size:0;vector-effect:none;fill:#1d9bf0;fill-opacity:1;stroke-width:0.999999;stroke-linecap:butt;stroke-linejoin:miter;stroke-miterlimit:4;stroke-dasharray:none;stroke-dashoffset:0;stroke-opacity:1;-inkscape-stroke:none;stop-color:#000000"
       x="762.90344"
       y="535.79431"
       id="text58"
       transform="matrix(0.45385289,0,0,0.45385289,313.47625,-158.62065)"><tspan
         sodipodi:role="line"
         x="762.90344"
         y="535.79431"
         style="font-style:normal;font-variant:normal;font-weight:900;font-stretch:normal;font-family:Arial;-inkscape-font-specification:'Arial Heavy';text-align:center;text-anchor:middle;fill:#1d9bf0;fill-opacity:1"
         id="tspan58"><tspan
   style="font-style:normal;font-variant:normal;font-weight:900;font-stretch:normal;font-family:Arial;-inkscape-font-specification:'Arial Heavy';fill:#000000"
   id="tspan56">El</tspan> @blog <tspan
   style="fill:#000000"
   id="tspan57">de</tspan></tspan></text></g><style
     type="text/css"
     id="style2019">
	.st0{fill:#1D9BF0;}
</style><style
     type="text/css"
     id="style1">
	.st0{fill:#1D9BF0;}
</style></svg>
